{
.appVersion = "1095";
DisplayStrings = (
"/tildecomb Õ"
);
copyright = "Copyright 2017 The Barlow Project Authors (https://github.com/jpt/barlow)";
customParameters = (
{
name = "Use Typo Metrics";
value = 1;
},
{
name = licenseURL;
value = "http://scripts.sil.org/OFL";
},
{
name = license;
value = "This Font Software is licensed under the SIL Open Font License, Version 1.1. This license is available with a FAQ at: http://scripts.sil.org/OFL";
},
{
name = fsType;
value = (
);
},
{
name = vendorID;
value = TTC;
},
{
name = Axes;
value = (
{
Name = Weight;
Tag = wght;
},
{
Name = Width;
Tag = wdth;
}
);
},
{
name = "Disable Last Change";
value = 1;
},
{
name = "Use Line Breaks";
value = 1;
}
);
date = "2017-01-19 02:17:38 +0000";
designer = "Jeremy Tribby";
designerURL = "https://tribby.com/";
familyName = Barlow;
featurePrefixes = (
{
automatic = 1;
code = "languagesystem DFLT dflt;
languagesystem latn dflt;
languagesystem latn CRT;
languagesystem latn TAT;
languagesystem latn KAZ;
languagesystem latn TRK;
languagesystem latn AZE;
";
name = Languagesystems;
}
);
features = (
{
automatic = 1;
code = "feature ccmp;
feature locl;
feature sups;
feature numr;
feature dnom;
feature frac;
feature ordn;
feature c2sc;
feature smcp;
";
name = aalt;
},
{
automatic = 1;
code = "lookup ccmp_Other_1 {
	@CombiningTopAccents = [acutecomb brevecomb caroncomb circumflexcomb commaabovecomb commaturnedabovecomb dieresiscomb dotaccentcomb gravecomb hungarumlautcomb macroncomb ringcomb tildecomb];
	@CombiningNonTopAccents = [cedillacomb ogonekcomb slashlongcomb slashshortcomb strokelongcomb strokeshortcomb];
	sub [i]' @CombiningTopAccents by [idotless];
	sub [i]' @CombiningNonTopAccents @CombiningTopAccents by [idotless];
} ccmp_Other_1;
";
name = ccmp;
},
{
automatic = 1;
code = "script latn;
language CRT;
sub i by idotaccent;
language TAT;
sub i by idotaccent;
language KAZ;
sub i by idotaccent;
language TRK;
sub i by idotaccent;
language AZE;
sub i by idotaccent;
";
name = locl;
},
{

glyphs = (
{
glyphname = A;
layers = (
{
anchors = (
{
name = top;
position = "{280, 700}";
}
);
hints = (
{
horizontal = 1;
origin = "{1, 0}";
target = "{1, 1}";
}
);
layerId = "262880E7-CFE1-4BDA-902E-E24798F3240A";
paths = (
{
closed = 1;
nodes = (
"60 0 LINE",
"280 671 LINE",
"502 0 LINE",
"524 0 LINE",
"291 700 LINE",
"269 700 LINE",
"38 0 LINE"
);
},
{
closed = 1;
nodes = (
"457 155 LINE",
"457 176 LINE",
"106 176 LINE",
"106 155 LINE"
);
}
);
width = 562;
},
{
anchors = (
{
name = top;
position = "{266, 700}";
}
);
layerId = "4E2227F3-52E4-4048-A8EE-327B486EF0A4";
paths = (
{
closed = 1;
nodes = (
"200 0 LINE",
"270 438 LINE",
"327 0 LINE",
"519 0 LINE",
"371 700 LINE",
"161 700 LINE",
"12 0 LINE"
);
},
{
closed = 1;
nodes = (
"399 95 LINE",
"399 239 LINE",
"129 239 LINE",
"129 95 LINE"
);
}
);
width = 531;
},
{
anchors = (
{
name = top;
position = "{355, 700}";
}
);
layerId = "FFFA8D72-12AC-4CE0-B2CA-57A29829F4DA";
paths = (
{
closed = 1;
nodes = (
"220 0 LINE",
"357 497 LINE",
"494 0 LINE",
"696 0 LINE",
"476 700 LINE",
"238 700 LINE",
"18 0 LINE"
);
},
{
closed = 1;
nodes = (
"523 95 LINE",
"523 239 LINE",
"188 239 LINE",
"188 95 LINE"
);
}
);
width = 714;
},
{
anchors = (
{
name = top;
position = "{179, 700}";
}
);
layerId = "DCBE1F7B-116A-43E0-B7B4-8657BA77D8B5";
paths = (
{
closed = 1;
nodes = (
"32 0 LINE",
"179 662 LINE",
"327 0 LINE",
"349 0 LINE",
"190 700 LINE",
"167 700 LINE",
"10 0 LINE"
);
},
{
closed = 1;
nodes = (
"304 155 LINE",
"304 176 LINE",
"58 176 LINE",
"58 155 LINE"
);
}
);
width = 359;
}
);
leftKerningGroup = A;
rightKerningGroup = A;
unicode = 0041;
},
{
glyphname = Aacute;
layers = (
{
anchors = (
{
name = top;
position = "{280, 700}";
}
);
hints = (
{
horizontal = 1;
origin = "{1, 0}";
target = "{1, 1}";
}
);
layerId = "262880E7-CFE1-4BDA-902E-E24798F3240A";
paths = (
{
closed = 1;
nodes = (
"60 0 LINE",
"280 671 LINE",
"502 0 LINE",
"524 0 LINE",
"291 700 LINE",
"269 700 LINE",
"38 0 LINE"
);
},
{
closed = 1;
nodes = (
"457 155 LINE",
"457 176 LINE",
"106 176 LINE",
"106 155 LINE"
);
},
{
closed = 1;
nodes = (
"273 769 LINE",
"348 900 LINE",
"324 900 LINE",
"251 769 LINE"
);
}
);
width = 562;
},
{
anchors = (
{
name = top;
position = "{355, 700}";
}
);
layerId = "FFFA8D72-12AC-4CE0-B2CA-57A29829F4DA";
paths = (
{
closed = 1;
nodes = (
"220 0 LINE",
"357 497 LINE",
"494 0 LINE",
"696 0 LINE",
"476 700 LINE",
"238 700 LINE",
"18 0 LINE"
);
},
{
closed = 1;
nodes = (
"523 95 LINE",
"523 239 LINE",
"188 239 LINE",
"188 95 LINE"
);
},
{
closed = 1;
nodes = (
"435 759 LINE",
"526 880 LINE",
"320 880 LINE",
"256 759 LINE"
);
}
);
width = 714;
},
{
anchors = (
{
name = top;
position = "{179, 700}";
}
);
layerId = "DCBE1F7B-116A-43E0-B7B4-8657BA77D8B5";
paths = (
{
closed = 1;
nodes = (
"32 0 LINE",
"179 662 LINE",
"327 0 LINE",
"349 0 LINE",
"190 700 LINE",
"167 700 LINE",
"10 0 LINE"
);
},
{
closed = 1;
nodes = (
"304 155 LINE",
"304 176 LINE",
"58 176 LINE",
"58 155 LINE"
);
},
{
closed = 1;
nodes = (
"168 769 LINE",
"243 900 LINE",
"219 900 LINE",
"146 769 LINE"
);
}
);
width = 359;
},
{
anchors = (
{
name = top;
position = "{266, 700}";
}
);
layerId = "4E2227F3-52E4-4048-A8EE-327B486EF0A4";
paths = (
{
closed = 1;
nodes = (
"200 0 LINE",
"270 438 LINE",
"327 0 LINE",
"519 0 LINE",
"371 700 LINE",
"161 700 LINE",
"12 0 LINE"
);
},
{
closed = 1;
nodes = (
"399 95 LINE",
"399 239 LINE",
"129 239 LINE",
"129 95 LINE"
);
},
{
closed = 1;
nodes = (
"321 759 LINE",
"420 880 LINE",
"242 880 LINE",
"170 759 LINE"
);
}
);
width = 531;
}
);
leftKerningGroup = A;
rightKerningGroup = A;
unicode = 00C1;
},
{
glyphname = Abreve;
layers = (
{
anchors = (
{
name = top;
position = "{280, 700}";
}
);
hints = (
{
horizontal = 1;
origin = "{1, 0}";
target = "{1, 1}";
},
{
horizontal = 1;
origin = "{2, 13}";
target = "{2, 6}";
},
{
origin = "{2, 10}";
target = "{2, 9}";
},
{
origin = "{2, 3}";
target = "{2, 2}";
}
);
layerId = "262880E7-CFE1-4BDA-902E-E24798F3240A";
paths = (
{
closed = 1;
nodes = (
"60 0 LINE",
"280 671 LINE",
"502 0 LINE",
"524 0 LINE",
"291 700 LINE",
"269 700 LINE",
"38 0 LINE"
);
},
{
closed = 1;
nodes = (
"457 155 LINE",
"457 176 LINE",
"106 176 LINE",
"106 155 LINE"
);
},
{
closed = 1;
nodes = (
"335 764 OFFCURVE",
"379 807 OFFCURVE",
"379 861 CURVE",
"357 861 LINE",
"357 818 OFFCURVE",
"322 785 OFFCURVE",
"280 785 CURVE SMOOTH",
"238 785 OFFCURVE",
"203 818 OFFCURVE",
"203 861 CURVE",
"181 861 LINE",
"181 807 OFFCURVE",
"225 764 OFFCURVE",
"280 764 CURVE SMOOTH"
);
}
);
width = 562;
},
{
anchors = (
{
name = top;
position = "{355, 700}";
}
);
layerId = "FFFA8D72-12AC-4CE0-B2CA-57A29829F4DA";
paths = (
{
closed = 1;
nodes = (
"220 0 LINE",
"357 497 LINE",
"494 0 LINE",
"696 0 LINE",
"476 700 LINE",
"238 700 LINE",
"18 0 LINE"
);
},
{
closed = 1;
nodes = (
"523 95 LINE",
"523 239 LINE",
"188 239 LINE",
"188 95 LINE"
);
},
{
closed = 1;
nodes = (
"442 737 OFFCURVE",
"511 798 OFFCURVE",
"511 880 CURVE",
"400 880 LINE",
"400 851 OFFCURVE",
"380 828 OFFCURVE",
"355 828 CURVE SMOOTH",
"330 828 OFFCURVE",
"310 851 OFFCURVE",
"310 880 CURVE",
"199 880 LINE",
"199 798 OFFCURVE",
"268 737 OFFCURVE",
"355 737 CURVE SMOOTH"
);
}
);
width = 714;
},
{
anchors = (
{
name = top;
position = "{179, 700}";
}
);
layerId = "DCBE1F7B-116A-43E0-B7B4-8657BA77D8B5";
paths = (
{
closed = 1;
nodes = (
"32 0 LINE",
"179 662 LINE",
"327 0 LINE",
"349 0 LINE",
"190 700 LINE",
"167 700 LINE",
"10 0 LINE"
);
},
{
closed = 1;
nodes = (
"304 155 LINE",
"304 176 LINE",
"58 176 LINE",
"58 155 LINE"
);
},
{
closed = 1;
nodes = (
"232 764 OFFCURVE",
"273 807 OFFCURVE",
"273 861 CURVE",
"252 861 LINE",
"252 818 OFFCURVE",
"219 785 OFFCURVE",
"179 785 CURVE SMOOTH",
"139 785 OFFCURVE",
"106 818 OFFCURVE",
"106 861 CURVE",
"85 861 LINE",
"85 807 OFFCURVE",
"127 764 OFFCURVE",
"179 764 CURVE SMOOTH"
);
}
);
width = 359;
},
{
anchors = (
{
name = top;
position = "{266, 700}";
}
);
layerId = "4E2227F3-52E4-4048-A8EE-327B486EF0A4";
paths = (
{
closed = 1;
nodes = (
"200 0 LINE",
"270 438 LINE",
"327 0 LINE",
"519 0 LINE",
"371 700 LINE",
"161 700 LINE",
"12 0 LINE"
);
},
{
closed = 1;
nodes = (
"399 95 LINE",
"399 239 LINE",
"129 239 LINE",
"129 95 LINE"
);
},
{
closed = 1;
nodes = (
"345 723 OFFCURVE",
"397 773 OFFCURVE",
"397 849 CURVE",
"302 849 LINE",
"302 820 OFFCURVE",
"288 801 OFFCURVE",
"266 801 CURVE SMOOTH",
"244 801 OFFCURVE",
"230 820 OFFCURVE",
"230 849 CURVE",
"135 849 LINE",
"135 773 OFFCURVE",
"187 723 OFFCURVE",
"266 723 CURVE SMOOTH"
);
}
);
width = 531;
}
);
leftKerningGroup = A;
rightKerningGroup = A;
unicode = 0102;
},
{
glyphname = Acaron;
layers = (
{
anchors = (
{
name = top;
position = "{280, 700}";
}
);
hints = (
{
horizontal = 1;
origin = "{1, 0}";
target = "{1, 1}";
}
);
layerId = "262880E7-CFE1-4BDA-902E-E24798F3240A";
paths = (
{
closed = 1;
nodes = (
"60 0 LINE",
"280 671 LINE",
"502 0 LINE",
"524 0 LINE",
"291 700 LINE",
"269 700 LINE",
"38 0 LINE"
);
},
{
closed = 1;
nodes = (
"457 155 LINE",
"457 176 LINE",
"106 176 LINE",
"106 155 LINE"
);
},
{
closed = 1;
nodes = (
"289 772 LINE",
"387 897 LINE",
"361 897 LINE",
"280 792 LINE",
"197 897 LINE",
"171 897 LINE",
"269 772 LINE"
);
}
);
width = 562;
},
{
anchors = (
{
name = top;
position = "{355, 700}";
}
);
layerId = "FFFA8D72-12AC-4CE0-B2CA-57A29829F4DA";
paths = (
{
closed = 1;
nodes = (
"220 0 LINE",
"357 497 LINE",
"494 0 LINE",
"696 0 LINE",
"476 700 LINE",
"238 700 LINE",
"18 0 LINE"
);
},
{
closed = 1;
nodes = (
"523 95 LINE",
"523 239 LINE",
"188 239 LINE",
"188 95 LINE"
);
},
{
closed = 1;
nodes = (
"470 750 LINE",
"552 879 LINE",
"390 879 LINE",
"355 817 LINE",
"320 879 LINE",
"157 879 LINE",
"236 750 LINE"
);
}
);
width = 714;
},
{
anchors = (
{
name = top;
position = "{179, 700}";
}
);
layerId = "DCBE1F7B-116A-43E0-B7B4-8657BA77D8B5";
paths = (
{
closed = 1;
nodes = (
"32 0 LINE",
"179 662 LINE",
"327 0 LINE",
"349 0 LINE",
"190 700 LINE",
"167 700 LINE",
"10 0 LINE"
);
},
{
closed = 1;
nodes = (
"304 155 LINE",
"304 176 LINE",
"58 176 LINE",
"58 155 LINE"
);
},
{
closed = 1;
nodes = (
"192 778 LINE",
"271 897 LINE",
"239 897 LINE",
"180 803 LINE",
"120 897 LINE",
"89 897 LINE",
"166 778 LINE"
);
}
);
width = 359;
},
{
anchors = (
{
name = top;
position = "{266, 700}";
}
);
layerId = "4E2227F3-52E4-4048-A8EE-327B486EF0A4";
paths = (
{
closed = 1;
nodes = (
"200 0 LINE",
"270 438 LINE",
"327 0 LINE",
"519 0 LINE",
"371 700 LINE",
"161 700 LINE",
"12 0 LINE"
);
},
{
closed = 1;
nodes = (
"399 95 LINE",
"399 239 LINE",
"129 239 LINE",
"129 95 LINE"
);
},
{
closed = 1;
nodes = (
"347 751 LINE",
"430 880 LINE",
"297 880 LINE",
"266 818 LINE",
"233 880 LINE",
"92 880 LINE",
"173 751 LINE"
);
}
);
width = 531;
}
);
leftKerningGroup = A;
rightKerningGroup = A;
unicode = 01CD;
},
{
glyphname = Acircumflex;
layers = (
{
anchors = (
{
name = top;
position = "{280, 700}";
}
);
hints = (
{
horizontal = 1;
origin = "{1, 0}";
target = "{1, 1}";
}
);
layerId = "262880E7-CFE1-4BDA-902E-E24798F3240A";
paths = (
{
closed = 1;
nodes = (
"60 0 LINE",
"280 671 LINE",
"502 0 LINE",
"524 0 LINE",
"291 700 LINE",
"269 700 LINE",
"38 0 LINE"
);
},
{
closed = 1;
nodes = (
"457 155 LINE",
"457 176 LINE",
"106 176 LINE",
"106 155 LINE"
);
},
{
closed = 1;
nodes = (
"197 775 LINE",
"280 880 LINE",
"361 775 LINE",
"387 775 LINE",
"289 900 LINE",
"269 900 LINE",
"171 775 LINE"
);
}
);
width = 562;
},
{
anchors = (
{
name = top;
position = "{355, 700}";
}
);
layerId = "FFFA8D72-12AC-4CE0-B2CA-57A29829F4DA";
paths = (
{
closed = 1;
nodes = (
"220 0 LINE",
"357 497 LINE",
"494 0 LINE",
"696 0 LINE",
"476 700 LINE",
"238 700 LINE",
"18 0 LINE"
);
},
{
closed = 1;
nodes = (
"523 95 LINE",
"523 239 LINE",
"188 239 LINE",
"188 95 LINE"
);
},
{
closed = 1;
nodes = (
"321 751 LINE",
"356 813 LINE",
"391 751 LINE",
"553 751 LINE",
"471 880 LINE",
"237 880 LINE",
"158 751 LINE"
);
}
);
width = 714;
},
{
anchors = (
{
name = top;
position = "{179, 700}";
}
);
layerId = "DCBE1F7B-116A-43E0-B7B4-8657BA77D8B5";
paths = (
{
closed = 1;
nodes = (
"32 0 LINE",
"179 662 LINE",
"327 0 LINE",
"349 0 LINE",
"190 700 LINE",
"167 700 LINE",
"10 0 LINE"
);
},
{
closed = 1;
nodes = (
"304 155 LINE",
"304 176 LINE",
"58 176 LINE",
"58 155 LINE"
);
},
{
closed = 1;
nodes = (
"119 781 LINE",
"179 875 LINE",
"238 781 LINE",
"270 781 LINE",
"191 900 LINE",
"165 900 LINE",
"88 781 LINE"
);
}
);
width = 359;
},
{
anchors = (
{
name = top;
position = "{266, 700}";
}
);
layerId = "4E2227F3-52E4-4048-A8EE-327B486EF0A4";
paths = (
{
closed = 1;
nodes = (
"200 0 LINE",
"270 438 LINE",
"327 0 LINE",
"519 0 LINE",
"371 700 LINE",
"161 700 LINE",
"12 0 LINE"
);
},
{
closed = 1;
nodes = (
"399 95 LINE",
"399 239 LINE",
"129 239 LINE",
"129 95 LINE"
);
},
{
closed = 1;
nodes = (
"235 751 LINE",
"264 814 LINE",
"293 751 LINE",
"439 751 LINE",
"355 880 LINE",
"170 880 LINE",
"89 751 LINE"
);
}
);
width = 531;
}
);
leftKerningGroup = A;
rightKerningGroup = A;
unicode = 00C2;
},
{
glyphname = Adieresis;
layers = (
{
anchors = (
{
name = top;
position = "{280, 700}";
}
);
hints = (
{
horizontal = 1;
origin = "{1, 0}";
target = "{1, 1}";
}
);
layerId = "262880E7-CFE1-4BDA-902E-E24798F3240A";
paths = (
{
closed = 1;
nodes = (
"60 0 LINE",
"280 671 LINE",
"502 0 LINE",
"524 0 LINE",
"291 700 LINE",
"269 700 LINE",
"38 0 LINE"
);
},
{
closed = 1;
nodes = (
"457 155 LINE",
"457 176 LINE",
"106 176 LINE",
"106 155 LINE"
);
},
{
closed = 1;
nodes = (
"378 819 OFFCURVE",
"398 837 OFFCURVE",
"398 860 CURVE SMOOTH",
"398 882 OFFCURVE",
"378 900 OFFCURVE",
"356 900 CURVE SMOOTH",
"334 900 OFFCURVE",
"314 882 OFFCURVE",
"314 860 CURVE SMOOTH",
"314 837 OFFCURVE",
"333 819 OFFCURVE",
"356 819 CURVE SMOOTH"
);
},
{
closed = 1;
nodes = (
"226 819 OFFCURVE",
"246 837 OFFCURVE",
"246 860 CURVE SMOOTH",
"246 882 OFFCURVE",
"226 900 OFFCURVE",
"204 900 CURVE SMOOTH",
"182 900 OFFCURVE",
"162 882 OFFCURVE",
"162 860 CURVE SMOOTH",
"162 837 OFFCURVE",
"181 819 OFFCURVE",
"204 819 CURVE SMOOTH"
);
}
);
width = 562;
},
{
anchors = (
{
name = top;
position = "{355, 700}";
}
);
layerId = "FFFA8D72-12AC-4CE0-B2CA-57A29829F4DA";
paths = (
{
closed = 1;
nodes = (
"220 0 LINE",
"357 497 LINE",
"494 0 LINE",
"696 0 LINE",
"476 700 LINE",
"238 700 LINE",
"18 0 LINE"
);
},
{
closed = 1;
nodes = (
"523 95 LINE",
"523 239 LINE",
"188 239 LINE",
"188 95 LINE"
);
},
{
closed = 1;
nodes = (
"543 744 OFFCURVE",
"590 791 OFFCURVE",
"590 849 CURVE SMOOTH",
"590 907 OFFCURVE",
"535 953 OFFCURVE",
"478 953 CURVE SMOOTH",
"422 953 OFFCURVE",
"366 907 OFFCURVE",
"366 849 CURVE SMOOTH",
"366 791 OFFCURVE",
"413 744 OFFCURVE",
"478 744 CURVE SMOOTH"
);
},
{
closed = 1;
nodes = (
"297 744 OFFCURVE",
"344 791 OFFCURVE",
"344 849 CURVE SMOOTH",
"344 907 OFFCURVE",
"289 953 OFFCURVE",
"232 953 CURVE SMOOTH",
"176 953 OFFCURVE",
"120 907 OFFCURVE",
"120 849 CURVE SMOOTH",
"120 791 OFFCURVE",
"167 744 OFFCURVE",
"232 744 CURVE SMOOTH"
);
}
);
width = 714;
},
{
anchors = (
{
name = top;
position = "{179, 700}";
}
);
layerId = "DCBE1F7B-116A-43E0-B7B4-8657BA77D8B5";
paths = (
{
closed = 1;
nodes = (
"32 0 LINE",
"179 662 LINE",
"327 0 LINE",
"349 0 LINE",
"190 700 LINE",
"167 700 LINE",
"10 0 LINE"
);
},
{
closed = 1;
nodes = (
"304 155 LINE",
"304 176 LINE",
"58 176 LINE",
"58 155 LINE"
);
},
{
closed = 1;
nodes = (
"258 819 OFFCURVE",
"274 837 OFFCURVE",
"274 860 CURVE SMOOTH",
"274 882 OFFCURVE",
"258 900 OFFCURVE",
"240 900 CURVE SMOOTH",
"222 900 OFFCURVE",
"206 882 OFFCURVE",
"206 860 CURVE SMOOTH",
"206 837 OFFCURVE",
"221 819 OFFCURVE",
"240 819 CURVE SMOOTH"
);
},
{
closed = 1;
nodes = (
"152 819 OFFCURVE",
"168 837 OFFCURVE",
"168 860 CURVE SMOOTH",
"168 882 OFFCURVE",
"152 900 OFFCURVE",
"134 900 CURVE SMOOTH",
"116 900 OFFCURVE",
"100 882 OFFCURVE",
"100 860 CURVE SMOOTH",
"100 837 OFFCURVE",
"115 819 OFFCURVE",
"134 819 CURVE SMOOTH"
);
}
);
width = 359;
},
{
anchors = (
{
name = top;
position = "{266, 700}";
}
);
layerId = "4E2227F3-52E4-4048-A8EE-327B486EF0A4";
paths = (
{
closed = 1;
nodes = (
"200 0 LINE",
"270 438 LINE",
"327 0 LINE",
"519 0 LINE",
"371 700 LINE",
"161 700 LINE",
"12 0 LINE"
);
},
{
closed = 1;
nodes = (
"399 95 LINE",
"399 239 LINE",
"129 239 LINE",
"129 95 LINE"
);
},
{
closed = 1;
nodes = (
"439 735 OFFCURVE",
"482 782 OFFCURVE",
"482 840 CURVE SMOOTH",
"482 898 OFFCURVE",
"430 944 OFFCURVE",
"377 944 CURVE SMOOTH",
"324 944 OFFCURVE",
"272 898 OFFCURVE",
"272 840 CURVE SMOOTH",
"272 782 OFFCURVE",
"315 735 OFFCURVE",
"377 735 CURVE SMOOTH"
);
},
{
closed = 1;
nodes = (
"216 735 OFFCURVE",
"259 782 OFFCURVE",
"259 840 CURVE SMOOTH",
"259 898 OFFCURVE",
"207 944 OFFCURVE",
"154 944 CURVE SMOOTH",
"101 944 OFFCURVE",
"49 898 OFFCURVE",
"49 840 CURVE SMOOTH",
"49 782 OFFCURVE",
"92 735 OFFCURVE",
"154 735 CURVE SMOOTH"
);
}
);
width = 531;
}
);
leftKerningGroup = A;
rightKerningGroup = A;
unicode = 00C4;
},
{
glyphname = Agrave;
layers = (
{
anchors = (
{
name = top;
position = "{280, 700}";
}
);
hints = (
{
horizontal = 1;
origin = "{1, 0}";
target = "{1, 1}";
}
);
layerId = "262880E7-CFE1-4BDA-902E-E24798F3240A";
paths = (
{
closed = 1;
nodes = (
"60 0 LINE",
"280 671 LINE",
"502 0 LINE",
"524 0 LINE",
"291 700 LINE",
"269 700 LINE",
"38 0 LINE"
);
},
{
closed = 1;
nodes = (
"457 155 LINE",
"457 176 LINE",
"106 176 LINE",
"106 155 LINE"
);
},
{
closed = 1;
nodes = (
"213 900 LINE",
"189 900 LINE",
"264 769 LINE",
"286 769 LINE"
);
}
);
width = 562;
},
{
anchors = (
{
name = top;
position = "{355, 700}";
}
);
layerId = "FFFA8D72-12AC-4CE0-B2CA-57A29829F4DA";
paths = (
{
closed = 1;
nodes = (
"220 0 LINE",
"357 497 LINE",
"494 0 LINE",
"696 0 LINE",
"476 700 LINE",
"238 700 LINE",
"18 0 LINE"
);
},
{
closed = 1;
nodes = (
"523 95 LINE",
"523 239 LINE",
"188 239 LINE",
"188 95 LINE"
);
},
{
closed = 1;
nodes = (
"378 880 LINE",
"172 880 LINE",
"263 759 LINE",
"442 759 LINE"
);
}
);
width = 714;
},
{
anchors = (
{
name = top;
position = "{179, 700}";
}
);
layerId = "DCBE1F7B-116A-43E0-B7B4-8657BA77D8B5";
paths = (
{
closed = 1;
nodes = (
"32 0 LINE",
"179 662 LINE",
"327 0 LINE",
"349 0 LINE",
"190 700 LINE",
"167 700 LINE",
"10 0 LINE"
);
},
{
closed = 1;
nodes = (
"304 155 LINE",
"304 176 LINE",
"58 176 LINE",
"58 155 LINE"
);
},
{
closed = 1;
nodes = (
"118 900 LINE",
"94 900 LINE",
"169 769 LINE",
"191 769 LINE"
);
}
);
width = 359;
},
{
anchors = (
{
name = top;
position = "{266, 700}";
}
);
layerId = "4E2227F3-52E4-4048-A8EE-327B486EF0A4";
paths = (
{
closed = 1;
nodes = (
"200 0 LINE",
"270 438 LINE",
"327 0 LINE",
"519 0 LINE",
"371 700 LINE",
"161 700 LINE",
"12 0 LINE"
);
},
{
closed = 1;
nodes = (
"399 95 LINE",
"399 239 LINE",
"129 239 LINE",
"129 95 LINE"
);
},
{
closed = 1;
nodes = (
"271 880 LINE",
"93 880 LINE",
"192 759 LINE",
"343 759 LINE"
);
}
);
width = 531;
}
);
leftKerningGroup = A;
rightKerningGroup = A;
unicode = 00C0;
},
{
glyphname = Amacron;
layers = (
{
anchors = (
{
name = top;
position = "{280, 700}";
}
);
hints = (
{
horizontal = 1;
origin = "{1, 0}";
target = "{1, 1}";
}
);
layerId = "262880E7-CFE1-4BDA-902E-E24798F3240A";
paths = (
{
closed = 1;
nodes = (
"60 0 LINE",
"280 671 LINE",
"502 0 LINE",
"524 0 LINE",
"291 700 LINE",
"269 700 LINE",
"38 0 LINE"
);
},
{
closed = 1;
nodes = (
"457 155 LINE",
"457 176 LINE",
"106 176 LINE",
"106 155 LINE"
);
},
{
closed = 1;
nodes = (
"406 805 LINE",
"406 826 LINE",
"155 826 LINE",
"155 805 LINE"
);
}
);
width = 562;
},
{
anchors = (
{
name = top;
position = "{355, 700}";
}
);
layerId = "FFFA8D72-12AC-4CE0-B2CA-57A29829F4DA";
paths = (
{
closed = 1;
nodes = (
"220 0 LINE",
"357 497 LINE",
"494 0 LINE",
"696 0 LINE",
"476 700 LINE",
"238 700 LINE",
"18 0 LINE"
);
},
{
closed = 1;
nodes = (
"523 95 LINE",
"523 239 LINE",
"188 239 LINE",
"188 95 LINE"
);
},
{
closed = 1;
nodes = (
"511 747 LINE",
"511 872 LINE",
"200 872 LINE",
"200 747 LINE"
);
}
);
width = 714;
},
{
anchors = (
{
name = top;
position = "{179, 700}";
}
);
layerId = "DCBE1F7B-116A-43E0-B7B4-8657BA77D8B5";
paths = (
{
closed = 1;
nodes = (
"32 0 LINE",
"179 662 LINE",
"327 0 LINE",
"349 0 LINE",
"190 700 LINE",
"167 700 LINE",
"10 0 LINE"
);
},
{
closed = 1;
nodes = (
"304 155 LINE",
"304 176 LINE",
"58 176 LINE",
"58 155 LINE"
);
},
{
closed = 1;
nodes = (
"275 805 LINE",
"275 826 LINE",
"84 826 LINE",
"84 805 LINE"
);
}
);
width = 359;
},
{
anchors = (
{
name = top;
position = "{266, 700}";
}
);
layerId = "4E2227F3-52E4-4048-A8EE-327B486EF0A4";
paths = (
{
closed = 1;
nodes = (
"200 0 LINE",
"270 438 LINE",
"327 0 LINE",
"519 0 LINE",
"371 700 LINE",
"161 700 LINE",
"12 0 LINE"
);
},
{
closed = 1;
nodes = (
"399 95 LINE",
"399 239 LINE",
"129 239 LINE",
"129 95 LINE"
);
},
{
closed = 1;
nodes = (
"376 752 LINE",
"376 877 LINE",
"145 877 LINE",
"145 752 LINE"
);
}
);
width = 531;
}
);
leftKerningGroup = A;
rightKerningGroup = A;
unicode = 0100;
},
{
glyphname = Aogonek;
layers = (
{
anchors = (
{
name = top;
position = "{280, 700}";
}
);
hints = (
{
horizontal = 1;
origin = "{1, 0}";
target = "{1, 1}";
}
);
layerId = "262880E7-CFE1-4BDA-902E-E24798F3240A";
paths = (
{
closed = 1;
nodes = (
"60 0 LINE",
"280 671 LINE",
"502 0 LINE",
"524 0 LINE",
"291 700 LINE",
"269 700 LINE",
"38 0 LINE"
);
},
{
closed = 1;
nodes = (
"457 155 LINE",
"457 176 LINE",
"106 176 LINE",
"106 155 LINE"
);
},
{
closed = 1;
nodes = (
"550 -158 LINE",
"510 -168 OFFCURVE",
"468 -162 OFFCURVE",
"460 -118 CURVE SMOOTH",
"452 -73 OFFCURVE",
"487 -30 OFFCURVE",
"524 0 CURVE",
"502 0 LINE",
"444 -42 OFFCURVE",
"430 -85 OFFCURVE",
"438 -124 CURVE SMOOTH",
"450 -182 OFFCURVE",
"509 -189 OFFCURVE",
"556 -178 CURVE"
);
}
);
width = 562;
},
{
anchors = (
{
name = top;
position = "{355, 700}";
}
);
layerId = "FFFA8D72-12AC-4CE0-B2CA-57A29829F4DA";
paths = (
{
closed = 1;
nodes = (
"220 0 LINE",
"357 497 LINE",
"494 0 LINE",
"696 0 LINE",
"476 700 LINE",
"238 700 LINE",
"18 0 LINE"
);
},
{
closed = 1;
nodes = (
"523 95 LINE",
"523 239 LINE",
"188 239 LINE",
"188 95 LINE"
);
},
{
closed = 1;
nodes = (
"684 -83 LINE",
"661 -100 OFFCURVE",
"635 -97 OFFCURVE",
"629 -79 CURVE SMOOTH",
"622 -59 OFFCURVE",
"646 -31 OFFCURVE",
"696 0 CURVE",
"570 0 LINE",
"518 -41 OFFCURVE",
"498 -87 OFFCURVE",
"511 -131 CURVE SMOOTH",
"538 -225 OFFCURVE",
"661 -199 OFFCURVE",
"696 -178 CURVE"
);
}
);
width = 714;
},
{
anchors = (
{
name = top;
position = "{179, 700}";
}
);
layerId = "DCBE1F7B-116A-43E0-B7B4-8657BA77D8B5";
paths = (
{
closed = 1;
nodes = (
"32 0 LINE",
"179 662 LINE",
"327 0 LINE",
"349 0 LINE",
"190 700 LINE",
"167 700 LINE",
"10 0 LINE"
);
},
{
closed = 1;
nodes = (
"304 155 LINE",
"304 176 LINE",
"58 176 LINE",
"58 155 LINE"
);
},
{
closed = 1;
nodes = (
"400 -158 LINE",
"368 -168 OFFCURVE",
"334 -162 OFFCURVE",
"328 -118 CURVE SMOOTH",
"322 -73 OFFCURVE",
"350 -30 OFFCURVE",
"381 0 CURVE",
"359 0 LINE",
"311 -40 OFFCURVE",
"301 -85 OFFCURVE",
"307 -124 CURVE SMOOTH",
"316 -182 OFFCURVE",
"367 -189 OFFCURVE",
"405 -178 CURVE"
);
}
);
width = 359;
},
{
anchors = (
{
name = top;
position = "{266, 700}";
}
);
layerId = "4E2227F3-52E4-4048-A8EE-327B486EF0A4";
paths = (
{
closed = 1;
nodes = (
"200 0 LINE",
"270 438 LINE",
"327 0 LINE",
"519 0 LINE",
"371 700 LINE",
"161 700 LINE",
"12 0 LINE"
);
},
{
closed = 1;
nodes = (
"399 95 LINE",
"399 239 LINE",
"129 239 LINE",
"129 95 LINE"
);
},
{
closed = 1;
nodes = (
"493 -92 LINE",
"479 -100 OFFCURVE",
"463 -97 OFFCURVE",
"458 -79 CURVE SMOOTH",
"453 -59 OFFCURVE",
"472 -31 OFFCURVE",
"512 0 CURVE",
"390 0 LINE",
"347 -41 OFFCURVE",
"332 -87 OFFCURVE",
"343 -131 CURVE SMOOTH",
"366 -222 OFFCURVE",
"481 -192 OFFCURVE",
"504 -182 CURVE"
);
}
);
width = 531;
}
);
leftKerningGroup = A;
leftMetricsKey = "=A";
rightKerningGroup = A;
unicode = 0104;
},
{
glyphname = Aring;
layers = (
{
anchors = (
{
name = top;
position = "{280, 700}";
}
);
hints = (
{
horizontal = 1;
origin = "{1, 0}";
target = "{1, 1}";
},
{
horizontal = 1;
origin = "{2, 11}";
target = "{3, 11}";
},
{
horizontal = 1;
origin = "{3, 5}";
target = "{2, 5}";
},
{
origin = "{2, 8}";
target = "{3, 2}";
},
{
origin = "{3, 8}";
target = "{2, 2}";
}
);
layerId = "262880E7-CFE1-4BDA-902E-E24798F3240A";
paths = (
{
closed = 1;
nodes = (
"60 0 LINE",
"280 671 LINE",
"502 0 LINE",
"524 0 LINE",
"291 700 LINE",
"269 700 LINE",
"38 0 LINE"
);
},
{
closed = 1;
nodes = (
"457 155 LINE",
"457 176 LINE",
"106 176 LINE",
"106 155 LINE"
);
},
{
closed = 1;
nodes = (
"335 790 OFFCURVE",
"379 833 OFFCURVE",
"379 887 CURVE SMOOTH",
"379 941 OFFCURVE",
"335 984 OFFCURVE",
"280 984 CURVE SMOOTH",
"225 984 OFFCURVE",
"181 941 OFFCURVE",
"181 887 CURVE SMOOTH",
"181 833 OFFCURVE",
"225 790 OFFCURVE",
"280 790 CURVE SMOOTH"
);
},
{
closed = 1;
nodes = (
"238 811 OFFCURVE",
"203 844 OFFCURVE",
"203 887 CURVE SMOOTH",
"203 930 OFFCURVE",
"238 963 OFFCURVE",
"280 963 CURVE SMOOTH",
"322 963 OFFCURVE",
"357 930 OFFCURVE",
"357 887 CURVE SMOOTH",
"357 843 OFFCURVE",
"322 811 OFFCURVE",
"280 811 CURVE SMOOTH"
);
}
);
width = 562;
},
{
anchors = (
{
name = top;
position = "{355, 700}";
}
);
layerId = "FFFA8D72-12AC-4CE0-B2CA-57A29829F4DA";
paths = (
{
closed = 1;
nodes = (
"220 0 LINE",
"357 497 LINE",
"494 0 LINE",
"696 0 LINE",
"476 700 LINE",
"238 700 LINE",
"18 0 LINE"
);
},
{
closed = 1;
nodes = (
"523 95 LINE",
"523 239 LINE",
"188 239 LINE",
"188 95 LINE"
);
},
{
closed = 1;
nodes = (
"432 732 OFFCURVE",
"490 790 OFFCURVE",
"490 867 CURVE SMOOTH",
"490 943 OFFCURVE",
"432 1001 OFFCURVE",
"355 1001 CURVE SMOOTH",
"278 1001 OFFCURVE",
"220 943 OFFCURVE",
"220 867 CURVE SMOOTH",
"220 790 OFFCURVE",
"278 732 OFFCURVE",
"355 732 CURVE SMOOTH"
);
},
{
closed = 1;
nodes = (
"333 827 OFFCURVE",
"315 845 OFFCURVE",
"315 867 CURVE SMOOTH",
"315 890 OFFCURVE",
"333 908 OFFCURVE",
"355 908 CURVE SMOOTH",
"377 908 OFFCURVE",
"395 890 OFFCURVE",
"395 867 CURVE SMOOTH",
"395 845 OFFCURVE",
"377 827 OFFCURVE",
"355 827 CURVE SMOOTH"
);
}
);
width = 714;
},
{
anchors = (
{
name = top;
position = "{179, 700}";
}
);
layerId = "DCBE1F7B-116A-43E0-B7B4-8657BA77D8B5";
paths = (
{
closed = 1;
nodes = (
"32 0 LINE",
"179 662 LINE",
"327 0 LINE",
"349 0 LINE",
"190 700 LINE",
"167 700 LINE",
"10 0 LINE"
);
},
{
closed = 1;
nodes = (
"304 155 LINE",
"304 176 LINE",
"58 176 LINE",
"58 155 LINE"
);
},
{
closed = 1;
nodes = (
"232 790 OFFCURVE",
"273 833 OFFCURVE",
"273 887 CURVE SMOOTH",
"273 941 OFFCURVE",
"232 984 OFFCURVE",
"179 984 CURVE SMOOTH",
"127 984 OFFCURVE",
"85 941 OFFCURVE",
"85 887 CURVE SMOOTH",
"85 833 OFFCURVE",
"127 790 OFFCURVE",
"179 790 CURVE SMOOTH"
);
},
{
closed = 1;
nodes = (
"139 811 OFFCURVE",
"106 844 OFFCURVE",
"106 887 CURVE SMOOTH",
"106 930 OFFCURVE",
"139 963 OFFCURVE",
"179 963 CURVE SMOOTH",
"219 963 OFFCURVE",
"252 930 OFFCURVE",
"252 887 CURVE SMOOTH",
"252 844 OFFCURVE",
"219 811 OFFCURVE",
"179 811 CURVE SMOOTH"
);
}
);
width = 359;
},
{
anchors = (
{
name = top;
position = "{266, 700}";
}
);
layerId = "4E2227F3-52E4-4048-A8EE-327B486EF0A4";
paths = (
{
closed = 1;
nodes = (
"200 0 LINE",
"270 438 LINE",
"327 0 LINE",
"519 0 LINE",
"371 700 LINE",
"161 700 LINE",
"12 0 LINE"
);
},
{
closed = 1;
nodes = (
"399 95 LINE",
"399 239 LINE",
"129 239 LINE",
"129 95 LINE"
);
},
{
closed = 1;
nodes = (
"337 732 OFFCURVE",
"395 790 OFFCURVE",
"395 867 CURVE SMOOTH",
"395 943 OFFCURVE",
"337 1001 OFFCURVE",
"260 1001 CURVE SMOOTH",
"183 1001 OFFCURVE",
"125 943 OFFCURVE",
"125 867 CURVE SMOOTH",
"125 790 OFFCURVE",
"183 732 OFFCURVE",
"260 732 CURVE SMOOTH"
);
},
{
closed = 1;
nodes = (
"238 827 OFFCURVE",
"220 845 OFFCURVE",
"220 867 CURVE SMOOTH",
"220 890 OFFCURVE",
"238 908 OFFCURVE",
"260 908 CURVE SMOOTH",
"282 908 OFFCURVE",
"300 890 OFFCURVE",
"300 867 CURVE SMOOTH",
"300 845 OFFCURVE",
"282 827 OFFCURVE",
"260 827 CURVE SMOOTH"
);
}
);
width = 531;
}
);
leftKerningGroup = A;
rightKerningGroup = A;
unicode = 00C5;
},
{
glyphname = Atilde;
layers = (
{
anchors = (
{
name = top;
position = "{280, 700}";
}
);
hints = (
{
horizontal = 1;
origin = "{1, 0}";
target = "{1, 1}";
}
);
layerId = "262880E7-CFE1-4BDA-902E-E24798F3240A";
paths = (
{
closed = 1;
nodes = (
"60 0 LINE",
"280 671 LINE",
"502 0 LINE",
"524 0 LINE",
"291 700 LINE",
"269 700 LINE",
"38 0 LINE"
);
},
{
closed = 1;
nodes = (
"457 155 LINE",
"457 176 LINE",
"106 176 LINE",
"106 155 LINE"
);
},
{
closed = 1;
nodes = (
"365 824 OFFCURVE",
"401 837 OFFCURVE",
"421 878 CURVE",
"404 887 LINE",
"384 853 OFFCURVE",
"364 846 OFFCURVE",
"343 846 CURVE SMOOTH",
"326 846 OFFCURVE",
"310 858 OFFCURVE",
"293 869 CURVE SMOOTH",
"276 880 OFFCURVE",
"259 892 OFFCURVE",
"235 892 CURVE SMOOTH",
"207 892 OFFCURVE",
"180 880 OFFCURVE",
"157 844 CURVE",
"174 833 LINE",
"196 865 OFFCURVE",
"212 870 OFFCURVE",
"235 870 CURVE SMOOTH",
"255 870 OFFCURVE",
"268 860 OFFCURVE",
"284 848 CURVE SMOOTH",
"299 837 OFFCURVE",
"318 824 OFFCURVE",
"342 824 CURVE SMOOTH"
);
}
);
width = 562;
},
{
anchors = (
{
name = top;
position = "{355, 700}";
}
);
layerId = "FFFA8D72-12AC-4CE0-B2CA-57A29829F4DA";
paths = (
{
closed = 1;
nodes = (
"220 0 LINE",
"357 497 LINE",
"494 0 LINE",
"696 0 LINE",
"476 700 LINE",
"238 700 LINE",
"18 0 LINE"
);
},
{
closed = 1;
nodes = (
"523 95 LINE",
"523 239 LINE",
"188 239 LINE",
"188 95 LINE"
);
},
{
closed = 1;
nodes = (
"485 728 OFFCURVE",
"529 767 OFFCURVE",
"540 801 CURVE",
"471 895 LINE",
"458 871 OFFCURVE",
"438 862 OFFCURVE",
"418 862 CURVE SMOOTH",
"400 862 OFFCURVE",
"384 869 OFFCURVE",
"367 877 CURVE SMOOTH",
"342 889 OFFCURVE",
"317 900 OFFCURVE",
"284 900 CURVE SMOOTH",
"219 900 OFFCURVE",
"171 859 OFFCURVE",
"152 815 CURVE",
"237 729 LINE",
"247 742 OFFCURVE",
"265 758 OFFCURVE",
"296 758 CURVE SMOOTH",
"315 758 OFFCURVE",
"331 752 OFFCURVE",
"349 744 CURVE SMOOTH",
"368 736 OFFCURVE",
"383 728 OFFCURVE",
"415 728 CURVE SMOOTH"
);
}
);
width = 714;
},
{
anchors = (
{
name = top;
position = "{179, 700}";
}
);
layerId = "DCBE1F7B-116A-43E0-B7B4-8657BA77D8B5";
paths = (
{
closed = 1;
nodes = (
"32 0 LINE",
"179 662 LINE",
"327 0 LINE",
"349 0 LINE",
"190 700 LINE",
"167 700 LINE",
"10 0 LINE"
);
},
{
closed = 1;
nodes = (
"304 155 LINE",
"304 176 LINE",
"58 176 LINE",
"58 155 LINE"
);
},
{
closed = 1;
nodes = (
"258 824 OFFCURVE",
"292 837 OFFCURVE",
"310 878 CURVE",
"292 887 LINE",
"274 853 OFFCURVE",
"259 846 OFFCURVE",
"240 846 CURVE SMOOTH",
"222 846 OFFCURVE",
"208 858 OFFCURVE",
"192 869 CURVE SMOOTH",
"176 880 OFFCURVE",
"160 892 OFFCURVE",
"138 892 CURVE SMOOTH",
"112 892 OFFCURVE",
"87 880 OFFCURVE",
"66 844 CURVE",
"82 833 LINE",
"102 865 OFFCURVE",
"117 870 OFFCURVE",
"138 870 CURVE SMOOTH",
"157 870 OFFCURVE",
"168 860 OFFCURVE",
"184 848 CURVE SMOOTH",
"198 837 OFFCURVE",
"215 824 OFFCURVE",
"237 824 CURVE SMOOTH"
);
}
);
width = 359;
},
{
anchors = (
{
name = top;
position = "{266, 700}";
}
);
layerId = "4E2227F3-52E4-4048-A8EE-327B486EF0A4";
paths = (
{
closed = 1;
nodes = (
"200 0 LINE",
"270 438 LINE",
"327 0 LINE",
"519 0 LINE",
"371 700 LINE",
"161 700 LINE",
"12 0 LINE"
);
},
{
closed = 1;
nodes = (
"399 95 LINE",
"399 239 LINE",
"129 239 LINE",
"129 95 LINE"
);
},
{
closed = 1;
nodes = (
"373 751 OFFCURVE",
"421 769 OFFCURVE",
"446 834 CURVE",
"369 888 LINE",
"362 866 OFFCURVE",
"345 859 OFFCURVE",
"331 859 CURVE SMOOTH",
"314 859 OFFCURVE",
"303 869 OFFCURVE",
"292 876 CURVE SMOOTH",
"272 889 OFFCURVE",
"250 898 OFFCURVE",
"225 898 CURVE SMOOTH",
"182 898 OFFCURVE",
"141 870 OFFCURVE",
"126 807 CURVE",
"204 751 LINE",
"213 773 OFFCURVE",
"226 783 OFFCURVE",
"241 783 CURVE SMOOTH",
"255 783 OFFCURVE",
"262 775 OFFCURVE",
"281 766 CURVE SMOOTH",
"304 755 OFFCURVE",
"319 751 OFFCURVE",
"336 751 CURVE SMOOTH"
);
}
);
width = 531;
}
);
leftKerningGroup = A;
rightKerningGroup = A;
unicode = 00C3;
},
{
glyphname = AE;
layers = (
{
hints = (
{
origin = "{0, 10}";
target = "{0, 0}";
},
{
origin = "{0, 2}";
target = "{0, 5}";
},
{
origin = "{0, 9}";
target = "{0, 6}";
},
{
horizontal = 1;
place = "{155, 21}";
},
{
horizontal = 1;
place = "{340, 21}";
},
{
horizontal = 1;
origin = "{0, 3}";
target = "{0, 4}";
},
{
origin = "{0, 2}";
target = "{0, 5}";
},
{
horizontal = 1;
origin = "{0, 8}";
target = "{0, 7}";
}
);
layerId = "262880E7-CFE1-4BDA-902E-E24798F3240A";
paths = (
{
closed = 1;
nodes = (
"63 0 LINE",
"431 684 LINE",
"431 0 LINE",
"822 0 LINE",
"822 21 LINE",
"453 21 LINE",
"453 679 LINE",
"822 679 LINE",
"822 700 LINE",
"417 700 LINE",
"38 0 LINE"
);
},
{
closed = 1;
nodes = (
"444 155 LINE",
"444 176 LINE",
"143 176 LINE",
"138 155 LINE"
);
},
{
closed = 1;
nodes = (
"713 340 LINE",
"713 361 LINE",
"442 361 LINE",
"442 340 LINE"
);
}
);
width = 894;
},
{
layerId = "FFFA8D72-12AC-4CE0-B2CA-57A29829F4DA";
paths = (
{
closed = 1;
nodes = (
"225 0 LINE",
"452 483 LINE",
"452 0 LINE",
"962 0 LINE",
"962 161 LINE",
"640 161 LINE",
"640 539 LINE",
"962 539 LINE",
"962 700 LINE",
"362 700 LINE",
"18 0 LINE"
);
},
{
closed = 1;
nodes = (
"487 95 LINE",
"505 239 LINE",
"170 239 LINE",
"132 95 LINE"
);
},
{
closed = 1;
nodes = (
"848 275 LINE",
"848 435 LINE",
"528 435 LINE",
"528 275 LINE"
);
}
);
width = 986;
},
{
layerId = "DCBE1F7B-116A-43E0-B7B4-8657BA77D8B5";
paths = (
{
closed = 1;
nodes = (
"32 0 LINE",
"328 660 LINE",
"327 0 LINE",
"610 0 LINE",
"610 21 LINE",
"350 21 LINE",
"350 679 LINE",
"610 679 LINE",
"610 700 LINE",
"326 700 LINE",
"10 0 LINE"
);
},
{
closed = 1;
nodes = (
"339 155 LINE",
"344 176 LINE",
"98 176 LINE",
"93 155 LINE"
);
},
{
closed = 1;
nodes = (
"527 340 LINE",
"527 361 LINE",
"339 361 LINE",
"339 340 LINE"
);
}
);
width = 660;
},
{
layerId = "4E2227F3-52E4-4048-A8EE-327B486EF0A4";
paths = (
{
closed = 1;
nodes = (
"210 0 LINE",
"375 468 LINE",
"375 0 LINE",
"775 0 LINE",
"775 161 LINE",
"563 161 LINE",
"563 539 LINE",
"775 539 LINE",
"775 700 LINE",
"293 700 LINE",
"12 0 LINE"
);
},
{
closed = 1;
nodes = (
"462 95 LINE",
"462 239 LINE",
"192 239 LINE",
"192 95 LINE"
);
},
{
closed = 1;
nodes = (
"683 270 LINE",
"683 431 LINE",
"451 431 LINE",
"451 270 LINE"
);
}
);
width = 793;
}
);
leftKerningGroup = A;
leftMetricsKey = "=A";
rightMetricsKey = "=E";
unicode = 00C6;
},
{
glyphname = B;
layers = (
{
hints = (
{
horizontal = 1;
origin = "{1, 0}";
target = "{0, 7}";
},
{
horizontal = 1;
place = "{700, -21}";
},
{
origin = "{0, 7}";
target = "{1, 0}";
},
{
horizontal = 1;
place = "{0, 22}";
},
{
origin = "{1, 4}";
target = "{0, 3}";
}
);
layerId = "262880E7-CFE1-4BDA-902E-E24798F3240A";
paths = (
{
closed = 1;
nodes = (
"355 0 LINE SMOOTH",
"469 0 OFFCURVE",
"544 74 OFFCURVE",
"544 186 CURVE SMOOTH",
"544 298 OFFCURVE",
"467 373 OFFCURVE",
"350 373 CURVE SMOOTH",
"117 373 LINE",
"117 0 LINE"
);
},
{
closed = 1;
nodes = (
"139 352 LINE",
"349 352 LINE SMOOTH",
"453 352 OFFCURVE",
"522 286 OFFCURVE",
"522 186 CURVE SMOOTH",
"522 88 OFFCURVE",
"455 22 OFFCURVE",
"355 22 CURVE SMOOTH",
"139 22 LINE"
);
},
{
closed = 1;
nodes = (
"350 352 LINE SMOOTH",
"462 352 OFFCURVE",
"537 420 OFFCURVE",
"537 523 CURVE",
"537 629 OFFCURVE",
"462 700 OFFCURVE",
"349 700 CURVE SMOOTH",
"117 700 LINE",
"117 352 LINE"
);
},
{
closed = 1;
nodes = (
"139 679 LINE",
"349 679 LINE SMOOTH",
"449 679 OFFCURVE",
"515 617 OFFCURVE",
"515 523 CURVE SMOOTH",
"515 433 OFFCURVE",
"449 373 OFFCURVE",
"349 373 CURVE SMOOTH",
"139 373 LINE"
);
}
);
width = 632;
},
{
layerId = "4E2227F3-52E4-4048-A8EE-327B486EF0A4";
paths = (
{
closed = 1;
nodes = (
"252 0 LINE SMOOTH",
"371 0 OFFCURVE",
"470 65 OFFCURVE",
"468 201 CURVE SMOOTH",
"465 368 OFFCURVE",
"320 418 OFFCURVE",
"189 418 CURVE",
"26 418 LINE",
"26 0 LINE"
);
},
{
closed = 1;
nodes = (
"214 293 LINE",
"238 293 LINE SMOOTH",
"263 293 OFFCURVE",
"280 266 OFFCURVE",
"280 225 CURVE SMOOTH",
"280 182 OFFCURVE",
"262 161 OFFCURVE",
"237 161 CURVE SMOOTH",
"214 161 LINE"
);
},
{
closed = 1;
nodes = (
"191 319 LINE SMOOTH",
"366 319 OFFCURVE",
"454 369 OFFCURVE",
"454 503 CURVE SMOOTH",
"454 640 OFFCURVE",
"361 700 OFFCURVE",
"222 700 CURVE",
"26 700 LINE",
"26 319 LINE"
);
},
{
closed = 1;
nodes = (
"214 539 LINE",
"225 539 LINE",
"255 539 OFFCURVE",
"270 520 OFFCURVE",
"270 483 CURVE SMOOTH",
"270 447 OFFCURVE",
"255 427 OFFCURVE",
"225 427 CURVE",
"214 427 LINE"
);
}
);
width = 484;
},
{
layerId = "FFFA8D72-12AC-4CE0-B2CA-57A29829F4DA";
paths = (
{
closed = 1;
nodes = (
"323 0 LINE SMOOTH",
"465 0 OFFCURVE",
"582 55 OFFCURVE",
"582 200 CURVE SMOOTH",
"582 342 OFFCURVE",
"478 403 OFFCURVE",
"236 403 CURVE",
"39 401 LINE",
"39 0 LINE"
);
},
{
closed = 1;
nodes = (
"227 276 LINE",
"324 276 LINE SMOOTH",
"370 276 OFFCURVE",
"394 257 OFFCURVE",
"394 220 CURVE SMOOTH",
"394 181 OFFCURVE",
"370 161 OFFCURVE",
"323 161 CURVE SMOOTH",
"227 161 LINE"
);
},
{
closed = 1;
nodes = (
"238 323 LINE SMOOTH",
"453 321 OFFCURVE",
"571 360 OFFCURVE",
"571 502 CURVE SMOOTH",
"571 650 OFFCURVE",
"477 700 OFFCURVE",
"314 700 CURVE",
"39 700 LINE",
"39 325 LINE"
);
},
{
closed = 1;
nodes = (
"227 539 LINE",
"314 539 LINE",
"362 539 OFFCURVE",
"387 520 OFFCURVE",
"387 484 CURVE SMOOTH",
"387 448 OFFCURVE",
"362 429 OFFCURVE",
"314 429 CURVE",
"227 429 LINE"
);
}
);
width = 615;
},
{
layerId = "DCBE1F7B-116A-43E0-B7B4-8657BA77D8B5";
paths = (
{
closed = 1;
nodes = (
"228 0 LINE SMOOTH",
"331 0 OFFCURVE",
"392 69 OFFCURVE",
"392 186 CURVE SMOOTH",
"392 304 OFFCURVE",
"331 373 OFFCURVE",
"226 373 CURVE SMOOTH",
"91 373 LINE",
"91 0 LINE"
);
},
{
closed = 1;
nodes = (
"113 352 LINE",
"227 352 LINE SMOOTH",
"317 352 OFFCURVE",
"370 291 OFFCURVE",
"370 186 CURVE SMOOTH",
"370 83 OFFCURVE",
"317 22 OFFCURVE",
"227 22 CURVE SMOOTH",
"113 22 LINE"
);
},
{
closed = 1;
nodes = (
"226 352 LINE SMOOTH",
"330 352 OFFCURVE",
"391 415 OFFCURVE",
"391 523 CURVE SMOOTH",
"391 635 OFFCURVE",
"330 700 OFFCURVE",
"227 700 CURVE SMOOTH",
"91 700 LINE",
"91 352 LINE"
);
},
{
closed = 1;
nodes = (
"113 679 LINE",
"227 679 LINE SMOOTH",
"316 679 OFFCURVE",
"369 621 OFFCURVE",
"369 523 CURVE SMOOTH",
"369 429 OFFCURVE",
"316 373 OFFCURVE",
"227 373 CURVE SMOOTH",
"113 373 LINE"
);
}
);
width = 434;
},
{
associatedMasterId = "FFFA8D72-12AC-4CE0-B2CA-57A29829F4DA";
layerId = "D7C9BB07-D00A-46F1-A35F-FF4898574ABB";
name = "May 2 17, 02:09";
paths = (
{
closed = 1;
nodes = (
"227 539 LINE",
"287 539 LINE",
"332 539 OFFCURVE",
"360 516 OFFCURVE",
"360 484 CURVE SMOOTH",
"360 451 OFFCURVE",
"330 429 OFFCURVE",
"287 429 CURVE",
"227 429 LINE"
);
},
{
closed = 1;
nodes = (
"241 323 LINE SMOOTH",
"426 321 OFFCURVE",
"544 360 OFFCURVE",
"544 502 CURVE SMOOTH",
"544 650 OFFCURVE",
"450 700 OFFCURVE",
"287 700 CURVE",
"39 700 LINE",
"39 325 LINE"
);
},
{
closed = 1;
nodes = (
"227 276 LINE",
"297 276 LINE SMOOTH",
"336 276 OFFCURVE",
"367 253 OFFCURVE",
"367 220 CURVE SMOOTH",
"367 189 OFFCURVE",
"340 161 OFFCURVE",
"296 161 CURVE SMOOTH",
"227 161 LINE"
);
},
{
closed = 1;
nodes = (
"296 0 LINE SMOOTH",
"438 0 OFFCURVE",
"555 55 OFFCURVE",
"555 200 CURVE SMOOTH",
"555 376 OFFCURVE",
"377 403 OFFCURVE",
"239 403 CURVE",
"39 401 LINE",
"39 0 LINE"
);
}
);
width = 582;
}
);
leftKerningGroup = H;
rightKerningGroup = B;
unicode = 0042;
},
{
glyphname = C;
layers = (
{
anchors = (
{
name = bottom;
position = "{272, -9}";
},
{
name = top;
position = "{308, 700}";
}
);
hints = (
{
origin = "{0, 27}";
target = "{0, 12}";
},
{
origin = "{0, 5}";
target = "{0, 2}";
},
{
horizontal = 1;
origin = "{0, 31}";
target = "{0, 8}";
},
{
horizontal = 1;
origin = "{0, 24}";
target = "{0, 15}";
}
);
layerId = "262880E7-CFE1-4BDA-902E-E24798F3240A";
paths = (
{
closed = 1;
nodes = (
"438 -9 OFFCURVE",
"525 74 OFFCURVE",
"525 198 CURVE SMOOTH",
"525 207 LINE",
"503 208 LINE",
"503 196 LINE SMOOTH",
"503 86 OFFCURVE",
"425 12 OFFCURVE",
"308 12 CURVE SMOOTH",
"190 12 OFFCURVE",
"112 86 OFFCURVE",
"112 196 CURVE SMOOTH",
"112 504 LINE SMOOTH",
"112 614 OFFCURVE",
"190 687 OFFCURVE",
"308 687 CURVE SMOOTH",
"425 687 OFFCURVE",
"503 614 OFFCURVE",
"503 504 CURVE SMOOTH",
"503 491 LINE",
"525 492 LINE",
"525 503 LINE SMOOTH",
"525 626 OFFCURVE",
"438 708 OFFCURVE",
"308 708 CURVE SMOOTH",
"177 708 OFFCURVE",
"90 626 OFFCURVE",
"90 503 CURVE SMOOTH",
"90 198 LINE SMOOTH",
"90 74 OFFCURVE",
"177 -9 OFFCURVE",
"308 -9 CURVE SMOOTH"
);
}
);
width = 606;
},
{
anchors = (
{
name = bottom;
position = "{239, -8}";
},
{
name = top;
position = "{239, 700}";
}
);
layerId = "4E2227F3-52E4-4048-A8EE-327B486EF0A4";
paths = (
{
closed = 1;
nodes = (
"370 -8 OFFCURVE",
"458 75 OFFCURVE",
"458 205 CURVE SMOOTH",
"458 224 LINE",
"270 231 LINE",
"270 189 LINE SMOOTH",
"270 167 OFFCURVE",
"258 153 OFFCURVE",
"239 153 CURVE SMOOTH",
"220 153 OFFCURVE",
"208 167 OFFCURVE",
"208 189 CURVE SMOOTH",
"208 510 LINE SMOOTH",
"208 532 OFFCURVE",
"220 547 OFFCURVE",
"239 547 CURVE SMOOTH",
"258 547 OFFCURVE",
"270 532 OFFCURVE",
"270 510 CURVE SMOOTH",
"270 470 LINE",
"458 477 LINE",
"458 497 LINE SMOOTH",
"458 627 OFFCURVE",
"370 708 OFFCURVE",
"239 708 CURVE SMOOTH",
"107 708 OFFCURVE",
"20 627 OFFCURVE",
"20 497 CURVE SMOOTH",
"20 205 LINE SMOOTH",
"20 75 OFFCURVE",
"107 -8 OFFCURVE",
"239 -8 CURVE SMOOTH"
);
}
);
width = 476;
},
{
anchors = (
{
name = bottom;
position = "{286, -8}";
},
{
name = top;
position = "{306, 700}";
}
);
layerId = "FFFA8D72-12AC-4CE0-B2CA-57A29829F4DA";
paths = (
{
closed = 1;
nodes = (
"472 -8 OFFCURVE",
"582 89 OFFCURVE",
"582 235 CURVE SMOOTH",
"582 244 LINE",
"394 254 LINE",
"394 242 LINE SMOOTH",
"394 189 OFFCURVE",
"359 153 OFFCURVE",
"306 153 CURVE SMOOTH",
"253 153 OFFCURVE",
"218 189 OFFCURVE",
"218 242 CURVE SMOOTH",
"218 457 LINE SMOOTH",
"218 511 OFFCURVE",
"253 547 OFFCURVE",
"306 547 CURVE SMOOTH",
"359 547 OFFCURVE",
"394 511 OFFCURVE",
"394 457 CURVE SMOOTH",
"394 445 LINE",
"582 457 LINE",
"582 467 LINE SMOOTH",
"582 612 OFFCURVE",
"472 708 OFFCURVE",
"306 708 CURVE SMOOTH",
"140 708 OFFCURVE",
"30 606 OFFCURVE",
"30 452 CURVE SMOOTH",
"30 250 LINE SMOOTH",
"30 95 OFFCURVE",
"140 -8 OFFCURVE",
"306 -8 CURVE SMOOTH"
);
}
);
width = 609;
},
{
anchors = (
{
name = bottom;
position = "{219, -8}";
},
{
name = top;
position = "{219, 700}";
}
);
layerId = "DCBE1F7B-116A-43E0-B7B4-8657BA77D8B5";
paths = (
{
closed = 1;
nodes = (
"310 -8 OFFCURVE",
"370 54 OFFCURVE",
"370 148 CURVE SMOOTH",
"370 177 LINE",
"347 178 LINE",
"347 147 LINE SMOOTH",
"347 67 OFFCURVE",
"296 13 OFFCURVE",
"219 13 CURVE SMOOTH",
"143 13 OFFCURVE",
"92 67 OFFCURVE",
"92 147 CURVE SMOOTH",
"92 554 LINE SMOOTH",
"92 634 OFFCURVE",
"143 687 OFFCURVE",
"219 687 CURVE SMOOTH",
"296 687 OFFCURVE",
"347 634 OFFCURVE",
"347 554 CURVE SMOOTH",
"347 521 LINE",
"370 522 LINE",
"370 553 LINE SMOOTH",
"370 647 OFFCURVE",
"310 708 OFFCURVE",
"219 708 CURVE SMOOTH",
"130 708 OFFCURVE",
"70 647 OFFCURVE",
"70 553 CURVE SMOOTH",
"70 148 LINE SMOOTH",
"70 54 OFFCURVE",
"130 -8 OFFCURVE",
"219 -8 CURVE SMOOTH"
);
}
);
width = 433;
}
);
leftKerningGroup = O;
rightKerningGroup = O;
unicode = 0043;
},
{
glyphname = Cacute;
layers = (
{
anchors = (
{
name = bottom;
position = "{272, -9}";
},
{
name = top;
position = "{308, 700}";
}
);
hints = (
{
origin = "{0, 27}";
target = "{0, 12}";
},
{
origin = "{0, 5}";
target = "{0, 2}";
},
{
horizontal = 1;
origin = "{0, 31}";
target = "{0, 8}";
},
{
horizontal = 1;
origin = "{0, 24}";
target = "{0, 15}";
}
);
layerId = "262880E7-CFE1-4BDA-902E-E24798F3240A";
paths = (
{
closed = 1;
nodes = (
"438 -9 OFFCURVE",
"525 74 OFFCURVE",
"525 198 CURVE SMOOTH",
"525 207 LINE",
"503 208 LINE",
"503 196 LINE SMOOTH",
"503 86 OFFCURVE",
"425 12 OFFCURVE",
"308 12 CURVE SMOOTH",
"190 12 OFFCURVE",
"112 86 OFFCURVE",
"112 196 CURVE SMOOTH",
"112 504 LINE SMOOTH",
"112 614 OFFCURVE",
"190 687 OFFCURVE",
"308 687 CURVE SMOOTH",
"425 687 OFFCURVE",
"503 614 OFFCURVE",
"503 504 CURVE SMOOTH",
"503 491 LINE",
"525 492 LINE",
"525 503 LINE SMOOTH",
"525 626 OFFCURVE",
"438 708 OFFCURVE",
"308 708 CURVE SMOOTH",
"177 708 OFFCURVE",
"90 626 OFFCURVE",
"90 503 CURVE SMOOTH",
"90 198 LINE SMOOTH",
"90 74 OFFCURVE",
"177 -9 OFFCURVE",
"308 -9 CURVE SMOOTH"
);
},
{
closed = 1;
nodes = (
"301 769 LINE",
"376 900 LINE",
"352 900 LINE",
"279 769 LINE"
);
}
);
width = 606;
},
{
anchors = (
{
name = bottom;
position = "{286, -8}";
},
{
name = top;
position = "{306, 700}";
}
);
layerId = "FFFA8D72-12AC-4CE0-B2CA-57A29829F4DA";
paths = (
{
closed = 1;
nodes = (
"472 -8 OFFCURVE",
"582 89 OFFCURVE",
"582 235 CURVE SMOOTH",
"582 244 LINE",
"394 254 LINE",
"394 242 LINE SMOOTH",
"394 189 OFFCURVE",
"359 153 OFFCURVE",
"306 153 CURVE SMOOTH",
"253 153 OFFCURVE",
"218 189 OFFCURVE",
"218 242 CURVE SMOOTH",
"218 457 LINE SMOOTH",
"218 511 OFFCURVE",
"253 547 OFFCURVE",
"306 547 CURVE SMOOTH",
"359 547 OFFCURVE",
"394 511 OFFCURVE",
"394 457 CURVE SMOOTH",
"394 445 LINE",
"582 457 LINE",
"582 467 LINE SMOOTH",
"582 612 OFFCURVE",
"472 708 OFFCURVE",
"306 708 CURVE SMOOTH",
"140 708 OFFCURVE",
"30 606 OFFCURVE",
"30 452 CURVE SMOOTH",
"30 250 LINE SMOOTH",
"30 95 OFFCURVE",
"140 -8 OFFCURVE",
"306 -8 CURVE SMOOTH"
);
},
{
closed = 1;
nodes = (
"386 759 LINE",
"477 880 LINE",
"271 880 LINE",
"207 759 LINE"
);
}
);
width = 609;
},
{
anchors = (
{
name = bottom;
position = "{219, -8}";
},
{
name = top;
position = "{219, 700}";
}
);
layerId = "DCBE1F7B-116A-43E0-B7B4-8657BA77D8B5";
paths = (
{
closed = 1;
nodes = (
"310 -8 OFFCURVE",
"370 54 OFFCURVE",
"370 148 CURVE SMOOTH",
"370 177 LINE",
"347 178 LINE",
"347 147 LINE SMOOTH",
"347 67 OFFCURVE",
"296 13 OFFCURVE",
"219 13 CURVE SMOOTH",
"143 13 OFFCURVE",
"92 67 OFFCURVE",
"92 147 CURVE SMOOTH",
"92 554 LINE SMOOTH",
"92 634 OFFCURVE",
"143 687 OFFCURVE",
"219 687 CURVE SMOOTH",
"296 687 OFFCURVE",
"347 634 OFFCURVE",
"347 554 CURVE SMOOTH",
"347 521 LINE",
"370 522 LINE",
"370 553 LINE SMOOTH",
"370 647 OFFCURVE",
"310 708 OFFCURVE",
"219 708 CURVE SMOOTH",
"130 708 OFFCURVE",
"70 647 OFFCURVE",
"70 553 CURVE SMOOTH",
"70 148 LINE SMOOTH",
"70 54 OFFCURVE",
"130 -8 OFFCURVE",
"219 -8 CURVE SMOOTH"
);
},
{
closed = 1;
nodes = (
"208 769 LINE",
"283 900 LINE",
"259 900 LINE",
"186 769 LINE"
);
}
);
width = 433;
},
{
anchors = (
{
name = bottom;
position = "{239, -8}";
},
{
name = top;
position = "{239, 700}";
}
);
layerId = "4E2227F3-52E4-4048-A8EE-327B486EF0A4";
paths = (
{
closed = 1;
nodes = (
"370 -8 OFFCURVE",
"458 75 OFFCURVE",
"458 205 CURVE SMOOTH",
"458 224 LINE",
"270 231 LINE",
"270 189 LINE SMOOTH",
"270 167 OFFCURVE",
"258 153 OFFCURVE",
"239 153 CURVE SMOOTH",
"220 153 OFFCURVE",
"208 167 OFFCURVE",
"208 189 CURVE SMOOTH",
"208 510 LINE SMOOTH",
"208 532 OFFCURVE",
"220 547 OFFCURVE",
"239 547 CURVE SMOOTH",
"258 547 OFFCURVE",
"270 532 OFFCURVE",
"270 510 CURVE SMOOTH",
"270 470 LINE",
"458 477 LINE",
"458 497 LINE SMOOTH",
"458 627 OFFCURVE",
"370 708 OFFCURVE",
"239 708 CURVE SMOOTH",
"107 708 OFFCURVE",
"20 627 OFFCURVE",
"20 497 CURVE SMOOTH",
"20 205 LINE SMOOTH",
"20 75 OFFCURVE",
"107 -8 OFFCURVE",
"239 -8 CURVE SMOOTH"
);
},
{
closed = 1;
nodes = (
"294 759 LINE",
"393 880 LINE",
"215 880 LINE",
"143 759 LINE"
);
}
);
width = 476;
}
);
leftKerningGroup = O;
rightKerningGroup = O;
unicode = 0106;
},
{
glyphname = Ccaron;
layers = (
{
anchors = (
{
name = bottom;
position = "{272, -9}";
},
{
name = top;
position = "{308, 700}";
}
);
hints = (
{
origin = "{0, 27}";
target = "{0, 12}";
},
{
origin = "{0, 5}";
target = "{0, 2}";
},
{
horizontal = 1;
origin = "{0, 31}";
target = "{0, 8}";
},
{
horizontal = 1;
origin = "{0, 24}";
target = "{0, 15}";
}
);
layerId = "262880E7-CFE1-4BDA-902E-E24798F3240A";
paths = (
{
closed = 1;
nodes = (
"438 -9 OFFCURVE",
"525 74 OFFCURVE",
"525 198 CURVE SMOOTH",
"525 207 LINE",
"503 208 LINE",
"503 196 LINE SMOOTH",
"503 86 OFFCURVE",
"425 12 OFFCURVE",
"308 12 CURVE SMOOTH",
"190 12 OFFCURVE",
"112 86 OFFCURVE",
"112 196 CURVE SMOOTH",
"112 504 LINE SMOOTH",
"112 614 OFFCURVE",
"190 687 OFFCURVE",
"308 687 CURVE SMOOTH",
"425 687 OFFCURVE",
"503 614 OFFCURVE",
"503 504 CURVE SMOOTH",
"503 491 LINE",
"525 492 LINE",
"525 503 LINE SMOOTH",
"525 626 OFFCURVE",
"438 708 OFFCURVE",
"308 708 CURVE SMOOTH",
"177 708 OFFCURVE",
"90 626 OFFCURVE",
"90 503 CURVE SMOOTH",
"90 198 LINE SMOOTH",
"90 74 OFFCURVE",
"177 -9 OFFCURVE",
"308 -9 CURVE SMOOTH"
);
},
{
closed = 1;
nodes = (
"317 775 LINE",
"415 900 LINE",
"389 900 LINE",
"308 795 LINE",
"225 900 LINE",
"199 900 LINE",
"297 775 LINE"
);
}
);
width = 606;
},
{
anchors = (
{
name = bottom;
position = "{286, -8}";
},
{
name = top;
position = "{306, 700}";
}
);
layerId = "FFFA8D72-12AC-4CE0-B2CA-57A29829F4DA";
paths = (
{
closed = 1;
nodes = (
"472 -8 OFFCURVE",
"582 89 OFFCURVE",
"582 235 CURVE SMOOTH",
"582 244 LINE",
"394 254 LINE",
"394 242 LINE SMOOTH",
"394 189 OFFCURVE",
"359 153 OFFCURVE",
"306 153 CURVE SMOOTH",
"253 153 OFFCURVE",
"218 189 OFFCURVE",
"218 242 CURVE SMOOTH",
"218 457 LINE SMOOTH",
"218 511 OFFCURVE",
"253 547 OFFCURVE",
"306 547 CURVE SMOOTH",
"359 547 OFFCURVE",
"394 511 OFFCURVE",
"394 457 CURVE SMOOTH",
"394 445 LINE",
"582 457 LINE",
"582 467 LINE SMOOTH",
"582 612 OFFCURVE",
"472 708 OFFCURVE",
"306 708 CURVE SMOOTH",
"140 708 OFFCURVE",
"30 606 OFFCURVE",
"30 452 CURVE SMOOTH",
"30 250 LINE SMOOTH",
"30 95 OFFCURVE",
"140 -8 OFFCURVE",
"306 -8 CURVE SMOOTH"
);
},
{
closed = 1;
nodes = (
"421 750 LINE",
"503 879 LINE",
"341 879 LINE",
"306 817 LINE",
"271 879 LINE",
"108 879 LINE",
"187 750 LINE"
);
}
);
width = 609;
},
{
anchors = (
{
name = bottom;
position = "{219, -8}";
},
{
name = top;
position = "{219, 700}";
}
);
layerId = "DCBE1F7B-116A-43E0-B7B4-8657BA77D8B5";
paths = (
{
closed = 1;
nodes = (
"310 -8 OFFCURVE",
"370 54 OFFCURVE",
"370 148 CURVE SMOOTH",
"370 177 LINE",
"347 178 LINE",
"347 147 LINE SMOOTH",
"347 67 OFFCURVE",
"296 13 OFFCURVE",
"219 13 CURVE SMOOTH",
"143 13 OFFCURVE",
"92 67 OFFCURVE",
"92 147 CURVE SMOOTH",
"92 554 LINE SMOOTH",
"92 634 OFFCURVE",
"143 687 OFFCURVE",
"219 687 CURVE SMOOTH",
"296 687 OFFCURVE",
"347 634 OFFCURVE",
"347 554 CURVE SMOOTH",
"347 521 LINE",
"370 522 LINE",
"370 553 LINE SMOOTH",
"370 647 OFFCURVE",
"310 708 OFFCURVE",
"219 708 CURVE SMOOTH",
"130 708 OFFCURVE",
"70 647 OFFCURVE",
"70 553 CURVE SMOOTH",
"70 148 LINE SMOOTH",
"70 54 OFFCURVE",
"130 -8 OFFCURVE",
"219 -8 CURVE SMOOTH"
);
},
{
closed = 1;
nodes = (
"232 781 LINE",
"311 900 LINE",
"279 900 LINE",
"220 806 LINE",
"160 900 LINE",
"129 900 LINE",
"206 781 LINE"
);
}
);
width = 433;
},
{
anchors = (
{
name = bottom;
position = "{239, -8}";
},
{
name = top;
position = "{239, 700}";
}
);
layerId = "4E2227F3-52E4-4048-A8EE-327B486EF0A4";
paths = (
{
closed = 1;
nodes = (
"370 -8 OFFCURVE",
"458 75 OFFCURVE",
"458 205 CURVE SMOOTH",
"458 224 LINE",
"270 231 LINE",
"270 189 LINE SMOOTH",
"270 167 OFFCURVE",
"258 153 OFFCURVE",
"239 153 CURVE SMOOTH",
"220 153 OFFCURVE",
"208 167 OFFCURVE",
"208 189 CURVE SMOOTH",
"208 510 LINE SMOOTH",
"208 532 OFFCURVE",
"220 547 OFFCURVE",
"239 547 CURVE SMOOTH",
"258 547 OFFCURVE",
"270 532 OFFCURVE",
"270 510 CURVE SMOOTH",
"270 470 LINE",
"458 477 LINE",
"458 497 LINE SMOOTH",
"458 627 OFFCURVE",
"370 708 OFFCURVE",
"239 708 CURVE SMOOTH",
"107 708 OFFCURVE",
"20 627 OFFCURVE",
"20 497 CURVE SMOOTH",
"20 205 LINE SMOOTH",
"20 75 OFFCURVE",
"107 -8 OFFCURVE",
"239 -8 CURVE SMOOTH"
);
},
{
closed = 1;
nodes = (
"320 751 LINE",
"403 880 LINE",
"270 880 LINE",
"239 818 LINE",
"206 880 LINE",
"65 880 LINE",
"146 751 LINE"
);
}
);
width = 476;
}
);
leftKerningGroup = O;
rightKerningGroup = O;
unicode = 010C;
},
{
glyphname = Ccedilla;
layers = (
{
anchors = (
{
name = bottom;
position = "{272, -9}";
},
{
name = top;
position = "{308, 700}";
}
);
hints = (
{
origin = "{0, 27}";
target = "{0, 12}";
},
{
origin = "{0, 5}";
target = "{0, 2}";
},
{
horizontal = 1;
origin = "{0, 31}";
target = "{0, 8}";
},
{
horizontal = 1;
origin = "{0, 24}";
target = "{0, 15}";
}
);
layerId = "262880E7-CFE1-4BDA-902E-E24798F3240A";
paths = (
{
closed = 1;
nodes = (
"438 -9 OFFCURVE",
"525 74 OFFCURVE",
"525 198 CURVE SMOOTH",
"525 207 LINE",
"503 208 LINE",
"503 196 LINE SMOOTH",
"503 86 OFFCURVE",
"425 12 OFFCURVE",
"308 12 CURVE SMOOTH",
"190 12 OFFCURVE",
"112 86 OFFCURVE",
"112 196 CURVE SMOOTH",
"112 504 LINE SMOOTH",
"112 614 OFFCURVE",
"190 687 OFFCURVE",
"308 687 CURVE SMOOTH",
"425 687 OFFCURVE",
"503 614 OFFCURVE",
"503 504 CURVE SMOOTH",
"503 491 LINE",
"525 492 LINE",
"525 503 LINE SMOOTH",
"525 626 OFFCURVE",
"438 708 OFFCURVE",
"308 708 CURVE SMOOTH",
"177 708 OFFCURVE",
"90 626 OFFCURVE",
"90 503 CURVE SMOOTH",
"90 198 LINE SMOOTH",
"90 74 OFFCURVE",
"177 -9 OFFCURVE",
"308 -9 CURVE SMOOTH"
);
},
{
closed = 1;
nodes = (
"269 -195 OFFCURVE",
"328 -188 OFFCURVE",
"340 -130 CURVE SMOOTH",
"348 -91 OFFCURVE",
"334 -48 OFFCURVE",
"276 -6 CURVE",
"254 -6 LINE",
"291 -36 OFFCURVE",
"326 -79 OFFCURVE",
"318 -124 CURVE SMOOTH",
"310 -168 OFFCURVE",
"268 -174 OFFCURVE",
"228 -164 CURVE",
"222 -184 LINE"
);
}
);
width = 606;
},
{
anchors = (
{
name = bottom;
position = "{286, -8}";
},
{
name = top;
position = "{306, 700}";
}
);
layerId = "FFFA8D72-12AC-4CE0-B2CA-57A29829F4DA";
paths = (
{
closed = 1;
nodes = (
"472 -8 OFFCURVE",
"582 89 OFFCURVE",
"582 235 CURVE SMOOTH",
"582 244 LINE",
"394 254 LINE",
"394 242 LINE SMOOTH",
"394 189 OFFCURVE",
"359 153 OFFCURVE",
"306 153 CURVE SMOOTH",
"253 153 OFFCURVE",
"218 189 OFFCURVE",
"218 242 CURVE SMOOTH",
"218 457 LINE SMOOTH",
"218 511 OFFCURVE",
"253 547 OFFCURVE",
"306 547 CURVE SMOOTH",
"359 547 OFFCURVE",
"394 511 OFFCURVE",
"394 457 CURVE SMOOTH",
"394 445 LINE",
"582 457 LINE",
"582 467 LINE SMOOTH",
"582 612 OFFCURVE",
"472 708 OFFCURVE",
"306 708 CURVE SMOOTH",
"140 708 OFFCURVE",
"30 606 OFFCURVE",
"30 452 CURVE SMOOTH",
"30 250 LINE SMOOTH",
"30 95 OFFCURVE",
"140 -8 OFFCURVE",
"306 -8 CURVE SMOOTH"
);
},
{
closed = 1;
nodes = (
"244 -187 OFFCURVE",
"367 -213 OFFCURVE",
"394 -119 CURVE SMOOTH",
"407 -75 OFFCURVE",
"387 -29 OFFCURVE",
"335 12 CURVE",
"209 12 LINE",
"259 -19 OFFCURVE",
"283 -47 OFFCURVE",
"276 -67 CURVE SMOOTH",
"270 -85 OFFCURVE",
"244 -88 OFFCURVE",
"221 -71 CURVE",
"209 -166 LINE"
);
}
);
width = 609;
},
{
anchors = (
{
name = bottom;
position = "{219, -8}";
},
{
name = top;
position = "{219, 700}";
}
);
layerId = "DCBE1F7B-116A-43E0-B7B4-8657BA77D8B5";
paths = (
{
closed = 1;
nodes = (
"310 -8 OFFCURVE",
"370 54 OFFCURVE",
"370 148 CURVE SMOOTH",
"370 177 LINE",
"347 178 LINE",
"347 147 LINE SMOOTH",
"347 67 OFFCURVE",
"296 13 OFFCURVE",
"219 13 CURVE SMOOTH",
"143 13 OFFCURVE",
"92 67 OFFCURVE",
"92 147 CURVE SMOOTH",
"92 554 LINE SMOOTH",
"92 634 OFFCURVE",
"143 687 OFFCURVE",
"219 687 CURVE SMOOTH",
"296 687 OFFCURVE",
"347 634 OFFCURVE",
"347 554 CURVE SMOOTH",
"347 521 LINE",
"370 522 LINE",
"370 553 LINE SMOOTH",
"370 647 OFFCURVE",
"310 708 OFFCURVE",
"219 708 CURVE SMOOTH",
"130 708 OFFCURVE",
"70 647 OFFCURVE",
"70 553 CURVE SMOOTH",
"70 148 LINE SMOOTH",
"70 54 OFFCURVE",
"130 -8 OFFCURVE",
"219 -8 CURVE SMOOTH"
);
},
{
closed = 1;
nodes = (
"217 -192 OFFCURVE",
"268 -185 OFFCURVE",
"277 -127 CURVE SMOOTH",
"283 -88 OFFCURVE",
"273 -43 OFFCURVE",
"225 -3 CURVE",
"203 -3 LINE",
"234 -33 OFFCURVE",
"262 -76 OFFCURVE",
"256 -121 CURVE SMOOTH",
"250 -165 OFFCURVE",
"216 -171 OFFCURVE",
"184 -161 CURVE",
"179 -181 LINE"
);
}
);
width = 433;
},
{
anchors = (
{
name = bottom;
position = "{239, -8}";
},
{
name = top;
position = "{239, 700}";
}
);
layerId = "4E2227F3-52E4-4048-A8EE-327B486EF0A4";
paths = (
{
closed = 1;
nodes = (
"370 -8 OFFCURVE",
"458 75 OFFCURVE",
"458 205 CURVE SMOOTH",
"458 224 LINE",
"270 231 LINE",
"270 189 LINE SMOOTH",
"270 167 OFFCURVE",
"258 153 OFFCURVE",
"239 153 CURVE SMOOTH",
"220 153 OFFCURVE",
"208 167 OFFCURVE",
"208 189 CURVE SMOOTH",
"208 510 LINE SMOOTH",
"208 532 OFFCURVE",
"220 547 OFFCURVE",
"239 547 CURVE SMOOTH",
"258 547 OFFCURVE",
"270 532 OFFCURVE",
"270 510 CURVE SMOOTH",
"270 470 LINE",
"458 477 LINE",
"458 497 LINE SMOOTH",
"458 627 OFFCURVE",
"370 708 OFFCURVE",
"239 708 CURVE SMOOTH",
"107 708 OFFCURVE",
"20 627 OFFCURVE",
"20 497 CURVE SMOOTH",
"20 205 LINE SMOOTH",
"20 75 OFFCURVE",
"107 -8 OFFCURVE",
"239 -8 CURVE SMOOTH"
);
},
{
closed = 1;
nodes = (
"194 -183 OFFCURVE",
"309 -213 OFFCURVE",
"332 -122 CURVE SMOOTH",
"343 -78 OFFCURVE",
"328 -32 OFFCURVE",
"285 9 CURVE",
"163 9 LINE",
"203 -22 OFFCURVE",
"222 -50 OFFCURVE",
"217 -70 CURVE SMOOTH",
"212 -88 OFFCURVE",
"196 -91 OFFCURVE",
"182 -83 CURVE",
"171 -173 LINE"
);
}
);
width = 476;
}
);
leftKerningGroup = O;
rightKerningGroup = O;
unicode = 00C7;
},
{
glyphname = Cdotaccent;
layers = (
{
anchors = (
{
name = bottom;
position = "{272, -9}";
},
{
name = top;
position = "{308, 700}";
}
);
hints = (
{
origin = "{0, 27}";
target = "{0, 12}";
},
{
origin = "{0, 5}";
target = "{0, 2}";
},
{
horizontal = 1;
origin = "{0, 31}";
target = "{0, 8}";
},
{
horizontal = 1;
origin = "{0, 24}";
target = "{0, 15}";
}
);
layerId = "262880E7-CFE1-4BDA-902E-E24798F3240A";
paths = (
{
closed = 1;
nodes = (
"438 -9 OFFCURVE",
"525 74 OFFCURVE",
"525 198 CURVE SMOOTH",
"525 207 LINE",
"503 208 LINE",
"503 196 LINE SMOOTH",
"503 86 OFFCURVE",
"425 12 OFFCURVE",
"308 12 CURVE SMOOTH",
"190 12 OFFCURVE",
"112 86 OFFCURVE",
"112 196 CURVE SMOOTH",
"112 504 LINE SMOOTH",
"112 614 OFFCURVE",
"190 687 OFFCURVE",
"308 687 CURVE SMOOTH",
"425 687 OFFCURVE",
"503 614 OFFCURVE",
"503 504 CURVE SMOOTH",
"503 491 LINE",
"525 492 LINE",
"525 503 LINE SMOOTH",
"525 626 OFFCURVE",
"438 708 OFFCURVE",
"308 708 CURVE SMOOTH",
"177 708 OFFCURVE",
"90 626 OFFCURVE",
"90 503 CURVE SMOOTH",
"90 198 LINE SMOOTH",
"90 74 OFFCURVE",
"177 -9 OFFCURVE",
"308 -9 CURVE SMOOTH"
);
},
{
closed = 1;
nodes = (
"329 819 OFFCURVE",
"349 837 OFFCURVE",
"349 860 CURVE SMOOTH",
"349 882 OFFCURVE",
"329 900 OFFCURVE",
"307 900 CURVE SMOOTH",
"285 900 OFFCURVE",
"265 882 OFFCURVE",
"265 860 CURVE SMOOTH",
"265 837 OFFCURVE",
"284 819 OFFCURVE",
"307 819 CURVE SMOOTH"
);
}
);
width = 606;
},
{
anchors = (
{
name = bottom;
position = "{286, -8}";
},
{
name = top;
position = "{306, 700}";
}
);
layerId = "FFFA8D72-12AC-4CE0-B2CA-57A29829F4DA";
paths = (
{
closed = 1;
nodes = (
"472 -8 OFFCURVE",
"582 89 OFFCURVE",
"582 235 CURVE SMOOTH",
"582 244 LINE",
"394 254 LINE",
"394 242 LINE SMOOTH",
"394 189 OFFCURVE",
"359 153 OFFCURVE",
"306 153 CURVE SMOOTH",
"253 153 OFFCURVE",
"218 189 OFFCURVE",
"218 242 CURVE SMOOTH",
"218 457 LINE SMOOTH",
"218 511 OFFCURVE",
"253 547 OFFCURVE",
"306 547 CURVE SMOOTH",
"359 547 OFFCURVE",
"394 511 OFFCURVE",
"394 457 CURVE SMOOTH",
"394 445 LINE",
"582 457 LINE",
"582 467 LINE SMOOTH",
"582 612 OFFCURVE",
"472 708 OFFCURVE",
"306 708 CURVE SMOOTH",
"140 708 OFFCURVE",
"30 606 OFFCURVE",
"30 452 CURVE SMOOTH",
"30 250 LINE SMOOTH",
"30 95 OFFCURVE",
"140 -8 OFFCURVE",
"306 -8 CURVE SMOOTH"
);
},
{
closed = 1;
nodes = (
"371 735 OFFCURVE",
"418 782 OFFCURVE",
"418 840 CURVE SMOOTH",
"418 898 OFFCURVE",
"363 944 OFFCURVE",
"306 944 CURVE SMOOTH",
"250 944 OFFCURVE",
"194 898 OFFCURVE",
"194 840 CURVE SMOOTH",
"194 782 OFFCURVE",
"241 735 OFFCURVE",
"306 735 CURVE SMOOTH"
);
}
);
width = 609;
},
{
anchors = (
{
name = bottom;
position = "{219, -8}";
},
{
name = top;
position = "{219, 700}";
}
);
layerId = "DCBE1F7B-116A-43E0-B7B4-8657BA77D8B5";
paths = (
{
closed = 1;
nodes = (
"310 -8 OFFCURVE",
"370 54 OFFCURVE",
"370 148 CURVE SMOOTH",
"370 177 LINE",
"347 178 LINE",
"347 147 LINE SMOOTH",
"347 67 OFFCURVE",
"296 13 OFFCURVE",
"219 13 CURVE SMOOTH",
"143 13 OFFCURVE",
"92 67 OFFCURVE",
"92 147 CURVE SMOOTH",
"92 554 LINE SMOOTH",
"92 634 OFFCURVE",
"143 687 OFFCURVE",
"219 687 CURVE SMOOTH",
"296 687 OFFCURVE",
"347 634 OFFCURVE",
"347 554 CURVE SMOOTH",
"347 521 LINE",
"370 522 LINE",
"370 553 LINE SMOOTH",
"370 647 OFFCURVE",
"310 708 OFFCURVE",
"219 708 CURVE SMOOTH",
"130 708 OFFCURVE",
"70 647 OFFCURVE",
"70 553 CURVE SMOOTH",
"70 148 LINE SMOOTH",
"70 54 OFFCURVE",
"130 -8 OFFCURVE",
"219 -8 CURVE SMOOTH"
);
},
{
closed = 1;
nodes = (
"236 819 OFFCURVE",
"252 837 OFFCURVE",
"252 860 CURVE SMOOTH",
"252 882 OFFCURVE",
"236 900 OFFCURVE",
"218 900 CURVE SMOOTH",
"200 900 OFFCURVE",
"184 882 OFFCURVE",
"184 860 CURVE SMOOTH",
"184 837 OFFCURVE",
"199 819 OFFCURVE",
"218 819 CURVE SMOOTH"
);
}
);
width = 433;
},
{
anchors = (
{
name = bottom;
position = "{239, -8}";
},
{
name = top;
position = "{239, 700}";
}
);
layerId = "4E2227F3-52E4-4048-A8EE-327B486EF0A4";
paths = (
{
closed = 1;
nodes = (
"370 -8 OFFCURVE",
"458 75 OFFCURVE",
"458 205 CURVE SMOOTH",
"458 224 LINE",
"270 231 LINE",
"270 189 LINE SMOOTH",
"270 167 OFFCURVE",
"258 153 OFFCURVE",
"239 153 CURVE SMOOTH",
"220 153 OFFCURVE",
"208 167 OFFCURVE",
"208 189 CURVE SMOOTH",
"208 510 LINE SMOOTH",
"208 532 OFFCURVE",
"220 547 OFFCURVE",
"239 547 CURVE SMOOTH",
"258 547 OFFCURVE",
"270 532 OFFCURVE",
"270 510 CURVE SMOOTH",
"270 470 LINE",
"458 477 LINE",
"458 497 LINE SMOOTH",
"458 627 OFFCURVE",
"370 708 OFFCURVE",
"239 708 CURVE SMOOTH",
"107 708 OFFCURVE",
"20 627 OFFCURVE",
"20 497 CURVE SMOOTH",
"20 205 LINE SMOOTH",
"20 75 OFFCURVE",
"107 -8 OFFCURVE",
"239 -8 CURVE SMOOTH"
);
},
{
closed = 1;
nodes = (
"301 735 OFFCURVE",
"344 782 OFFCURVE",
"344 840 CURVE SMOOTH",
"344 898 OFFCURVE",
"292 944 OFFCURVE",
"239 944 CURVE SMOOTH",
"186 944 OFFCURVE",
"134 898 OFFCURVE",
"134 840 CURVE SMOOTH",
"134 782 OFFCURVE",
"177 735 OFFCURVE",
"239 735 CURVE SMOOTH"
);
}
);
width = 476;
}
);
leftKerningGroup = O;
rightKerningGroup = O;
unicode = 010A;
},
{
glyphname = D;
layers = (
{
anchors = (
{
name = top;
position = "{318, 700}";
}
);
hints = (
{
horizontal = 1;
origin = "{0, 7}";
target = "{1, 1}";
},
{
origin = "{0, 8}";
target = "{1, 0}";
},
{
horizontal = 1;
origin = "{0, 9}";
target = "{1, 9}";
},
{
origin = "{1, 5}";
target = "{0, 3}";
}
);
layerId = "262880E7-CFE1-4BDA-902E-E24798F3240A";
paths = (
{
closed = 1;
nodes = (
"352 0 LINE SMOOTH",
"471 0 OFFCURVE",
"544 68 OFFCURVE",
"544 180 CURVE SMOOTH",
"544 520 LINE SMOOTH",
"544 632 OFFCURVE",
"471 700 OFFCURVE",
"352 700 CURVE SMOOTH",
"117 700 LINE",
"117 0 LINE"
);
},
{
closed = 1;
nodes = (
"139 679 LINE",
"354 679 LINE SMOOTH",
"458 679 OFFCURVE",
"522 619 OFFCURVE",
"522 520 CURVE SMOOTH",
"522 179 LINE SMOOTH",
"522 81 OFFCURVE",
"458 21 OFFCURVE",
"354 21 CURVE SMOOTH",
"139 21 LINE"
);
}
);
width = 618;
},
{
anchors = (
{
name = top;
position = "{234, 700}";
}
);
layerId = "4E2227F3-52E4-4048-A8EE-327B486EF0A4";
paths = (
{
closed = 1;
nodes = (
"238 0 LINE SMOOTH",
"372 0 OFFCURVE",
"461 80 OFFCURVE",
"461 200 CURVE SMOOTH",
"461 500 LINE SMOOTH",
"461 620 OFFCURVE",
"372 700 OFFCURVE",
"238 700 CURVE SMOOTH",
"26 700 LINE",
"26 0 LINE"
);
},
{
closed = 1;
nodes = (
"214 539 LINE",
"233 539 LINE SMOOTH",
"257 539 OFFCURVE",
"273 519 OFFCURVE",
"273 488 CURVE",
"273 213 LINE",
"271 183 OFFCURVE",
"255 163 OFFCURVE",
"234 162 CURVE SMOOTH",
"214 161 LINE"
);
}
);
width = 483;
},
{
anchors = (
{
name = top;
position = "{293, 700}";
}
);
layerId = "FFFA8D72-12AC-4CE0-B2CA-57A29829F4DA";
paths = (
{
closed = 1;
nodes = (
"311 0 LINE SMOOTH",
"475 0 OFFCURVE",
"585 90 OFFCURVE",
"585 225 CURVE SMOOTH",
"585 475 LINE SMOOTH",
"585 610 OFFCURVE",
"475 700 OFFCURVE",
"311 700 CURVE SMOOTH",
"39 700 LINE",
"39 0 LINE"
);
},
{
closed = 1;
nodes = (
"227 539 LINE",
"317 539 LINE SMOOTH",
"365 539 OFFCURVE",
"397 501 OFFCURVE",
"397 443 CURVE",
"397 257 LINE",
"395 199 OFFCURVE",
"363 161 OFFCURVE",
"318 161 CURVE SMOOTH",
"227 161 LINE"
);
}
);
width = 618;
},
{
anchors = (
{
name = top;
position = "{228, 700}";
}
);
layerId = "DCBE1F7B-116A-43E0-B7B4-8657BA77D8B5";
paths = (
{
closed = 1;
nodes = (
"235 0 LINE SMOOTH",
"325 0 OFFCURVE",
"381 68 OFFCURVE",
"381 180 CURVE SMOOTH",
"381 520 LINE SMOOTH",
"381 632 OFFCURVE",
"325 700 OFFCURVE",
"235 700 CURVE SMOOTH",
"91 700 LINE",
"91 0 LINE"
);
},
{
closed = 1;
nodes = (
"113 679 LINE",
"236 679 LINE SMOOTH",
"312 679 OFFCURVE",
"358 619 OFFCURVE",
"358 520 CURVE SMOOTH",
"358 179 LINE SMOOTH",
"358 81 OFFCURVE",
"311 21 OFFCURVE",
"236 21 CURVE SMOOTH",
"113 21 LINE"
);
}
);
width = 458;
}
);
leftKerningGroup = H;
rightKerningGroup = B;
unicode = 0044;
},
{
glyphname = Eth;
layers = (
{
anchors = (
{
name = top;
position = "{393, 700}";
}
);
hints = (
{
horizontal = 1;
origin = "{1, 7}";
target = "{2, 1}";
},
{
origin = "{1, 8}";
target = "{2, 0}";
},
{
horizontal = 1;
origin = "{1, 9}";
target = "{2, 9}";
},
{
origin = "{2, 5}";
target = "{1, 3}";
}
);
layerId = "262880E7-CFE1-4BDA-902E-E24798F3240A";
paths = (
{
closed = 1;
nodes = (
"372 356 LINE",
"372 377 LINE",
"117 377 LINE",
"117 356 LINE"
);
},
{
closed = 1;
nodes = (
"427 0 LINE SMOOTH",
"546 0 OFFCURVE",
"619 68 OFFCURVE",
"619 180 CURVE SMOOTH",
"619 520 LINE SMOOTH",
"619 632 OFFCURVE",
"546 700 OFFCURVE",
"427 700 CURVE SMOOTH",
"192 700 LINE",
"192 0 LINE"
);
},
{
closed = 1;
nodes = (
"214 679 LINE",
"429 679 LINE SMOOTH",
"533 679 OFFCURVE",
"597 619 OFFCURVE",
"597 520 CURVE SMOOTH",
"597 179 LINE SMOOTH",
"597 81 OFFCURVE",
"533 21 OFFCURVE",
"429 21 CURVE SMOOTH",
"214 21 LINE"
);
}
);
width = 693;
},
{
anchors = (
{
name = top;
position = "{335, 700}";
}
);
layerId = "FFFA8D72-12AC-4CE0-B2CA-57A29829F4DA";
paths = (
{
closed = 1;
nodes = (
"341 296 LINE",
"341 421 LINE",
"39 421 LINE",
"39 296 LINE"
);
},
{
closed = 1;
nodes = (
"353 0 LINE SMOOTH",
"517 0 OFFCURVE",
"627 90 OFFCURVE",
"627 225 CURVE SMOOTH",
"627 475 LINE SMOOTH",
"627 610 OFFCURVE",
"517 700 OFFCURVE",
"353 700 CURVE SMOOTH",
"81 700 LINE",
"81 0 LINE"
);
},
{
closed = 1;
nodes = (
"269 539 LINE",
"359 539 LINE SMOOTH",
"407 539 OFFCURVE",
"439 501 OFFCURVE",
"439 443 CURVE",
"439 257 LINE",
"437 199 OFFCURVE",
"405 161 OFFCURVE",
"360 161 CURVE SMOOTH",
"269 161 LINE"
);
}
);
width = 660;
},
{
anchors = (
{
name = top;
position = "{280, 700}";
}
);
layerId = "DCBE1F7B-116A-43E0-B7B4-8657BA77D8B5";
paths = (
{
closed = 1;
nodes = (
"279 355 LINE",
"279 376 LINE",
"91 376 LINE",
"91 355 LINE"
);
},
{
closed = 1;
nodes = (
"287 0 LINE SMOOTH",
"377 0 OFFCURVE",
"433 68 OFFCURVE",
"433 180 CURVE SMOOTH",
"433 520 LINE SMOOTH",
"433 632 OFFCURVE",
"377 700 OFFCURVE",
"287 700 CURVE SMOOTH",
"143 700 LINE",
"143 0 LINE"
);
},
{
closed = 1;
nodes = (
"165 679 LINE",
"288 679 LINE SMOOTH",
"364 679 OFFCURVE",
"410 619 OFFCURVE",
"410 520 CURVE SMOOTH",
"410 179 LINE SMOOTH",
"410 81 OFFCURVE",
"363 21 OFFCURVE",
"288 21 CURVE SMOOTH",
"165 21 LINE"
);
}
);
width = 510;
},
{
anchors = (
{
name = top;
position = "{256, 700}";
}
);
layerId = "4E2227F3-52E4-4048-A8EE-327B486EF0A4";
paths = (
{
closed = 1;
nodes = (
"267 314 LINE",
"267 419 LINE",
"26 419 LINE",
"26 314 LINE"
);
},
{
closed = 1;
nodes = (
"260 0 LINE SMOOTH",
"394 0 OFFCURVE",
"483 80 OFFCURVE",
"483 200 CURVE SMOOTH",
"483 500 LINE SMOOTH",
"483 620 OFFCURVE",
"394 700 OFFCURVE",
"260 700 CURVE SMOOTH",
"48 700 LINE",
"48 0 LINE"
);
},
{
closed = 1;
nodes = (
"236 539 LINE",
"255 539 LINE SMOOTH",
"279 539 OFFCURVE",
"295 519 OFFCURVE",
"295 488 CURVE",
"295 213 LINE",
"293 183 OFFCURVE",
"277 163 OFFCURVE",
"256 162 CURVE SMOOTH",
"236 161 LINE"
);
}
);
width = 505;
}
);
leftMetricsKey = "=D";
rightKerningGroup = B;
rightMetricsKey = "=D";
unicode = 00D0;
},
{
glyphname = Dcaron;
layers = (
{
anchors = (
{
name = top;
position = "{318, 700}";
}
);
hints = (
{
horizontal = 1;
origin = "{0, 7}";
target = "{1, 1}";
},
{
origin = "{0, 8}";
target = "{1, 0}";
},
{
horizontal = 1;
origin = "{0, 9}";
target = "{1, 9}";
},
{
origin = "{1, 5}";
target = "{0, 3}";
}
);
layerId = "262880E7-CFE1-4BDA-902E-E24798F3240A";
paths = (
{
closed = 1;
nodes = (
"352 0 LINE SMOOTH",
"471 0 OFFCURVE",
"544 68 OFFCURVE",
"544 180 CURVE SMOOTH",
"544 520 LINE SMOOTH",
"544 632 OFFCURVE",
"471 700 OFFCURVE",
"352 700 CURVE SMOOTH",
"117 700 LINE",
"117 0 LINE"
);
},
{
closed = 1;
nodes = (
"139 679 LINE",
"354 679 LINE SMOOTH",
"458 679 OFFCURVE",
"522 619 OFFCURVE",
"522 520 CURVE SMOOTH",
"522 179 LINE SMOOTH",
"522 81 OFFCURVE",
"458 21 OFFCURVE",
"354 21 CURVE SMOOTH",
"139 21 LINE"
);
},
{
closed = 1;
nodes = (
"327 772 LINE",
"425 897 LINE",
"399 897 LINE",
"318 792 LINE",
"235 897 LINE",
"209 897 LINE",
"307 772 LINE"
);
}
);
width = 618;
},
{
anchors = (
{
name = top;
position = "{293, 700}";
}
);
layerId = "FFFA8D72-12AC-4CE0-B2CA-57A29829F4DA";
paths = (
{
closed = 1;
nodes = (
"311 0 LINE SMOOTH",
"475 0 OFFCURVE",
"585 90 OFFCURVE",
"585 225 CURVE SMOOTH",
"585 475 LINE SMOOTH",
"585 610 OFFCURVE",
"475 700 OFFCURVE",
"311 700 CURVE SMOOTH",
"39 700 LINE",
"39 0 LINE"
);
},
{
closed = 1;
nodes = (
"227 539 LINE",
"317 539 LINE SMOOTH",
"365 539 OFFCURVE",
"397 501 OFFCURVE",
"397 443 CURVE",
"397 257 LINE",
"395 199 OFFCURVE",
"363 161 OFFCURVE",
"318 161 CURVE SMOOTH",
"227 161 LINE"
);
},
{
closed = 1;
nodes = (
"408 750 LINE",
"490 879 LINE",
"328 879 LINE",
"293 817 LINE",
"258 879 LINE",
"95 879 LINE",
"174 750 LINE"
);
}
);
width = 618;
},
{
anchors = (
{
name = top;
position = "{228, 700}";
}
);
layerId = "DCBE1F7B-116A-43E0-B7B4-8657BA77D8B5";
paths = (
{
closed = 1;
nodes = (
"235 0 LINE SMOOTH",
"325 0 OFFCURVE",
"381 68 OFFCURVE",
"381 180 CURVE SMOOTH",
"381 520 LINE SMOOTH",
"381 632 OFFCURVE",
"325 700 OFFCURVE",
"235 700 CURVE SMOOTH",
"91 700 LINE",
"91 0 LINE"
);
},
{
closed = 1;
nodes = (
"113 679 LINE",
"236 679 LINE SMOOTH",
"312 679 OFFCURVE",
"358 619 OFFCURVE",
"358 520 CURVE SMOOTH",
"358 179 LINE SMOOTH",
"358 81 OFFCURVE",
"311 21 OFFCURVE",
"236 21 CURVE SMOOTH",
"113 21 LINE"
);
},
{
closed = 1;
nodes = (
"241 778 LINE",
"320 897 LINE",
"288 897 LINE",
"229 803 LINE",
"169 897 LINE",
"138 897 LINE",
"215 778 LINE"
);
}
);
width = 458;
},
{
anchors = (
{
name = top;
position = "{234, 700}";
}
);
layerId = "4E2227F3-52E4-4048-A8EE-327B486EF0A4";
paths = (
{
closed = 1;
nodes = (
"238 0 LINE SMOOTH",
"372 0 OFFCURVE",
"461 80 OFFCURVE",
"461 200 CURVE SMOOTH",
"461 500 LINE SMOOTH",
"461 620 OFFCURVE",
"372 700 OFFCURVE",
"238 700 CURVE SMOOTH",
"26 700 LINE",
"26 0 LINE"
);
},
{
closed = 1;
nodes = (
"214 539 LINE",
"233 539 LINE SMOOTH",
"257 539 OFFCURVE",
"273 519 OFFCURVE",
"273 488 CURVE",
"273 213 LINE",
"271 183 OFFCURVE",
"255 163 OFFCURVE",
"234 162 CURVE SMOOTH",
"214 161 LINE"
);
},
{
closed = 1;
nodes = (
"315 751 LINE",
"398 880 LINE",
"265 880 LINE",
"234 818 LINE",
"201 880 LINE",
"60 880 LINE",
"141 751 LINE"
);
}
);
width = 483;
}
);
leftKerningGroup = H;
rightKerningGroup = B;
unicode = 010E;
},
{
glyphname = Dcroat;
layers = (
{
anchors = (
{
name = top;
position = "{393, 700}";
}
);
hints = (
{
horizontal = 1;
origin = "{1, 7}";
target = "{2, 1}";
},
{
origin = "{1, 8}";
target = "{2, 0}";
},
{
horizontal = 1;
origin = "{1, 9}";
target = "{2, 9}";
},
{
origin = "{2, 5}";
target = "{1, 3}";
}
);
layerId = "262880E7-CFE1-4BDA-902E-E24798F3240A";
paths = (
{
closed = 1;
nodes = (
"372 356 LINE",
"372 377 LINE",
"117 377 LINE",
"117 356 LINE"
);
},
{
closed = 1;
nodes = (
"427 0 LINE SMOOTH",
"546 0 OFFCURVE",
"619 68 OFFCURVE",
"619 180 CURVE SMOOTH",
"619 520 LINE SMOOTH",
"619 632 OFFCURVE",
"546 700 OFFCURVE",
"427 700 CURVE SMOOTH",
"192 700 LINE",
"192 0 LINE"
);
},
{
closed = 1;
nodes = (
"214 679 LINE",
"429 679 LINE SMOOTH",
"533 679 OFFCURVE",
"597 619 OFFCURVE",
"597 520 CURVE SMOOTH",
"597 179 LINE SMOOTH",
"597 81 OFFCURVE",
"533 21 OFFCURVE",
"429 21 CURVE SMOOTH",
"214 21 LINE"
);
}
);
width = 693;
},
{
anchors = (
{
name = top;
position = "{335, 700}";
}
);
layerId = "FFFA8D72-12AC-4CE0-B2CA-57A29829F4DA";
paths = (
{
closed = 1;
nodes = (
"341 296 LINE",
"341 421 LINE",
"39 421 LINE",
"39 296 LINE"
);
},
{
closed = 1;
nodes = (
"353 0 LINE SMOOTH",
"517 0 OFFCURVE",
"627 90 OFFCURVE",
"627 225 CURVE SMOOTH",
"627 475 LINE SMOOTH",
"627 610 OFFCURVE",
"517 700 OFFCURVE",
"353 700 CURVE SMOOTH",
"81 700 LINE",
"81 0 LINE"
);
},
{
closed = 1;
nodes = (
"269 539 LINE",
"359 539 LINE SMOOTH",
"407 539 OFFCURVE",
"439 501 OFFCURVE",
"439 443 CURVE",
"439 257 LINE",
"437 199 OFFCURVE",
"405 161 OFFCURVE",
"360 161 CURVE SMOOTH",
"269 161 LINE"
);
}
);
width = 660;
},
{
anchors = (
{
name = top;
position = "{280, 700}";
}
);
layerId = "DCBE1F7B-116A-43E0-B7B4-8657BA77D8B5";
paths = (
{
closed = 1;
nodes = (
"279 355 LINE",
"279 376 LINE",
"91 376 LINE",
"91 355 LINE"
);
},
{
closed = 1;
nodes = (
"287 0 LINE SMOOTH",
"377 0 OFFCURVE",
"433 68 OFFCURVE",
"433 180 CURVE SMOOTH",
"433 520 LINE SMOOTH",
"433 632 OFFCURVE",
"377 700 OFFCURVE",
"287 700 CURVE SMOOTH",
"143 700 LINE",
"143 0 LINE"
);
},
{
closed = 1;
nodes = (
"165 679 LINE",
"288 679 LINE SMOOTH",
"364 679 OFFCURVE",
"410 619 OFFCURVE",
"410 520 CURVE SMOOTH",
"410 179 LINE SMOOTH",
"410 81 OFFCURVE",
"363 21 OFFCURVE",
"288 21 CURVE SMOOTH",
"165 21 LINE"
);
}
);
width = 510;
},
{
anchors = (
{
name = top;
position = "{256, 700}";
}
);
layerId = "4E2227F3-52E4-4048-A8EE-327B486EF0A4";
paths = (
{
closed = 1;
nodes = (
"267 314 LINE",
"267 419 LINE",
"26 419 LINE",
"26 314 LINE"
);
},
{
closed = 1;
nodes = (
"260 0 LINE SMOOTH",
"394 0 OFFCURVE",
"483 80 OFFCURVE",
"483 200 CURVE SMOOTH",
"483 500 LINE SMOOTH",
"483 620 OFFCURVE",
"394 700 OFFCURVE",
"260 700 CURVE SMOOTH",
"48 700 LINE",
"48 0 LINE"
);
},
{
closed = 1;
nodes = (
"236 539 LINE",
"255 539 LINE SMOOTH",
"279 539 OFFCURVE",
"295 519 OFFCURVE",
"295 488 CURVE",
"295 213 LINE",
"293 183 OFFCURVE",
"277 163 OFFCURVE",
"256 162 CURVE SMOOTH",
"236 161 LINE"
);
}
);
width = 505;
}
);
rightKerningGroup = B;
unicode = 0110;
},
{
glyphname = E;
layers = (
{
anchors = (
{
name = bottom;
position = "{330, 0}";
},
{
name = top;
position = "{327, 700}";
}
);
hints = (
{
horizontal = 1;
origin = "{1, 0}";
target = "{1, 1}";
},
{
horizontal = 1;
origin = "{0, 0}";
target = "{0, 1}";
},
{
origin = "{0, 7}";
target = "{0, 2}";
},
{
horizontal = 1;
origin = "{0, 5}";
target = "{0, 4}";
}
);
layerId = "262880E7-CFE1-4BDA-902E-E24798F3240A";
paths = (
{
closed = 1;
nodes = (
"548 0 LINE",
"548 21 LINE",
"139 21 LINE",
"139 679 LINE",
"548 679 LINE",
"548 700 LINE",
"117 700 LINE",
"117 0 LINE"
);
},
{
closed = 1;
nodes = (
"439 340 LINE",
"439 361 LINE",
"128 361 LINE",
"128 340 LINE"
);
}
);
width = 620;
},
{
anchors = (
{
name = bottom;
position = "{218, 0}";
},
{
name = top;
position = "{227, 700}";
}
);
layerId = "4E2227F3-52E4-4048-A8EE-327B486EF0A4";
paths = (
{
closed = 1;
nodes = (
"426 0 LINE",
"426 161 LINE",
"214 161 LINE",
"214 539 LINE",
"426 539 LINE",
"426 700 LINE",
"26 700 LINE",
"26 0 LINE"
);
},
{
closed = 1;
nodes = (
"334 270 LINE",
"334 431 LINE",
"102 431 LINE",
"102 270 LINE"
);
}
);
width = 444;
},
{
anchors = (
{
name = bottom;
position = "{300, 0}";
},
{
name = top;
position = "{291, 700}";
}
);
layerId = "FFFA8D72-12AC-4CE0-B2CA-57A29829F4DA";
paths = (
{
closed = 1;
nodes = (
"546 0 LINE",
"546 161 LINE",
"227 161 LINE",
"227 539 LINE",
"546 539 LINE",
"546 700 LINE",
"39 700 LINE",
"39 0 LINE"
);
},
{
closed = 1;
nodes = (
"432 275 LINE",
"432 435 LINE",
"115 435 LINE",
"115 275 LINE"
);
}
);
width = 570;
},
{
anchors = (
{
name = bottom;
position = "{230, 0}";
},
{
name = top;
position = "{232, 700}";
}
);
layerId = "DCBE1F7B-116A-43E0-B7B4-8657BA77D8B5";
paths = (
{
closed = 1;
nodes = (
"373 0 LINE",
"373 21 LINE",
"113 21 LINE",
"113 679 LINE",
"373 679 LINE",
"373 700 LINE",
"91 700 LINE",
"91 0 LINE"
);
},
{
closed = 1;
nodes = (
"290 340 LINE",
"290 361 LINE",
"102 361 LINE",
"102 340 LINE"
);
}
);
width = 423;
}
);
leftKerningGroup = H;
unicode = 0045;
},
{
glyphname = Eacute;
layers = (
{
anchors = (
{
name = bottom;
position = "{330, 0}";
},
{
name = top;
position = "{327, 700}";
}
);
hints = (
{
horizontal = 1;
origin = "{1, 0}";
target = "{1, 1}";
},
{
horizontal = 1;
origin = "{0, 0}";
target = "{0, 1}";
},
{
origin = "{0, 7}";
target = "{0, 2}";
},
{
horizontal = 1;
origin = "{0, 5}";
target = "{0, 4}";
}
);
layerId = "262880E7-CFE1-4BDA-902E-E24798F3240A";
paths = (
{
closed = 1;
nodes = (
"548 0 LINE",
"548 21 LINE",
"139 21 LINE",
"139 679 LINE",
"548 679 LINE",
"548 700 LINE",
"117 700 LINE",
"117 0 LINE"
);
},
{
closed = 1;
nodes = (
"439 340 LINE",
"439 361 LINE",
"128 361 LINE",
"128 340 LINE"
);
},
{
closed = 1;
nodes = (
"320 769 LINE",
"395 900 LINE",
"371 900 LINE",
"298 769 LINE"
);
}
);
width = 620;
},
{
anchors = (
{
name = bottom;
position = "{300, 0}";
},
{
name = top;
position = "{291, 700}";
}
);
layerId = "FFFA8D72-12AC-4CE0-B2CA-57A29829F4DA";
paths = (
{
closed = 1;
nodes = (
"546 0 LINE",
"546 161 LINE",
"227 161 LINE",
"227 539 LINE",
"546 539 LINE",
"546 700 LINE",
"39 700 LINE",
"39 0 LINE"
);
},
{
closed = 1;
nodes = (
"432 275 LINE",
"432 435 LINE",
"115 435 LINE",
"115 275 LINE"
);
},
{
closed = 1;
nodes = (
"371 759 LINE",
"462 880 LINE",
"256 880 LINE",
"192 759 LINE"
);
}
);
width = 570;
},
{
anchors = (
{
name = bottom;
position = "{230, 0}";
},
{
name = top;
position = "{232, 700}";
}
);
layerId = "DCBE1F7B-116A-43E0-B7B4-8657BA77D8B5";
paths = (
{
closed = 1;
nodes = (
"373 0 LINE",
"373 21 LINE",
"113 21 LINE",
"113 679 LINE",
"373 679 LINE",
"373 700 LINE",
"91 700 LINE",
"91 0 LINE"
);
},
{
closed = 1;
nodes = (
"290 340 LINE",
"290 361 LINE",
"102 361 LINE",
"102 340 LINE"
);
},
{
closed = 1;
nodes = (
"221 769 LINE",
"296 900 LINE",
"272 900 LINE",
"199 769 LINE"
);
}
);
width = 423;
},
{
anchors = (
{
name = bottom;
position = "{218, 0}";
},
{
name = top;
position = "{227, 700}";
}
);
layerId = "4E2227F3-52E4-4048-A8EE-327B486EF0A4";
paths = (
{
closed = 1;
nodes = (
"426 0 LINE",
"426 161 LINE",
"214 161 LINE",
"214 539 LINE",
"426 539 LINE",
"426 700 LINE",
"26 700 LINE",
"26 0 LINE"
);
},
{
closed = 1;
nodes = (
"334 270 LINE",
"334 431 LINE",
"102 431 LINE",
"102 270 LINE"
);
},
{
closed = 1;
nodes = (
"282 759 LINE",
"381 880 LINE",
"203 880 LINE",
"131 759 LINE"
);
}
);
width = 444;
}
);
leftKerningGroup = H;
unicode = 00C9;
},
{
glyphname = Ecaron;
layers = (
{
anchors = (
{
name = bottom;
position = "{330, 0}";
},
{
name = top;
position = "{327, 700}";
}
);
hints = (
{
horizontal = 1;
origin = "{1, 0}";
target = "{1, 1}";
},
{
horizontal = 1;
origin = "{0, 0}";
target = "{0, 1}";
},
{
origin = "{0, 7}";
target = "{0, 2}";
},
{
horizontal = 1;
origin = "{0, 5}";
target = "{0, 4}";
}
);
layerId = "262880E7-CFE1-4BDA-902E-E24798F3240A";
paths = (
{
closed = 1;
nodes = (
"548 0 LINE",
"548 21 LINE",
"139 21 LINE",
"139 679 LINE",
"548 679 LINE",
"548 700 LINE",
"117 700 LINE",
"117 0 LINE"
);
},
{
closed = 1;
nodes = (
"439 340 LINE",
"439 361 LINE",
"128 361 LINE",
"128 340 LINE"
);
},
{
closed = 1;
nodes = (
"336 775 LINE",
"434 900 LINE",
"408 900 LINE",
"327 795 LINE",
"244 900 LINE",
"218 900 LINE",
"316 775 LINE"
);
}
);
width = 620;
},
{
anchors = (
{
name = bottom;
position = "{300, 0}";
},
{
name = top;
position = "{291, 700}";
}
);
layerId = "FFFA8D72-12AC-4CE0-B2CA-57A29829F4DA";
paths = (
{
closed = 1;
nodes = (
"546 0 LINE",
"546 161 LINE",
"227 161 LINE",
"227 539 LINE",
"546 539 LINE",
"546 700 LINE",
"39 700 LINE",
"39 0 LINE"
);
},
{
closed = 1;
nodes = (
"432 275 LINE",
"432 435 LINE",
"115 435 LINE",
"115 275 LINE"
);
},
{
closed = 1;
nodes = (
"406 750 LINE",
"488 879 LINE",
"326 879 LINE",
"291 817 LINE",
"256 879 LINE",
"93 879 LINE",
"172 750 LINE"
);
}
);
width = 570;
},
{
anchors = (
{
name = bottom;
position = "{230, 0}";
},
{
name = top;
position = "{232, 700}";
}
);
layerId = "DCBE1F7B-116A-43E0-B7B4-8657BA77D8B5";
paths = (
{
closed = 1;
nodes = (
"373 0 LINE",
"373 21 LINE",
"113 21 LINE",
"113 679 LINE",
"373 679 LINE",
"373 700 LINE",
"91 700 LINE",
"91 0 LINE"
);
},
{
closed = 1;
nodes = (
"290 340 LINE",
"290 361 LINE",
"102 361 LINE",
"102 340 LINE"
);
},
{
closed = 1;
nodes = (
"245 781 LINE",
"324 900 LINE",
"292 900 LINE",
"233 806 LINE",
"173 900 LINE",
"142 900 LINE",
"219 781 LINE"
);
}
);
width = 423;
},
{
anchors = (
{
name = bottom;
position = "{218, 0}";
},
{
name = top;
position = "{227, 700}";
}
);
layerId = "4E2227F3-52E4-4048-A8EE-327B486EF0A4";
paths = (
{
closed = 1;
nodes = (
"426 0 LINE",
"426 161 LINE",
"214 161 LINE",
"214 539 LINE",
"426 539 LINE",
"426 700 LINE",
"26 700 LINE",
"26 0 LINE"
);
},
{
closed = 1;
nodes = (
"334 270 LINE",
"334 431 LINE",
"102 431 LINE",
"102 270 LINE"
);
},
{
closed = 1;
nodes = (
"308 751 LINE",
"391 880 LINE",
"258 880 LINE",
"227 818 LINE",
"194 880 LINE",
"53 880 LINE",
"134 751 LINE"
);
}
);
width = 444;
}
);
leftKerningGroup = H;
unicode = 011A;
},
{
glyphname = Ecedilla;
layers = (
{
anchors = (
{
name = bottom;
position = "{330, 0}";
},
{
name = top;
position = "{327, 700}";
}
);
hints = (
{
horizontal = 1;
origin = "{1, 0}";
target = "{1, 1}";
},
{
horizontal = 1;
origin = "{0, 0}";
target = "{0, 1}";
},
{
origin = "{0, 7}";
target = "{0, 2}";
},
{
horizontal = 1;
origin = "{0, 5}";
target = "{0, 4}";
}
);
layerId = "262880E7-CFE1-4BDA-902E-E24798F3240A";
paths = (
{
closed = 1;
nodes = (
"548 0 LINE",
"548 21 LINE",
"139 21 LINE",
"139 679 LINE",
"548 679 LINE",
"548 700 LINE",
"117 700 LINE",
"117 0 LINE"
);
},
{
closed = 1;
nodes = (
"439 340 LINE",
"439 361 LINE",
"128 361 LINE",
"128 340 LINE"
);
},
{
closed = 1;
nodes = (
"327 -186 OFFCURVE",
"386 -179 OFFCURVE",
"398 -121 CURVE SMOOTH",
"406 -82 OFFCURVE",
"392 -39 OFFCURVE",
"334 3 CURVE",
"312 3 LINE",
"349 -27 OFFCURVE",
"384 -70 OFFCURVE",
"376 -115 CURVE SMOOTH",
"368 -159 OFFCURVE",
"326 -165 OFFCURVE",
"286 -155 CURVE",
"280 -175 LINE"
);
}
);
width = 620;
},
{
anchors = (
{
name = bottom;
position = "{300, 0}";
},
{
name = top;
position = "{291, 700}";
}
);
layerId = "FFFA8D72-12AC-4CE0-B2CA-57A29829F4DA";
paths = (
{
closed = 1;
nodes = (
"546 0 LINE",
"546 161 LINE",
"227 161 LINE",
"227 539 LINE",
"546 539 LINE",
"546 700 LINE",
"39 700 LINE",
"39 0 LINE"
);
},
{
closed = 1;
nodes = (
"432 275 LINE",
"432 435 LINE",
"115 435 LINE",
"115 275 LINE"
);
},
{
closed = 1;
nodes = (
"258 -179 OFFCURVE",
"381 -205 OFFCURVE",
"408 -111 CURVE SMOOTH",
"421 -67 OFFCURVE",
"401 -21 OFFCURVE",
"349 20 CURVE",
"223 20 LINE",
"273 -11 OFFCURVE",
"297 -39 OFFCURVE",
"290 -59 CURVE SMOOTH",
"284 -77 OFFCURVE",
"258 -80 OFFCURVE",
"235 -63 CURVE",
"223 -158 LINE"
);
}
);
width = 570;
},
{
anchors = (
{
name = bottom;
position = "{230, 0}";
},
{
name = top;
position = "{232, 700}";
}
);
layerId = "DCBE1F7B-116A-43E0-B7B4-8657BA77D8B5";
paths = (
{
closed = 1;
nodes = (
"373 0 LINE",
"373 21 LINE",
"113 21 LINE",
"113 679 LINE",
"373 679 LINE",
"373 700 LINE",
"91 700 LINE",
"91 0 LINE"
);
},
{
closed = 1;
nodes = (
"290 340 LINE",
"290 361 LINE",
"102 361 LINE",
"102 340 LINE"
);
},
{
closed = 1;
nodes = (
"228 -184 OFFCURVE",
"279 -177 OFFCURVE",
"288 -119 CURVE SMOOTH",
"294 -80 OFFCURVE",
"284 -35 OFFCURVE",
"236 5 CURVE",
"214 5 LINE",
"245 -25 OFFCURVE",
"273 -68 OFFCURVE",
"267 -113 CURVE SMOOTH",
"261 -157 OFFCURVE",
"227 -163 OFFCURVE",
"195 -153 CURVE",
"190 -173 LINE"
);
}
);
width = 423;
},
{
anchors = (
{
name = bottom;
position = "{218, 0}";
},
{
name = top;
position = "{227, 700}";
}
);
layerId = "4E2227F3-52E4-4048-A8EE-327B486EF0A4";
paths = (
{
closed = 1;
nodes = (
"426 0 LINE",
"426 161 LINE",
"214 161 LINE",
"214 539 LINE",
"426 539 LINE",
"426 700 LINE",
"26 700 LINE",
"26 0 LINE"
);
},
{
closed = 1;
nodes = (
"334 270 LINE",
"334 431 LINE",
"102 431 LINE",
"102 270 LINE"
);
},
{
closed = 1;
nodes = (
"173 -175 OFFCURVE",
"288 -205 OFFCURVE",
"311 -114 CURVE SMOOTH",
"322 -70 OFFCURVE",
"307 -24 OFFCURVE",
"264 17 CURVE",
"142 17 LINE",
"182 -14 OFFCURVE",
"201 -42 OFFCURVE",
"196 -62 CURVE SMOOTH",
"191 -80 OFFCURVE",
"175 -83 OFFCURVE",
"161 -75 CURVE",
"150 -165 LINE"
);
}
);
width = 444;
}
);
leftKerningGroup = H;
unicode = 0228;
},
{
glyphname = Ecircumflex;
layers = (
{
anchors = (
{
name = bottom;
position = "{330, 0}";
},
{
name = top;
position = "{327, 700}";
}
);
hints = (
{
horizontal = 1;
origin = "{1, 0}";
target = "{1, 1}";
},
{
horizontal = 1;
origin = "{0, 0}";
target = "{0, 1}";
},
{
origin = "{0, 7}";
target = "{0, 2}";
},
{
horizontal = 1;
origin = "{0, 5}";
target = "{0, 4}";
}
);
layerId = "262880E7-CFE1-4BDA-902E-E24798F3240A";
paths = (
{
closed = 1;
nodes = (
"548 0 LINE",
"548 21 LINE",
"139 21 LINE",
"139 679 LINE",
"548 679 LINE",
"548 700 LINE",
"117 700 LINE",
"117 0 LINE"
);
},
{
closed = 1;
nodes = (
"439 340 LINE",
"439 361 LINE",
"128 361 LINE",
"128 340 LINE"
);
},
{
closed = 1;
nodes = (
"244 775 LINE",
"327 880 LINE",
"408 775 LINE",
"434 775 LINE",
"336 900 LINE",
"316 900 LINE",
"218 775 LINE"
);
}
);
width = 620;
},
{
anchors = (
{
name = bottom;
position = "{300, 0}";
},
{
name = top;
position = "{291, 700}";
}
);
layerId = "FFFA8D72-12AC-4CE0-B2CA-57A29829F4DA";
paths = (
{
closed = 1;
nodes = (
"546 0 LINE",
"546 161 LINE",
"227 161 LINE",
"227 539 LINE",
"546 539 LINE",
"546 700 LINE",
"39 700 LINE",
"39 0 LINE"
);
},
{
closed = 1;
nodes = (
"432 275 LINE",
"432 435 LINE",
"115 435 LINE",
"115 275 LINE"
);
},
{
closed = 1;
nodes = (
"257 751 LINE",
"292 813 LINE",
"327 751 LINE",
"489 751 LINE",
"407 880 LINE",
"173 880 LINE",
"94 751 LINE"
);
}
);
width = 570;
},
{
anchors = (
{
name = bottom;
position = "{230, 0}";
},
{
name = top;
position = "{232, 700}";
}
);
layerId = "DCBE1F7B-116A-43E0-B7B4-8657BA77D8B5";
paths = (
{
closed = 1;
nodes = (
"373 0 LINE",
"373 21 LINE",
"113 21 LINE",
"113 679 LINE",
"373 679 LINE",
"373 700 LINE",
"91 700 LINE",
"91 0 LINE"
);
},
{
closed = 1;
nodes = (
"290 340 LINE",
"290 361 LINE",
"102 361 LINE",
"102 340 LINE"
);
},
{
closed = 1;
nodes = (
"172 781 LINE",
"232 875 LINE",
"291 781 LINE",
"323 781 LINE",
"244 900 LINE",
"218 900 LINE",
"141 781 LINE"
);
}
);
width = 423;
},
{
anchors = (
{
name = bottom;
position = "{218, 0}";
},
{
name = top;
position = "{227, 700}";
}
);
layerId = "4E2227F3-52E4-4048-A8EE-327B486EF0A4";
paths = (
{
closed = 1;
nodes = (
"426 0 LINE",
"426 161 LINE",
"214 161 LINE",
"214 539 LINE",
"426 539 LINE",
"426 700 LINE",
"26 700 LINE",
"26 0 LINE"
);
},
{
closed = 1;
nodes = (
"334 270 LINE",
"334 431 LINE",
"102 431 LINE",
"102 270 LINE"
);
},
{
closed = 1;
nodes = (
"196 751 LINE",
"225 814 LINE",
"254 751 LINE",
"400 751 LINE",
"316 880 LINE",
"131 880 LINE",
"50 751 LINE"
);
}
);
width = 444;
}
);
leftKerningGroup = H;
unicode = 00CA;
},
{
glyphname = Edieresis;
layers = (
{
anchors = (
{
name = bottom;
position = "{330, 0}";
},
{
name = top;
position = "{327, 700}";
}
);
hints = (
{
horizontal = 1;
origin = "{1, 0}";
target = "{1, 1}";
},
{
horizontal = 1;
origin = "{0, 0}";
target = "{0, 1}";
},
{
origin = "{0, 7}";
target = "{0, 2}";
},
{
horizontal = 1;
origin = "{0, 5}";
target = "{0, 4}";
}
);
layerId = "262880E7-CFE1-4BDA-902E-E24798F3240A";
paths = (
{
closed = 1;
nodes = (
"548 0 LINE",
"548 21 LINE",
"139 21 LINE",
"139 679 LINE",
"548 679 LINE",
"548 700 LINE",
"117 700 LINE",
"117 0 LINE"
);
},
{
closed = 1;
nodes = (
"439 340 LINE",
"439 361 LINE",
"128 361 LINE",
"128 340 LINE"
);
},
{
closed = 1;
nodes = (
"425 819 OFFCURVE",
"445 837 OFFCURVE",
"445 860 CURVE SMOOTH",
"445 882 OFFCURVE",
"425 900 OFFCURVE",
"403 900 CURVE SMOOTH",
"381 900 OFFCURVE",
"361 882 OFFCURVE",
"361 860 CURVE SMOOTH",
"361 837 OFFCURVE",
"380 819 OFFCURVE",
"403 819 CURVE SMOOTH"
);
},
{
closed = 1;
nodes = (
"273 819 OFFCURVE",
"293 837 OFFCURVE",
"293 860 CURVE SMOOTH",
"293 882 OFFCURVE",
"273 900 OFFCURVE",
"251 900 CURVE SMOOTH",
"229 900 OFFCURVE",
"209 882 OFFCURVE",
"209 860 CURVE SMOOTH",
"209 837 OFFCURVE",
"228 819 OFFCURVE",
"251 819 CURVE SMOOTH"
);
}
);
width = 620;
},
{
anchors = (
{
name = bottom;
position = "{300, 0}";
},
{
name = top;
position = "{291, 700}";
}
);
layerId = "FFFA8D72-12AC-4CE0-B2CA-57A29829F4DA";
paths = (
{
closed = 1;
nodes = (
"546 0 LINE",
"546 161 LINE",
"227 161 LINE",
"227 539 LINE",
"546 539 LINE",
"546 700 LINE",
"39 700 LINE",
"39 0 LINE"
);
},
{
closed = 1;
nodes = (
"432 275 LINE",
"432 435 LINE",
"115 435 LINE",
"115 275 LINE"
);
},
{
closed = 1;
nodes = (
"479 744 OFFCURVE",
"526 791 OFFCURVE",
"526 849 CURVE SMOOTH",
"526 907 OFFCURVE",
"471 953 OFFCURVE",
"414 953 CURVE SMOOTH",
"358 953 OFFCURVE",
"302 907 OFFCURVE",
"302 849 CURVE SMOOTH",
"302 791 OFFCURVE",
"349 744 OFFCURVE",
"414 744 CURVE SMOOTH"
);
},
{
closed = 1;
nodes = (
"233 744 OFFCURVE",
"280 791 OFFCURVE",
"280 849 CURVE SMOOTH",
"280 907 OFFCURVE",
"225 953 OFFCURVE",
"168 953 CURVE SMOOTH",
"112 953 OFFCURVE",
"56 907 OFFCURVE",
"56 849 CURVE SMOOTH",
"56 791 OFFCURVE",
"103 744 OFFCURVE",
"168 744 CURVE SMOOTH"
);
}
);
width = 570;
},
{
anchors = (
{
name = bottom;
position = "{230, 0}";
},
{
name = top;
position = "{232, 700}";
}
);
layerId = "DCBE1F7B-116A-43E0-B7B4-8657BA77D8B5";
paths = (
{
closed = 1;
nodes = (
"373 0 LINE",
"373 21 LINE",
"113 21 LINE",
"113 679 LINE",
"373 679 LINE",
"373 700 LINE",
"91 700 LINE",
"91 0 LINE"
);
},
{
closed = 1;
nodes = (
"290 340 LINE",
"290 361 LINE",
"102 361 LINE",
"102 340 LINE"
);
},
{
closed = 1;
nodes = (
"311 819 OFFCURVE",
"327 837 OFFCURVE",
"327 860 CURVE SMOOTH",
"327 882 OFFCURVE",
"311 900 OFFCURVE",
"293 900 CURVE SMOOTH",
"275 900 OFFCURVE",
"259 882 OFFCURVE",
"259 860 CURVE SMOOTH",
"259 837 OFFCURVE",
"274 819 OFFCURVE",
"293 819 CURVE SMOOTH"
);
},
{
closed = 1;
nodes = (
"205 819 OFFCURVE",
"221 837 OFFCURVE",
"221 860 CURVE SMOOTH",
"221 882 OFFCURVE",
"205 900 OFFCURVE",
"187 900 CURVE SMOOTH",
"169 900 OFFCURVE",
"153 882 OFFCURVE",
"153 860 CURVE SMOOTH",
"153 837 OFFCURVE",
"168 819 OFFCURVE",
"187 819 CURVE SMOOTH"
);
}
);
width = 423;
},
{
anchors = (
{
name = bottom;
position = "{218, 0}";
},
{
name = top;
position = "{227, 700}";
}
);
layerId = "4E2227F3-52E4-4048-A8EE-327B486EF0A4";
paths = (
{
closed = 1;
nodes = (
"426 0 LINE",
"426 161 LINE",
"214 161 LINE",
"214 539 LINE",
"426 539 LINE",
"426 700 LINE",
"26 700 LINE",
"26 0 LINE"
);
},
{
closed = 1;
nodes = (
"334 270 LINE",
"334 431 LINE",
"102 431 LINE",
"102 270 LINE"
);
},
{
closed = 1;
nodes = (
"400 735 OFFCURVE",
"443 782 OFFCURVE",
"443 840 CURVE SMOOTH",
"443 898 OFFCURVE",
"391 944 OFFCURVE",
"338 944 CURVE SMOOTH",
"285 944 OFFCURVE",
"233 898 OFFCURVE",
"233 840 CURVE SMOOTH",
"233 782 OFFCURVE",
"276 735 OFFCURVE",
"338 735 CURVE SMOOTH"
);
},
{
closed = 1;
nodes = (
"177 735 OFFCURVE",
"220 782 OFFCURVE",
"220 840 CURVE SMOOTH",
"220 898 OFFCURVE",
"168 944 OFFCURVE",
"115 944 CURVE SMOOTH",
"62 944 OFFCURVE",
"10 898 OFFCURVE",
"10 840 CURVE SMOOTH",
"10 782 OFFCURVE",
"53 735 OFFCURVE",
"115 735 CURVE SMOOTH"
);
}
);
width = 444;
}
);
leftKerningGroup = H;
unicode = 00CB;
},
{
glyphname = Edotaccent;
layers = (
{
anchors = (
{
name = bottom;
position = "{330, 0}";
},
{
name = top;
position = "{327, 700}";
}
);
hints = (
{
horizontal = 1;
origin = "{1, 0}";
target = "{1, 1}";
},
{
horizontal = 1;
origin = "{0, 0}";
target = "{0, 1}";
},
{
origin = "{0, 7}";
target = "{0, 2}";
},
{
horizontal = 1;
origin = "{0, 5}";
target = "{0, 4}";
}
);
layerId = "262880E7-CFE1-4BDA-902E-E24798F3240A";
paths = (
{
closed = 1;
nodes = (
"548 0 LINE",
"548 21 LINE",
"139 21 LINE",
"139 679 LINE",
"548 679 LINE",
"548 700 LINE",
"117 700 LINE",
"117 0 LINE"
);
},
{
closed = 1;
nodes = (
"439 340 LINE",
"439 361 LINE",
"128 361 LINE",
"128 340 LINE"
);
},
{
closed = 1;
nodes = (
"348 819 OFFCURVE",
"368 837 OFFCURVE",
"368 860 CURVE SMOOTH",
"368 882 OFFCURVE",
"348 900 OFFCURVE",
"326 900 CURVE SMOOTH",
"304 900 OFFCURVE",
"284 882 OFFCURVE",
"284 860 CURVE SMOOTH",
"284 837 OFFCURVE",
"303 819 OFFCURVE",
"326 819 CURVE SMOOTH"
);
}
);
width = 620;
},
{
anchors = (
{
name = bottom;
position = "{300, 0}";
},
{
name = top;
position = "{291, 700}";
}
);
layerId = "FFFA8D72-12AC-4CE0-B2CA-57A29829F4DA";
paths = (
{
closed = 1;
nodes = (
"546 0 LINE",
"546 161 LINE",
"227 161 LINE",
"227 539 LINE",
"546 539 LINE",
"546 700 LINE",
"39 700 LINE",
"39 0 LINE"
);
},
{
closed = 1;
nodes = (
"432 275 LINE",
"432 435 LINE",
"115 435 LINE",
"115 275 LINE"
);
},
{
closed = 1;
nodes = (
"356 735 OFFCURVE",
"403 782 OFFCURVE",
"403 840 CURVE SMOOTH",
"403 898 OFFCURVE",
"348 944 OFFCURVE",
"291 944 CURVE SMOOTH",
"235 944 OFFCURVE",
"179 898 OFFCURVE",
"179 840 CURVE SMOOTH",
"179 782 OFFCURVE",
"226 735 OFFCURVE",
"291 735 CURVE SMOOTH"
);
}
);
width = 570;
},
{
anchors = (
{
name = bottom;
position = "{230, 0}";
},
{
name = top;
position = "{232, 700}";
}
);
layerId = "DCBE1F7B-116A-43E0-B7B4-8657BA77D8B5";
paths = (
{
closed = 1;
nodes = (
"373 0 LINE",
"373 21 LINE",
"113 21 LINE",
"113 679 LINE",
"373 679 LINE",
"373 700 LINE",
"91 700 LINE",
"91 0 LINE"
);
},
{
closed = 1;
nodes = (
"290 340 LINE",
"290 361 LINE",
"102 361 LINE",
"102 340 LINE"
);
},
{
closed = 1;
nodes = (
"249 819 OFFCURVE",
"265 837 OFFCURVE",
"265 860 CURVE SMOOTH",
"265 882 OFFCURVE",
"249 900 OFFCURVE",
"231 900 CURVE SMOOTH",
"213 900 OFFCURVE",
"197 882 OFFCURVE",
"197 860 CURVE SMOOTH",
"197 837 OFFCURVE",
"212 819 OFFCURVE",
"231 819 CURVE SMOOTH"
);
}
);
width = 423;
},
{
anchors = (
{
name = bottom;
position = "{218, 0}";
},
{
name = top;
position = "{227, 700}";
}
);
layerId = "4E2227F3-52E4-4048-A8EE-327B486EF0A4";
paths = (
{
closed = 1;
nodes = (
"426 0 LINE",
"426 161 LINE",
"214 161 LINE",
"214 539 LINE",
"426 539 LINE",
"426 700 LINE",
"26 700 LINE",
"26 0 LINE"
);
},
{
closed = 1;
nodes = (
"334 270 LINE",
"334 431 LINE",
"102 431 LINE",
"102 270 LINE"
);
},
{
closed = 1;
nodes = (
"289 735 OFFCURVE",
"332 782 OFFCURVE",
"332 840 CURVE SMOOTH",
"332 898 OFFCURVE",
"280 944 OFFCURVE",
"227 944 CURVE SMOOTH",
"174 944 OFFCURVE",
"122 898 OFFCURVE",
"122 840 CURVE SMOOTH",
"122 782 OFFCURVE",
"165 735 OFFCURVE",
"227 735 CURVE SMOOTH"
);
}
);
width = 444;
}
);
leftKerningGroup = H;
unicode = 0116;
},
{
glyphname = Egrave;
layers = (
{
anchors = (
{
name = bottom;
position = "{330, 0}";
},
{
name = top;
position = "{327, 700}";
}
);
hints = (
{
horizontal = 1;
origin = "{1, 0}";
target = "{1, 1}";
},
{
horizontal = 1;
origin = "{0, 0}";
target = "{0, 1}";
},
{
origin = "{0, 7}";
target = "{0, 2}";
},
{
horizontal = 1;
origin = "{0, 5}";
target = "{0, 4}";
}
);
layerId = "262880E7-CFE1-4BDA-902E-E24798F3240A";
paths = (
{
closed = 1;
nodes = (
"548 0 LINE",
"548 21 LINE",
"139 21 LINE",
"139 679 LINE",
"548 679 LINE",
"548 700 LINE",
"117 700 LINE",
"117 0 LINE"
);
},
{
closed = 1;
nodes = (
"439 340 LINE",
"439 361 LINE",
"128 361 LINE",
"128 340 LINE"
);
},
{
closed = 1;
nodes = (
"260 900 LINE",
"236 900 LINE",
"311 769 LINE",
"333 769 LINE"
);
}
);
width = 620;
},
{
anchors = (
{
name = bottom;
position = "{300, 0}";
},
{
name = top;
position = "{291, 700}";
}
);
layerId = "FFFA8D72-12AC-4CE0-B2CA-57A29829F4DA";
paths = (
{
closed = 1;
nodes = (
"546 0 LINE",
"546 161 LINE",
"227 161 LINE",
"227 539 LINE",
"546 539 LINE",
"546 700 LINE",
"39 700 LINE",
"39 0 LINE"
);
},
{
closed = 1;
nodes = (
"432 275 LINE",
"432 435 LINE",
"115 435 LINE",
"115 275 LINE"
);
},
{
closed = 1;
nodes = (
"314 880 LINE",
"108 880 LINE",
"199 759 LINE",
"378 759 LINE"
);
}
);
width = 570;
},
{
anchors = (
{
name = bottom;
position = "{230, 0}";
},
{
name = top;
position = "{232, 700}";
}
);
layerId = "DCBE1F7B-116A-43E0-B7B4-8657BA77D8B5";
paths = (
{
closed = 1;
nodes = (
"373 0 LINE",
"373 21 LINE",
"113 21 LINE",
"113 679 LINE",
"373 679 LINE",
"373 700 LINE",
"91 700 LINE",
"91 0 LINE"
);
},
{
closed = 1;
nodes = (
"290 340 LINE",
"290 361 LINE",
"102 361 LINE",
"102 340 LINE"
);
},
{
closed = 1;
nodes = (
"171 900 LINE",
"147 900 LINE",
"222 769 LINE",
"244 769 LINE"
);
}
);
width = 423;
},
{
anchors = (
{
name = bottom;
position = "{218, 0}";
},
{
name = top;
position = "{227, 700}";
}
);
layerId = "4E2227F3-52E4-4048-A8EE-327B486EF0A4";
paths = (
{
closed = 1;
nodes = (
"426 0 LINE",
"426 161 LINE",
"214 161 LINE",
"214 539 LINE",
"426 539 LINE",
"426 700 LINE",
"26 700 LINE",
"26 0 LINE"
);
},
{
closed = 1;
nodes = (
"334 270 LINE",
"334 431 LINE",
"102 431 LINE",
"102 270 LINE"
);
},
{
closed = 1;
nodes = (
"232 880 LINE",
"54 880 LINE",
"153 759 LINE",
"304 759 LINE"
);
}
);
width = 444;
}
);
leftKerningGroup = H;
unicode = 00C8;
},
{
glyphname = Emacron;
layers = (
{
anchors = (
{
name = bottom;
position = "{330, 0}";
},
{
name = top;
position = "{327, 700}";
}
);
hints = (
{
horizontal = 1;
origin = "{1, 0}";
target = "{1, 1}";
},
{
horizontal = 1;
origin = "{0, 0}";
target = "{0, 1}";
},
{
origin = "{0, 7}";
target = "{0, 2}";
},
{
horizontal = 1;
origin = "{0, 5}";
target = "{0, 4}";
}
);
layerId = "262880E7-CFE1-4BDA-902E-E24798F3240A";
paths = (
{
closed = 1;
nodes = (
"548 0 LINE",
"548 21 LINE",
"139 21 LINE",
"139 679 LINE",
"548 679 LINE",
"548 700 LINE",
"117 700 LINE",
"117 0 LINE"
);
},
{
closed = 1;
nodes = (
"439 340 LINE",
"439 361 LINE",
"128 361 LINE",
"128 340 LINE"
);
},
{
closed = 1;
nodes = (
"453 805 LINE",
"453 826 LINE",
"202 826 LINE",
"202 805 LINE"
);
}
);
width = 620;
},
{
anchors = (
{
name = bottom;
position = "{300, 0}";
},
{
name = top;
position = "{291, 700}";
}
);
layerId = "FFFA8D72-12AC-4CE0-B2CA-57A29829F4DA";
paths = (
{
closed = 1;
nodes = (
"546 0 LINE",
"546 161 LINE",
"227 161 LINE",
"227 539 LINE",
"546 539 LINE",
"546 700 LINE",
"39 700 LINE",
"39 0 LINE"
);
},
{
closed = 1;
nodes = (
"432 275 LINE",
"432 435 LINE",
"115 435 LINE",
"115 275 LINE"
);
},
{
closed = 1;
nodes = (
"447 747 LINE",
"447 872 LINE",
"136 872 LINE",
"136 747 LINE"
);
}
);
width = 570;
},
{
anchors = (
{
name = bottom;
position = "{230, 0}";
},
{
name = top;
position = "{232, 700}";
}
);
layerId = "DCBE1F7B-116A-43E0-B7B4-8657BA77D8B5";
paths = (
{
closed = 1;
nodes = (
"373 0 LINE",
"373 21 LINE",
"113 21 LINE",
"113 679 LINE",
"373 679 LINE",
"373 700 LINE",
"91 700 LINE",
"91 0 LINE"
);
},
{
closed = 1;
nodes = (
"290 340 LINE",
"290 361 LINE",
"102 361 LINE",
"102 340 LINE"
);
},
{
closed = 1;
nodes = (
"328 805 LINE",
"328 826 LINE",
"137 826 LINE",
"137 805 LINE"
);
}
);
width = 423;
},
{
anchors = (
{
name = bottom;
position = "{218, 0}";
},
{
name = top;
position = "{227, 700}";
}
);
layerId = "4E2227F3-52E4-4048-A8EE-327B486EF0A4";
paths = (
{
closed = 1;
nodes = (
"426 0 LINE",
"426 161 LINE",
"214 161 LINE",
"214 539 LINE",
"426 539 LINE",
"426 700 LINE",
"26 700 LINE",
"26 0 LINE"
);
},
{
closed = 1;
nodes = (
"334 270 LINE",
"334 431 LINE",
"102 431 LINE",
"102 270 LINE"
);
},
{
closed = 1;
nodes = (
"337 752 LINE",
"337 877 LINE",
"106 877 LINE",
"106 752 LINE"
);
}
);
width = 444;
}
);
leftKerningGroup = H;
unicode = 0112;
},
{
glyphname = Eogonek;
layers = (
{
anchors = (
{
name = bottom;
position = "{330, 0}";
},
{
name = top;
position = "{327, 700}";
}
);
hints = (
{
horizontal = 1;
origin = "{1, 0}";
target = "{1, 1}";
},
{
horizontal = 1;
origin = "{0, 0}";
target = "{0, 1}";
},
{
origin = "{0, 7}";
target = "{0, 2}";
},
{
horizontal = 1;
origin = "{0, 5}";
target = "{0, 4}";
}
);
layerId = "262880E7-CFE1-4BDA-902E-E24798F3240A";
paths = (
{
closed = 1;
nodes = (
"548 0 LINE",
"548 21 LINE",
"139 21 LINE",
"139 679 LINE",
"548 679 LINE",
"548 700 LINE",
"117 700 LINE",
"117 0 LINE"
);
},
{
closed = 1;
nodes = (
"439 340 LINE",
"439 361 LINE",
"128 361 LINE",
"128 340 LINE"
);
},
{
closed = 1;
nodes = (
"374 -154 LINE",
"334 -164 OFFCURVE",
"292 -158 OFFCURVE",
"284 -114 CURVE SMOOTH",
"276 -69 OFFCURVE",
"311 -26 OFFCURVE",
"348 4 CURVE",
"326 4 LINE",
"268 -38 OFFCURVE",
"254 -81 OFFCURVE",
"262 -120 CURVE SMOOTH",
"274 -178 OFFCURVE",
"333 -185 OFFCURVE",
"380 -174 CURVE"
);
}
);
width = 620;
},
{
anchors = (
{
name = bottom;
position = "{300, 0}";
},
{
name = top;
position = "{291, 700}";
}
);
layerId = "FFFA8D72-12AC-4CE0-B2CA-57A29829F4DA";
paths = (
{
closed = 1;
nodes = (
"546 0 LINE",
"546 161 LINE",
"227 161 LINE",
"227 539 LINE",
"546 539 LINE",
"546 700 LINE",
"39 700 LINE",
"39 0 LINE"
);
},
{
closed = 1;
nodes = (
"432 275 LINE",
"432 435 LINE",
"115 435 LINE",
"115 275 LINE"
);
},
{
closed = 1;
nodes = (
"367 -65 LINE",
"344 -82 OFFCURVE",
"318 -79 OFFCURVE",
"312 -61 CURVE SMOOTH",
"305 -41 OFFCURVE",
"329 -13 OFFCURVE",
"379 18 CURVE",
"253 18 LINE",
"201 -23 OFFCURVE",
"181 -69 OFFCURVE",
"194 -113 CURVE SMOOTH",
"221 -207 OFFCURVE",
"344 -181 OFFCURVE",
"379 -160 CURVE"
);
}
);
width = 570;
},
{
anchors = (
{
name = bottom;
position = "{230, 0}";
},
{
name = top;
position = "{232, 700}";
}
);
layerId = "DCBE1F7B-116A-43E0-B7B4-8657BA77D8B5";
paths = (
{
closed = 1;
nodes = (
"373 0 LINE",
"373 21 LINE",
"113 21 LINE",
"113 679 LINE",
"373 679 LINE",
"373 700 LINE",
"91 700 LINE",
"91 0 LINE"
);
},
{
closed = 1;
nodes = (
"290 340 LINE",
"290 361 LINE",
"102 361 LINE",
"102 340 LINE"
);
},
{
closed = 1;
nodes = (
"265 -153 LINE",
"233 -163 OFFCURVE",
"199 -157 OFFCURVE",
"193 -113 CURVE SMOOTH",
"187 -68 OFFCURVE",
"215 -25 OFFCURVE",
"246 5 CURVE",
"224 5 LINE",
"176 -35 OFFCURVE",
"166 -80 OFFCURVE",
"172 -119 CURVE SMOOTH",
"181 -177 OFFCURVE",
"232 -184 OFFCURVE",
"270 -173 CURVE"
);
}
);
width = 423;
},
{
anchors = (
{
name = bottom;
position = "{218, 0}";
},
{
name = top;
position = "{227, 700}";
}
);
layerId = "4E2227F3-52E4-4048-A8EE-327B486EF0A4";
paths = (
{
closed = 1;
nodes = (
"426 0 LINE",
"426 161 LINE",
"214 161 LINE",
"214 539 LINE",
"426 539 LINE",
"426 700 LINE",
"26 700 LINE",
"26 0 LINE"
);
},
{
closed = 1;
nodes = (
"334 270 LINE",
"334 431 LINE",
"102 431 LINE",
"102 270 LINE"
);
},
{
closed = 1;
nodes = (
"274 -82 LINE",
"260 -90 OFFCURVE",
"244 -87 OFFCURVE",
"239 -69 CURVE SMOOTH",
"234 -49 OFFCURVE",
"253 -21 OFFCURVE",
"293 10 CURVE",
"171 10 LINE",
"128 -31 OFFCURVE",
"113 -77 OFFCURVE",
"124 -121 CURVE SMOOTH",
"147 -212 OFFCURVE",
"262 -182 OFFCURVE",
"285 -172 CURVE"
);
}
);
width = 444;
}
);
leftKerningGroup = H;
leftMetricsKey = "=E";
rightMetricsKey = "=E";
unicode = 0118;
},
{
glyphname = F;
layers = (
{
hints = (
{
horizontal = 1;
origin = "{0, 3}";
target = "{0, 2}";
},
{
horizontal = 1;
origin = "{1, 0}";
target = "{1, 1}";
},
{
origin = "{0, 5}";
target = "{0, 0}";
}
);
layerId = "262880E7-CFE1-4BDA-902E-E24798F3240A";
paths = (
{
closed = 1;
nodes = (
"139 0 LINE",
"139 679 LINE",
"547 679 LINE",
"547 700 LINE",
"117 700 LINE",
"117 0 LINE"
);
},
{
closed = 1;
nodes = (
"438 340 LINE",
"438 361 LINE",
"128 361 LINE",
"128 340 LINE"
);
}
);
width = 574;
},
{
layerId = "4E2227F3-52E4-4048-A8EE-327B486EF0A4";
paths = (
{
closed = 1;
nodes = (
"214 0 LINE",
"214 539 LINE",
"426 539 LINE",
"426 700 LINE",
"26 700 LINE",
"26 0 LINE"
);
},
{
closed = 1;
nodes = (
"334 270 LINE",
"334 431 LINE",
"102 431 LINE",
"102 270 LINE"
);
}
);
width = 432;
},
{
layerId = "FFFA8D72-12AC-4CE0-B2CA-57A29829F4DA";
paths = (
{
closed = 1;
nodes = (
"227 0 LINE",
"227 539 LINE",
"545 539 LINE",
"545 700 LINE",
"39 700 LINE",
"39 0 LINE"
);
},
{
closed = 1;
nodes = (
"432 275 LINE",
"432 435 LINE",
"115 435 LINE",
"115 275 LINE"
);
}
);
width = 554;
},
{
layerId = "DCBE1F7B-116A-43E0-B7B4-8657BA77D8B5";
paths = (
{
closed = 1;
nodes = (
"113 0 LINE",
"113 679 LINE",
"371 679 LINE",
"371 700 LINE",
"91 700 LINE",
"91 0 LINE"
);
},
{
closed = 1;
nodes = (
"289 340 LINE",
"289 361 LINE",
"102 361 LINE",
"102 340 LINE"
);
}
);
width = 392;
}
);
leftKerningGroup = H;
rightKerningGroup = F;
unicode = 0046;
},
{
color = 3;
glyphname = G;
layers = (
{
anchors = (
{
name = bottom;
position = "{218, -8}";
},
{
name = top;
position = "{219, 700}";
}
);
layerId = "DCBE1F7B-116A-43E0-B7B4-8657BA77D8B5";
paths = (
{
closed = 1;
nodes = (
"309 -8 OFFCURVE",
"369 52 OFFCURVE",
"369 144 CURVE SMOOTH",
"369 332 LINE",
"226 332 LINE",
"226 311 LINE",
"347 311 LINE",
"347 143 LINE SMOOTH",
"347 65 OFFCURVE",
"296 13 OFFCURVE",
"219 13 CURVE SMOOTH",
"143 13 OFFCURVE",
"92 65 OFFCURVE",
"92 143 CURVE SMOOTH",
"92 557 LINE SMOOTH",
"92 635 OFFCURVE",
"143 687 OFFCURVE",
"219 687 CURVE SMOOTH",
"296 687 OFFCURVE",
"347 635 OFFCURVE",
"347 557 CURVE SMOOTH",
"347 500 LINE",
"369 500 LINE",
"369 556 LINE SMOOTH",
"369 648 OFFCURVE",
"309 708 OFFCURVE",
"219 708 CURVE SMOOTH",
"130 708 OFFCURVE",
"70 648 OFFCURVE",
"70 556 CURVE SMOOTH",
"70 144 LINE SMOOTH",
"70 52 OFFCURVE",
"130 -8 OFFCURVE",
"219 -8 CURVE SMOOTH"
);
}
);
width = 439;
},
{
anchors = (
{
name = bottom;
position = "{236, -8}";
},
{
name = top;
position = "{239, 700}";
}
);
layerId = "4E2227F3-52E4-4048-A8EE-327B486EF0A4";
paths = (
{
closed = 1;
nodes = (
"370 -8 OFFCURVE",
"458 72 OFFCURVE",
"458 196 CURVE SMOOTH",
"458 395 LINE",
"241 395 LINE",
"241 250 LINE",
"270 250 LINE",
"270 195 LINE SMOOTH",
"270 170 OFFCURVE",
"258 153 OFFCURVE",
"239 153 CURVE SMOOTH",
"220 153 OFFCURVE",
"208 170 OFFCURVE",
"208 195 CURVE SMOOTH",
"208 505 LINE SMOOTH",
"208 530 OFFCURVE",
"220 547 OFFCURVE",
"239 547 CURVE SMOOTH",
"258 547 OFFCURVE",
"270 530 OFFCURVE",
"270 505 CURVE SMOOTH",
"270 455 LINE",
"458 455 LINE",
"458 503 LINE SMOOTH",
"458 628 OFFCURVE",
"370 708 OFFCURVE",
"239 708 CURVE SMOOTH",
"107 708 OFFCURVE",
"20 629 OFFCURVE",
"20 505 CURVE SMOOTH",
"20 196 LINE SMOOTH",
"20 72 OFFCURVE",
"107 -8 OFFCURVE",
"239 -8 CURVE SMOOTH"
);
}
);
width = 478;
},
{
anchors = (
{
name = bottom;
position = "{224, -8}";
},
{
name = top;
position = "{228, 700}";
}
);
associatedMasterId = "4E2227F3-52E4-4048-A8EE-327B486EF0A4";
layerId = "8F788E01-B0E4-440E-90D9-C7ECABE182EE";
name = "{100,300}";
paths = (
{
closed = 1;
nodes = (
"337 -8 OFFCURVE",
"411 61 OFFCURVE",
"411 168 CURVE SMOOTH",
"411 364 LINE",
"223 364 LINE",
"223 278 LINE",
"311 278 LINE",
"311 167 LINE SMOOTH",
"311 114 OFFCURVE",
"278 78 OFFCURVE",
"228 78 CURVE SMOOTH",
"179 78 OFFCURVE",
"146 114 OFFCURVE",
"146 167 CURVE SMOOTH",
"146 533 LINE SMOOTH",
"146 586 OFFCURVE",
"179 622 OFFCURVE",
"228 622 CURVE SMOOTH",
"278 622 OFFCURVE",
"311 586 OFFCURVE",
"311 533 CURVE SMOOTH",
"311 479 LINE",
"411 479 LINE",
"411 531 LINE SMOOTH",
"411 639 OFFCURVE",
"337 708 OFFCURVE",
"228 708 CURVE SMOOTH",
"119 708 OFFCURVE",
"47 639 OFFCURVE",
"47 532 CURVE SMOOTH",
"47 168 LINE SMOOTH",
"47 61 OFFCURVE",
"119 -8 OFFCURVE",
"228 -8 CURVE SMOOTH"
);
}
);
width = 458;
},
{
anchors = (
{
name = bottom;
position = "{306, -8}";
},
{
name = top;
position = "{306, 700}";
}
);
hints = (
{
origin = "{0, 29}";
target = "{0, 14}";
},
{
horizontal = 1;
origin = "{0, 26}";
target = "{0, 17}";
},
{
origin = "{0, 21}";
target = "{0, 22}";
},
{
horizontal = 1;
origin = "{0, 5}";
target = "{0, 4}";
},
{
horizontal = 1;
origin = "{0, 33}";
target = "{0, 10}";
}
);
layerId = "262880E7-CFE1-4BDA-902E-E24798F3240A";
paths = (
{
closed = 1;
nodes = (
"438 -8 OFFCURVE",
"524 73 OFFCURVE",
"524 194 CURVE SMOOTH",
"524 337 LINE",
"317 337 LINE",
"317 316 LINE",
"502 316 LINE",
"502 193 LINE SMOOTH",
"502 85 OFFCURVE",
"424 13 OFFCURVE",
"308 13 CURVE SMOOTH",
"190 13 OFFCURVE",
"112 85 OFFCURVE",
"112 193 CURVE SMOOTH",
"112 507 LINE SMOOTH",
"112 615 OFFCURVE",
"190 687 OFFCURVE",
"308 687 CURVE SMOOTH",
"424 687 OFFCURVE",
"502 615 OFFCURVE",
"502 507 CURVE SMOOTH",
"502 480 LINE",
"524 480 LINE",
"524 506 LINE SMOOTH",
"524 627 OFFCURVE",
"438 708 OFFCURVE",
"308 708 CURVE SMOOTH",
"177 708 OFFCURVE",
"90 627 OFFCURVE",
"90 506 CURVE SMOOTH",
"90 194 LINE SMOOTH",
"90 73 OFFCURVE",
"177 -8 OFFCURVE",
"308 -8 CURVE SMOOTH"
);
}
);
width = 614;
},
{
anchors = (
{
name = bottom;
position = "{306, -8}";
},
{
name = top;
position = "{306, 708}";
}
);
layerId = "FFFA8D72-12AC-4CE0-B2CA-57A29829F4DA";
paths = (
{
closed = 1;
nodes = (
"471 -8 OFFCURVE",
"581 96 OFFCURVE",
"581 246 CURVE SMOOTH",
"581 398 LINE",
"290 398 LINE",
"290 248 LINE",
"398 248 LINE",
"398 230 LINE",
"398 180 OFFCURVE",
"362 153 OFFCURVE",
"314 153 CURVE SMOOTH",
"261 153 OFFCURVE",
"218 192 OFFCURVE",
"218 250 CURVE SMOOTH",
"218 450 LINE SMOOTH",
"218 508 OFFCURVE",
"253 547 OFFCURVE",
"306 547 CURVE SMOOTH",
"363 547 OFFCURVE",
"394 508 OFFCURVE",
"394 466 CURVE SMOOTH",
"394 457 LINE",
"581 457 LINE",
"581 473 LINE SMOOTH",
"581 602 OFFCURVE",
"471 708 OFFCURVE",
"306 708 CURVE",
"140 708 OFFCURVE",
"30 603 OFFCURVE",
"30 445 CURVE SMOOTH",
"30 256 LINE SMOOTH",
"30 98 OFFCURVE",
"140 -8 OFFCURVE",
"306 -8 CURVE SMOOTH"
);
}
);
width = 611;
},
{
anchors = (
{
name = bottom;
position = "{306, -8}";
},
{
name = top;
position = "{306, 700}";
}
);
associatedMasterId = "4E2227F3-52E4-4048-A8EE-327B486EF0A4";
hints = (
{
origin = "{0, 29}";
target = "{0, 14}";
},
{
horizontal = 1;
origin = "{0, 26}";
target = "{0, 17}";
},
{
origin = "{0, 21}";
target = "{0, 22}";
},
{
horizontal = 1;
origin = "{0, 5}";
target = "{0, 4}";
},
{
horizontal = 1;
origin = "{0, 33}";
target = "{0, 10}";
}
);
layerId = "A647F3C7-5120-453C-B94E-0D3288838C7D";
name = "{100,500}";
paths = (
{
closed = 1;
nodes = (
"454 -8 OFFCURVE",
"551 75 OFFCURVE",
"551 233 CURVE SMOOTH",
"551 370 LINE",
"304 370 LINE",
"304 284 LINE",
"451 284 LINE",
"451 206 LINE SMOOTH",
"451 126 OFFCURVE",
"397 79 OFFCURVE",
"311 79 CURVE SMOOTH",
"223 79 OFFCURVE",
"162 135 OFFCURVE",
"162 220 CURVE SMOOTH",
"162 480 LINE SMOOTH",
"162 565 OFFCURVE",
"220 621 OFFCURVE",
"307 621 CURVE SMOOTH",
"395 621 OFFCURVE",
"451 565 OFFCURVE",
"451 488 CURVE SMOOTH",
"451 469 LINE",
"551 469 LINE",
"551 490 LINE SMOOTH",
"551 615 OFFCURVE",
"454 708 OFFCURVE",
"307 708 CURVE SMOOTH",
"160 708 OFFCURVE",
"62 616 OFFCURVE",
"62 477 CURVE SMOOTH",
"62 223 LINE SMOOTH",
"62 85 OFFCURVE",
"160 -8 OFFCURVE",
"307 -8 CURVE SMOOTH"
);
}
);
width = 613;
}
);
leftKerningGroup = O;
leftMetricsKey = "=O";
rightKerningGroup = O;
rightMetricsKey = "=O";
unicode = 0047;
},
{
glyphname = Gbreve;
layers = (
{
anchors = (
{
name = bottom;
position = "{306, -8}";
},
{
name = top;
position = "{306, 700}";
}
);
hints = (
{
origin = "{0, 29}";
target = "{0, 14}";
},
{
horizontal = 1;
origin = "{0, 26}";
target = "{0, 17}";
},
{
origin = "{0, 21}";
target = "{0, 22}";
},
{
horizontal = 1;
origin = "{0, 5}";
target = "{0, 4}";
},
{
horizontal = 1;
origin = "{0, 33}";
target = "{0, 10}";
},
{
horizontal = 1;
origin = "{1, 13}";
target = "{1, 6}";
},
{
origin = "{1, 10}";
target = "{1, 9}";
},
{
origin = "{1, 3}";
target = "{1, 2}";
}
);
layerId = "262880E7-CFE1-4BDA-902E-E24798F3240A";
paths = (
{
closed = 1;
nodes = (
"438 -8 OFFCURVE",
"524 73 OFFCURVE",
"524 194 CURVE SMOOTH",
"524 337 LINE",
"317 337 LINE",
"317 316 LINE",
"502 316 LINE",
"502 193 LINE SMOOTH",
"502 85 OFFCURVE",
"424 13 OFFCURVE",
"308 13 CURVE SMOOTH",
"190 13 OFFCURVE",
"112 85 OFFCURVE",
"112 193 CURVE SMOOTH",
"112 507 LINE SMOOTH",
"112 615 OFFCURVE",
"190 687 OFFCURVE",
"308 687 CURVE SMOOTH",
"424 687 OFFCURVE",
"502 615 OFFCURVE",
"502 507 CURVE SMOOTH",
"502 480 LINE",
"524 480 LINE",
"524 506 LINE SMOOTH",
"524 627 OFFCURVE",
"438 708 OFFCURVE",
"308 708 CURVE SMOOTH",
"177 708 OFFCURVE",
"90 627 OFFCURVE",
"90 506 CURVE SMOOTH",
"90 194 LINE SMOOTH",
"90 73 OFFCURVE",
"177 -8 OFFCURVE",
"308 -8 CURVE SMOOTH"
);
},
{
closed = 1;
nodes = (
"361 764 OFFCURVE",
"405 807 OFFCURVE",
"405 861 CURVE",
"383 861 LINE",
"383 818 OFFCURVE",
"348 785 OFFCURVE",
"306 785 CURVE SMOOTH",
"264 785 OFFCURVE",
"229 818 OFFCURVE",
"229 861 CURVE",
"207 861 LINE",
"207 807 OFFCURVE",
"251 764 OFFCURVE",
"306 764 CURVE SMOOTH"
);
}
);
width = 614;
},
{
anchors = (
{
name = bottom;
position = "{306, -8}";
},
{
name = top;
position = "{306, 708}";
}
);
layerId = "FFFA8D72-12AC-4CE0-B2CA-57A29829F4DA";
paths = (
{
closed = 1;
nodes = (
"471 -8 OFFCURVE",
"581 96 OFFCURVE",
"581 246 CURVE SMOOTH",
"581 398 LINE",
"290 398 LINE",
"290 248 LINE",
"398 248 LINE",
"398 230 LINE",
"398 180 OFFCURVE",
"362 153 OFFCURVE",
"314 153 CURVE SMOOTH",
"261 153 OFFCURVE",
"218 192 OFFCURVE",
"218 250 CURVE SMOOTH",
"218 450 LINE SMOOTH",
"218 508 OFFCURVE",
"253 547 OFFCURVE",
"306 547 CURVE SMOOTH",
"363 547 OFFCURVE",
"394 508 OFFCURVE",
"394 466 CURVE SMOOTH",
"394 457 LINE",
"581 457 LINE",
"581 473 LINE SMOOTH",
"581 602 OFFCURVE",
"471 708 OFFCURVE",
"306 708 CURVE",
"140 708 OFFCURVE",
"30 603 OFFCURVE",
"30 445 CURVE SMOOTH",
"30 256 LINE SMOOTH",
"30 98 OFFCURVE",
"140 -8 OFFCURVE",
"306 -8 CURVE SMOOTH"
);
},
{
closed = 1;
nodes = (
"393 745 OFFCURVE",
"462 806 OFFCURVE",
"462 888 CURVE",
"351 888 LINE",
"351 859 OFFCURVE",
"331 836 OFFCURVE",
"306 836 CURVE SMOOTH",
"281 836 OFFCURVE",
"261 859 OFFCURVE",
"261 888 CURVE",
"150 888 LINE",
"150 806 OFFCURVE",
"219 745 OFFCURVE",
"306 745 CURVE SMOOTH"
);
}
);
width = 611;
},
{
anchors = (
{
name = bottom;
position = "{218, -8}";
},
{
name = top;
position = "{219, 700}";
}
);
layerId = "DCBE1F7B-116A-43E0-B7B4-8657BA77D8B5";
paths = (
{
closed = 1;
nodes = (
"309 -8 OFFCURVE",
"369 52 OFFCURVE",
"369 144 CURVE SMOOTH",
"369 332 LINE",
"226 332 LINE",
"226 311 LINE",
"347 311 LINE",
"347 143 LINE SMOOTH",
"347 65 OFFCURVE",
"296 13 OFFCURVE",
"219 13 CURVE SMOOTH",
"143 13 OFFCURVE",
"92 65 OFFCURVE",
"92 143 CURVE SMOOTH",
"92 557 LINE SMOOTH",
"92 635 OFFCURVE",
"143 687 OFFCURVE",
"219 687 CURVE SMOOTH",
"296 687 OFFCURVE",
"347 635 OFFCURVE",
"347 557 CURVE SMOOTH",
"347 500 LINE",
"369 500 LINE",
"369 556 LINE SMOOTH",
"369 648 OFFCURVE",
"309 708 OFFCURVE",
"219 708 CURVE SMOOTH",
"130 708 OFFCURVE",
"70 648 OFFCURVE",
"70 556 CURVE SMOOTH",
"70 144 LINE SMOOTH",
"70 52 OFFCURVE",
"130 -8 OFFCURVE",
"219 -8 CURVE SMOOTH"
);
},
{
closed = 1;
nodes = (
"272 764 OFFCURVE",
"313 807 OFFCURVE",
"313 861 CURVE",
"292 861 LINE",
"292 818 OFFCURVE",
"259 785 OFFCURVE",
"219 785 CURVE SMOOTH",
"179 785 OFFCURVE",
"146 818 OFFCURVE",
"146 861 CURVE",
"125 861 LINE",
"125 807 OFFCURVE",
"167 764 OFFCURVE",
"219 764 CURVE SMOOTH"
);
}
);
width = 439;
},
{
anchors = (
{
name = bottom;
position = "{236, -8}";
},
{
name = top;
position = "{239, 700}";
}
);
layerId = "4E2227F3-52E4-4048-A8EE-327B486EF0A4";
paths = (
{
closed = 1;
nodes = (
"370 -8 OFFCURVE",
"458 72 OFFCURVE",
"458 196 CURVE SMOOTH",
"458 395 LINE",
"241 395 LINE",
"241 250 LINE",
"270 250 LINE",
"270 195 LINE SMOOTH",
"270 170 OFFCURVE",
"258 153 OFFCURVE",
"239 153 CURVE SMOOTH",
"220 153 OFFCURVE",
"208 170 OFFCURVE",
"208 195 CURVE SMOOTH",
"208 505 LINE SMOOTH",
"208 530 OFFCURVE",
"220 547 OFFCURVE",
"239 547 CURVE SMOOTH",
"258 547 OFFCURVE",
"270 530 OFFCURVE",
"270 505 CURVE SMOOTH",
"270 455 LINE",
"458 455 LINE",
"458 503 LINE SMOOTH",
"458 628 OFFCURVE",
"370 708 OFFCURVE",
"239 708 CURVE SMOOTH",
"107 708 OFFCURVE",
"20 629 OFFCURVE",
"20 505 CURVE SMOOTH",
"20 196 LINE SMOOTH",
"20 72 OFFCURVE",
"107 -8 OFFCURVE",
"239 -8 CURVE SMOOTH"
);
},
{
closed = 1;
nodes = (
"318 723 OFFCURVE",
"370 773 OFFCURVE",
"370 849 CURVE",
"275 849 LINE",
"275 820 OFFCURVE",
"261 801 OFFCURVE",
"239 801 CURVE SMOOTH",
"217 801 OFFCURVE",
"203 820 OFFCURVE",
"203 849 CURVE",
"108 849 LINE",
"108 773 OFFCURVE",
"160 723 OFFCURVE",
"239 723 CURVE SMOOTH"
);
}
);
width = 478;
}
);
leftKerningGroup = O;
rightKerningGroup = O;
unicode = 011E;
},
{
glyphname = Gdotaccent;
layers = (
{
anchors = (
{
name = bottom;
position = "{306, -8}";
},
{
name = top;
position = "{306, 700}";
}
);
hints = (
{
origin = "{0, 29}";
target = "{0, 14}";
},
{
horizontal = 1;
origin = "{0, 26}";
target = "{0, 17}";
},
{
origin = "{0, 21}";
target = "{0, 22}";
},
{
horizontal = 1;
origin = "{0, 5}";
target = "{0, 4}";
},
{
horizontal = 1;
origin = "{0, 33}";
target = "{0, 10}";
}
);
layerId = "262880E7-CFE1-4BDA-902E-E24798F3240A";
paths = (
{
closed = 1;
nodes = (
"438 -8 OFFCURVE",
"524 73 OFFCURVE",
"524 194 CURVE SMOOTH",
"524 337 LINE",
"317 337 LINE",
"317 316 LINE",
"502 316 LINE",
"502 193 LINE SMOOTH",
"502 85 OFFCURVE",
"424 13 OFFCURVE",
"308 13 CURVE SMOOTH",
"190 13 OFFCURVE",
"112 85 OFFCURVE",
"112 193 CURVE SMOOTH",
"112 507 LINE SMOOTH",
"112 615 OFFCURVE",
"190 687 OFFCURVE",
"308 687 CURVE SMOOTH",
"424 687 OFFCURVE",
"502 615 OFFCURVE",
"502 507 CURVE SMOOTH",
"502 480 LINE",
"524 480 LINE",
"524 506 LINE SMOOTH",
"524 627 OFFCURVE",
"438 708 OFFCURVE",
"308 708 CURVE SMOOTH",
"177 708 OFFCURVE",
"90 627 OFFCURVE",
"90 506 CURVE SMOOTH",
"90 194 LINE SMOOTH",
"90 73 OFFCURVE",
"177 -8 OFFCURVE",
"308 -8 CURVE SMOOTH"
);
},
{
closed = 1;
nodes = (
"327 819 OFFCURVE",
"347 837 OFFCURVE",
"347 860 CURVE SMOOTH",
"347 882 OFFCURVE",
"327 900 OFFCURVE",
"305 900 CURVE SMOOTH",
"283 900 OFFCURVE",
"263 882 OFFCURVE",
"263 860 CURVE SMOOTH",
"263 837 OFFCURVE",
"282 819 OFFCURVE",
"305 819 CURVE SMOOTH"
);
}
);
width = 614;
},
{
anchors = (
{
name = bottom;
position = "{306, -8}";
},
{
name = top;
position = "{306, 708}";
}
);
layerId = "FFFA8D72-12AC-4CE0-B2CA-57A29829F4DA";
paths = (
{
closed = 1;
nodes = (
"471 -8 OFFCURVE",
"581 96 OFFCURVE",
"581 246 CURVE SMOOTH",
"581 398 LINE",
"290 398 LINE",
"290 248 LINE",
"398 248 LINE",
"398 230 LINE",
"398 180 OFFCURVE",
"362 153 OFFCURVE",
"314 153 CURVE SMOOTH",
"261 153 OFFCURVE",
"218 192 OFFCURVE",
"218 250 CURVE SMOOTH",
"218 450 LINE SMOOTH",
"218 508 OFFCURVE",
"253 547 OFFCURVE",
"306 547 CURVE SMOOTH",
"363 547 OFFCURVE",
"394 508 OFFCURVE",
"394 466 CURVE SMOOTH",
"394 457 LINE",
"581 457 LINE",
"581 473 LINE SMOOTH",
"581 602 OFFCURVE",
"471 708 OFFCURVE",
"306 708 CURVE",
"140 708 OFFCURVE",
"30 603 OFFCURVE",
"30 445 CURVE SMOOTH",
"30 256 LINE SMOOTH",
"30 98 OFFCURVE",
"140 -8 OFFCURVE",
"306 -8 CURVE SMOOTH"
);
},
{
closed = 1;
nodes = (
"371 743 OFFCURVE",
"418 790 OFFCURVE",
"418 848 CURVE SMOOTH",
"418 906 OFFCURVE",
"363 952 OFFCURVE",
"306 952 CURVE SMOOTH",
"250 952 OFFCURVE",
"194 906 OFFCURVE",
"194 848 CURVE SMOOTH",
"194 790 OFFCURVE",
"241 743 OFFCURVE",
"306 743 CURVE SMOOTH"
);
}
);
width = 611;
},
{
anchors = (
{
name = bottom;
position = "{218, -8}";
},
{
name = top;
position = "{219, 700}";
}
);
layerId = "DCBE1F7B-116A-43E0-B7B4-8657BA77D8B5";
paths = (
{
closed = 1;
nodes = (
"309 -8 OFFCURVE",
"369 52 OFFCURVE",
"369 144 CURVE SMOOTH",
"369 332 LINE",
"226 332 LINE",
"226 311 LINE",
"347 311 LINE",
"347 143 LINE SMOOTH",
"347 65 OFFCURVE",
"296 13 OFFCURVE",
"219 13 CURVE SMOOTH",
"143 13 OFFCURVE",
"92 65 OFFCURVE",
"92 143 CURVE SMOOTH",
"92 557 LINE SMOOTH",
"92 635 OFFCURVE",
"143 687 OFFCURVE",
"219 687 CURVE SMOOTH",
"296 687 OFFCURVE",
"347 635 OFFCURVE",
"347 557 CURVE SMOOTH",
"347 500 LINE",
"369 500 LINE",
"369 556 LINE SMOOTH",
"369 648 OFFCURVE",
"309 708 OFFCURVE",
"219 708 CURVE SMOOTH",
"130 708 OFFCURVE",
"70 648 OFFCURVE",
"70 556 CURVE SMOOTH",
"70 144 LINE SMOOTH",
"70 52 OFFCURVE",
"130 -8 OFFCURVE",
"219 -8 CURVE SMOOTH"
);
},
{
closed = 1;
nodes = (
"236 819 OFFCURVE",
"252 837 OFFCURVE",
"252 860 CURVE SMOOTH",
"252 882 OFFCURVE",
"236 900 OFFCURVE",
"218 900 CURVE SMOOTH",
"200 900 OFFCURVE",
"184 882 OFFCURVE",
"184 860 CURVE SMOOTH",
"184 837 OFFCURVE",
"199 819 OFFCURVE",
"218 819 CURVE SMOOTH"
);
}
);
width = 439;
},
{
anchors = (
{
name = bottom;
position = "{236, -8}";
},
{
name = top;
position = "{239, 700}";
}
);
layerId = "4E2227F3-52E4-4048-A8EE-327B486EF0A4";
paths = (
{
closed = 1;
nodes = (
"370 -8 OFFCURVE",
"458 72 OFFCURVE",
"458 196 CURVE SMOOTH",
"458 395 LINE",
"241 395 LINE",
"241 250 LINE",
"270 250 LINE",
"270 195 LINE SMOOTH",
"270 170 OFFCURVE",
"258 153 OFFCURVE",
"239 153 CURVE SMOOTH",
"220 153 OFFCURVE",
"208 170 OFFCURVE",
"208 195 CURVE SMOOTH",
"208 505 LINE SMOOTH",
"208 530 OFFCURVE",
"220 547 OFFCURVE",
"239 547 CURVE SMOOTH",
"258 547 OFFCURVE",
"270 530 OFFCURVE",
"270 505 CURVE SMOOTH",
"270 455 LINE",
"458 455 LINE",
"458 503 LINE SMOOTH",
"458 628 OFFCURVE",
"370 708 OFFCURVE",
"239 708 CURVE SMOOTH",
"107 708 OFFCURVE",
"20 629 OFFCURVE",
"20 505 CURVE SMOOTH",
"20 196 LINE SMOOTH",
"20 72 OFFCURVE",
"107 -8 OFFCURVE",
"239 -8 CURVE SMOOTH"
);
},
{
closed = 1;
nodes = (
"301 735 OFFCURVE",
"344 782 OFFCURVE",
"344 840 CURVE SMOOTH",
"344 898 OFFCURVE",
"292 944 OFFCURVE",
"239 944 CURVE SMOOTH",
"186 944 OFFCURVE",
"134 898 OFFCURVE",
"134 840 CURVE SMOOTH",
"134 782 OFFCURVE",
"177 735 OFFCURVE",
"239 735 CURVE SMOOTH"
);
}
);
width = 478;
}
);
leftKerningGroup = O;
rightKerningGroup = O;
unicode = 0120;
},
{
glyphname = H;
layers = (
{
anchors = (
{
name = strokelong;
position = "{336, 509}";
}
);
hints = (
{
origin = "{1, 2}";
target = "{1, 1}";
},
{
origin = "{0, 2}";
target = "{0, 1}";
},
{
horizontal = 1;
origin = "{2, 0}";
target = "{2, 1}";
}
);
layerId = "262880E7-CFE1-4BDA-902E-E24798F3240A";
paths = (
{
closed = 1;
nodes = (
"555 0 LINE",
"555 700 LINE",
"533 700 LINE",
"533 0 LINE"
);
},
{
closed = 1;
nodes = (
"139 0 LINE",
"139 700 LINE",
"117 700 LINE",
"117 0 LINE"
);
},
{
closed = 1;
nodes = (
"538 340 LINE",
"538 361 LINE",
"134 361 LINE",
"134 340 LINE"
);
}
);
width = 672;
},
{
anchors = (
{
name = strokelong;
position = "{243, 507}";
}
);
layerId = "4E2227F3-52E4-4048-A8EE-327B486EF0A4";
paths = (
{
closed = 1;
nodes = (
"460 0 LINE",
"460 700 LINE",
"272 700 LINE",
"272 0 LINE"
);
},
{
closed = 1;
nodes = (
"214 0 LINE",
"214 700 LINE",
"26 700 LINE",
"26 0 LINE"
);
},
{
closed = 1;
nodes = (
"362 270 LINE",
"362 431 LINE",
"127 431 LINE",
"127 270 LINE"
);
}
);
width = 486;
},
{
anchors = (
{
name = strokelong;
position = "{310, 506}";
}
);
layerId = "FFFA8D72-12AC-4CE0-B2CA-57A29829F4DA";
paths = (
{
closed = 1;
nodes = (
"581 0 LINE",
"581 700 LINE",
"393 700 LINE",
"393 0 LINE"
);
},
{
closed = 1;
nodes = (
"227 0 LINE",
"227 700 LINE",
"39 700 LINE",
"39 0 LINE"
);
},
{
closed = 1;
nodes = (
"462 274 LINE",
"462 435 LINE",
"160 435 LINE",
"160 274 LINE"
);
}
);
width = 611;
},
{
anchors = (
{
name = strokelong;
position = "{233, 508}";
}
);
layerId = "DCBE1F7B-116A-43E0-B7B4-8657BA77D8B5";
paths = (
{
closed = 1;
nodes = (
"375 0 LINE",
"375 700 LINE",
"353 700 LINE",
"353 0 LINE"
);
},
{
closed = 1;
nodes = (
"113 0 LINE",
"113 700 LINE",
"91 700 LINE",
"91 0 LINE"
);
},
{
closed = 1;
nodes = (
"360 340 LINE",
"360 361 LINE",
"108 361 LINE",
"108 340 LINE"
);
}
);
width = 466;
}
);
unicode = 0048;
},
{
glyphname = Hbar;
layers = (
{
anchors = (
{
name = strokelong;
position = "{336, 509}";
}
);
hints = (
{
origin = "{1, 2}";
target = "{1, 1}";
},
{
origin = "{0, 2}";
target = "{0, 1}";
},
{
horizontal = 1;
origin = "{2, 0}";
target = "{2, 1}";
}
);
layerId = "262880E7-CFE1-4BDA-902E-E24798F3240A";
paths = (
{
closed = 1;
nodes = (
"555 0 LINE",
"555 700 LINE",
"533 700 LINE",
"533 0 LINE"
);
},
{
closed = 1;
nodes = (
"139 0 LINE",
"139 700 LINE",
"117 700 LINE",
"117 0 LINE"
);
},
{
closed = 1;
nodes = (
"538 340 LINE",
"538 361 LINE",
"134 361 LINE",
"134 340 LINE"
);
},
{
closed = 1;
nodes = (
"618 509 LINE",
"618 530 LINE",
"54 530 LINE",
"54 509 LINE"
);
}
);
width = 672;
},
{
anchors = (
{
name = strokelong;
position = "{310, 506}";
}
);
layerId = "FFFA8D72-12AC-4CE0-B2CA-57A29829F4DA";
paths = (
{
closed = 1;
nodes = (
"581 0 LINE",
"581 700 LINE",
"393 700 LINE",
"393 0 LINE"
);
},
{
closed = 1;
nodes = (
"227 0 LINE",
"227 700 LINE",
"39 700 LINE",
"39 0 LINE"
);
},
{
closed = 1;
nodes = (
"462 274 LINE",
"462 435 LINE",
"160 435 LINE",
"160 274 LINE"
);
},
{
closed = 1;
nodes = (
"637 506 LINE",
"637 631 LINE",
"-17 631 LINE",
"-17 506 LINE"
);
}
);
width = 611;
},
{
anchors = (
{
name = strokelong;
position = "{233, 508}";
}
);
layerId = "DCBE1F7B-116A-43E0-B7B4-8657BA77D8B5";
paths = (
{
closed = 1;
nodes = (
"375 0 LINE",
"375 700 LINE",
"353 700 LINE",
"353 0 LINE"
);
},
{
closed = 1;
nodes = (
"113 0 LINE",
"113 700 LINE",
"91 700 LINE",
"91 0 LINE"
);
},
{
closed = 1;
nodes = (
"360 340 LINE",
"360 361 LINE",
"108 361 LINE",
"108 340 LINE"
);
},
{
closed = 1;
nodes = (
"423 508 LINE",
"423 529 LINE",
"43 529 LINE",
"43 508 LINE"
);
}
);
width = 466;
},
{
anchors = (
{
name = strokelong;
position = "{243, 507}";
}
);
layerId = "4E2227F3-52E4-4048-A8EE-327B486EF0A4";
paths = (
{
closed = 1;
nodes = (
"460 0 LINE",
"460 700 LINE",
"272 700 LINE",
"272 0 LINE"
);
},
{
closed = 1;
nodes = (
"214 0 LINE",
"214 700 LINE",
"26 700 LINE",
"26 0 LINE"
);
},
{
closed = 1;
nodes = (
"362 270 LINE",
"362 431 LINE",
"127 431 LINE",
"127 270 LINE"
);
},
{
closed = 1;
nodes = (
"508 507 LINE",
"508 632 LINE",
"-21 632 LINE",
"-21 507 LINE"
);
}
);
width = 486;
}
);
unicode = 0126;
},
{
glyphname = I;
layers = (
{
anchors = (
{
name = top;
position = "{128, 700}";
}
);
hints = (
{
origin = "{0, 2}";
target = "{0, 1}";
}
);
layerId = "262880E7-CFE1-4BDA-902E-E24798F3240A";
paths = (
{
closed = 1;
nodes = (
"139 0 LINE",
"139 700 LINE",
"117 700 LINE",
"117 0 LINE"
);
}
);
width = 256;
},
{
anchors = (
{
name = top;
position = "{120, 700}";
}
);
layerId = "4E2227F3-52E4-4048-A8EE-327B486EF0A4";
paths = (
{
closed = 1;
nodes = (
"214 0 LINE",
"214 700 LINE",
"26 700 LINE",
"26 0 LINE"
);
}
);
width = 240;
},
{
anchors = (
{
name = top;
position = "{133, 700}";
}
);
layerId = "FFFA8D72-12AC-4CE0-B2CA-57A29829F4DA";
paths = (
{
closed = 1;
nodes = (
"227 0 LINE",
"227 700 LINE",
"39 700 LINE",
"39 0 LINE"
);
}
);
width = 266;
},
{
anchors = (
{
name = top;
position = "{102, 700}";
}
);
layerId = "DCBE1F7B-116A-43E0-B7B4-8657BA77D8B5";
paths = (
{
closed = 1;
nodes = (
"113 0 LINE",
"113 700 LINE",
"91 700 LINE",
"91 0 LINE"
);
}
);
width = 204;
}
);
unicode = 0049;
},
{
glyphname = Iacute;
layers = (
{
anchors = (
{
name = top;
position = "{128, 700}";
}
);
hints = (
{
origin = "{0, 2}";
target = "{0, 1}";
}
);
layerId = "262880E7-CFE1-4BDA-902E-E24798F3240A";
paths = (
{
closed = 1;
nodes = (
"139 0 LINE",
"139 700 LINE",
"117 700 LINE",
"117 0 LINE"
);
},
{
closed = 1;
nodes = (
"121 769 LINE",
"196 900 LINE",
"172 900 LINE",
"99 769 LINE"
);
}
);
width = 256;
},
{
anchors = (
{
name = top;
position = "{133, 700}";
}
);
layerId = "FFFA8D72-12AC-4CE0-B2CA-57A29829F4DA";
paths = (
{
closed = 1;
nodes = (
"227 0 LINE",
"227 700 LINE",
"39 700 LINE",
"39 0 LINE"
);
},
{
closed = 1;
nodes = (
"213 759 LINE",
"304 880 LINE",
"98 880 LINE",
"34 759 LINE"
);
}
);
width = 266;
},
{
anchors = (
{
name = top;
position = "{102, 700}";
}
);
layerId = "DCBE1F7B-116A-43E0-B7B4-8657BA77D8B5";
paths = (
{
closed = 1;
nodes = (
"113 0 LINE",
"113 700 LINE",
"91 700 LINE",
"91 0 LINE"
);
},
{
closed = 1;
nodes = (
"91 769 LINE",
"166 900 LINE",
"142 900 LINE",
"69 769 LINE"
);
}
);
width = 204;
},
{
anchors = (
{
name = top;
position = "{120, 700}";
}
);
layerId = "4E2227F3-52E4-4048-A8EE-327B486EF0A4";
paths = (
{
closed = 1;
nodes = (
"214 0 LINE",
"214 700 LINE",
"26 700 LINE",
"26 0 LINE"
);
},
{
closed = 1;
nodes = (
"175 759 LINE",
"274 880 LINE",
"96 880 LINE",
"24 759 LINE"
);
}
);
width = 240;
}
);
unicode = 00CD;
},
{
glyphname = Icircumflex;
layers = (
{
anchors = (
{
name = top;
position = "{128, 700}";
}
);
hints = (
{
origin = "{0, 2}";
target = "{0, 1}";
}
);
layerId = "262880E7-CFE1-4BDA-902E-E24798F3240A";
paths = (
{
closed = 1;
nodes = (
"139 0 LINE",
"139 700 LINE",
"117 700 LINE",
"117 0 LINE"
);
},
{
closed = 1;
nodes = (
"45 775 LINE",
"128 880 LINE",
"209 775 LINE",
"235 775 LINE",
"137 900 LINE",
"117 900 LINE",
"19 775 LINE"
);
}
);
width = 256;
},
{
anchors = (
{
name = top;
position = "{133, 700}";
}
);
layerId = "FFFA8D72-12AC-4CE0-B2CA-57A29829F4DA";
paths = (
{
closed = 1;
nodes = (
"227 0 LINE",
"227 700 LINE",
"39 700 LINE",
"39 0 LINE"
);
},
{
closed = 1;
nodes = (
"99 751 LINE",
"134 813 LINE",
"169 751 LINE",
"331 751 LINE",
"249 880 LINE",
"15 880 LINE",
"-64 751 LINE"
);
}
);
width = 266;
},
{
anchors = (
{
name = top;
position = "{102, 700}";
}
);
layerId = "DCBE1F7B-116A-43E0-B7B4-8657BA77D8B5";
paths = (
{
closed = 1;
nodes = (
"113 0 LINE",
"113 700 LINE",
"91 700 LINE",
"91 0 LINE"
);
},
{
closed = 1;
nodes = (
"42 781 LINE",
"102 875 LINE",
"161 781 LINE",
"193 781 LINE",
"114 900 LINE",
"88 900 LINE",
"11 781 LINE"
);
}
);
width = 204;
},
{
anchors = (
{
name = top;
position = "{120, 700}";
}
);
layerId = "4E2227F3-52E4-4048-A8EE-327B486EF0A4";
paths = (
{
closed = 1;
nodes = (
"214 0 LINE",
"214 700 LINE",
"26 700 LINE",
"26 0 LINE"
);
},
{
closed = 1;
nodes = (
"89 751 LINE",
"118 814 LINE",
"147 751 LINE",
"293 751 LINE",
"209 880 LINE",
"24 880 LINE",
"-57 751 LINE"
);
}
);
width = 240;
}
);
unicode = 00CE;
},
{
glyphname = Idieresis;
layers = (
{
anchors = (
{
name = top;
position = "{128, 700}";
}
);
hints = (
{
origin = "{0, 2}";
target = "{0, 1}";
}
);
layerId = "262880E7-CFE1-4BDA-902E-E24798F3240A";
paths = (
{
closed = 1;
nodes = (
"139 0 LINE",
"139 700 LINE",
"117 700 LINE",
"117 0 LINE"
);
},
{
closed = 1;
nodes = (
"226 819 OFFCURVE",
"246 837 OFFCURVE",
"246 860 CURVE SMOOTH",
"246 882 OFFCURVE",
"226 900 OFFCURVE",
"204 900 CURVE SMOOTH",
"182 900 OFFCURVE",
"162 882 OFFCURVE",
"162 860 CURVE SMOOTH",
"162 837 OFFCURVE",
"181 819 OFFCURVE",
"204 819 CURVE SMOOTH"
);
},
{
closed = 1;
nodes = (
"74 819 OFFCURVE",
"94 837 OFFCURVE",
"94 860 CURVE SMOOTH",
"94 882 OFFCURVE",
"74 900 OFFCURVE",
"52 900 CURVE SMOOTH",
"30 900 OFFCURVE",
"10 882 OFFCURVE",
"10 860 CURVE SMOOTH",
"10 837 OFFCURVE",
"29 819 OFFCURVE",
"52 819 CURVE SMOOTH"
);
}
);
width = 256;
},
{
anchors = (
{
name = top;
position = "{133, 700}";
}
);
layerId = "FFFA8D72-12AC-4CE0-B2CA-57A29829F4DA";
paths = (
{
closed = 1;
nodes = (
"227 0 LINE",
"227 700 LINE",
"39 700 LINE",
"39 0 LINE"
);
},
{
closed = 1;
nodes = (
"321 744 OFFCURVE",
"368 791 OFFCURVE",
"368 849 CURVE SMOOTH",
"368 907 OFFCURVE",
"313 953 OFFCURVE",
"256 953 CURVE SMOOTH",
"200 953 OFFCURVE",
"144 907 OFFCURVE",
"144 849 CURVE SMOOTH",
"144 791 OFFCURVE",
"191 744 OFFCURVE",
"256 744 CURVE SMOOTH"
);
},
{
closed = 1;
nodes = (
"75 744 OFFCURVE",
"122 791 OFFCURVE",
"122 849 CURVE SMOOTH",
"122 907 OFFCURVE",
"67 953 OFFCURVE",
"10 953 CURVE SMOOTH",
"-46 953 OFFCURVE",
"-102 907 OFFCURVE",
"-102 849 CURVE SMOOTH",
"-102 791 OFFCURVE",
"-55 744 OFFCURVE",
"10 744 CURVE SMOOTH"
);
}
);
width = 266;
},
{
anchors = (
{
name = top;
position = "{102, 700}";
}
);
layerId = "DCBE1F7B-116A-43E0-B7B4-8657BA77D8B5";
paths = (
{
closed = 1;
nodes = (
"113 0 LINE",
"113 700 LINE",
"91 700 LINE",
"91 0 LINE"
);
},
{
closed = 1;
nodes = (
"181 819 OFFCURVE",
"197 837 OFFCURVE",
"197 860 CURVE SMOOTH",
"197 882 OFFCURVE",
"181 900 OFFCURVE",
"163 900 CURVE SMOOTH",
"145 900 OFFCURVE",
"129 882 OFFCURVE",
"129 860 CURVE SMOOTH",
"129 837 OFFCURVE",
"144 819 OFFCURVE",
"163 819 CURVE SMOOTH"
);
},
{
closed = 1;
nodes = (
"75 819 OFFCURVE",
"91 837 OFFCURVE",
"91 860 CURVE SMOOTH",
"91 882 OFFCURVE",
"75 900 OFFCURVE",
"57 900 CURVE SMOOTH",
"39 900 OFFCURVE",
"23 882 OFFCURVE",
"23 860 CURVE SMOOTH",
"23 837 OFFCURVE",
"38 819 OFFCURVE",
"57 819 CURVE SMOOTH"
);
}
);
width = 204;
},
{
anchors = (
{
name = top;
position = "{120, 700}";
}
);
layerId = "4E2227F3-52E4-4048-A8EE-327B486EF0A4";
paths = (
{
closed = 1;
nodes = (
"214 0 LINE",
"214 700 LINE",
"26 700 LINE",
"26 0 LINE"
);
},
{
closed = 1;
nodes = (
"293 735 OFFCURVE",
"336 782 OFFCURVE",
"336 840 CURVE SMOOTH",
"336 898 OFFCURVE",
"284 944 OFFCURVE",
"231 944 CURVE SMOOTH",
"178 944 OFFCURVE",
"126 898 OFFCURVE",
"126 840 CURVE SMOOTH",
"126 782 OFFCURVE",
"169 735 OFFCURVE",
"231 735 CURVE SMOOTH"
);
},
{
closed = 1;
nodes = (
"70 735 OFFCURVE",
"113 782 OFFCURVE",
"113 840 CURVE SMOOTH",
"113 898 OFFCURVE",
"61 944 OFFCURVE",
"8 944 CURVE SMOOTH",
"-45 944 OFFCURVE",
"-97 898 OFFCURVE",
"-97 840 CURVE SMOOTH",
"-97 782 OFFCURVE",
"-54 735 OFFCURVE",
"8 735 CURVE SMOOTH"
);
}
);
width = 240;
}
);
unicode = 00CF;
},
{
glyphname = Idotaccent;
layers = (
{
anchors = (
{
name = top;
position = "{128, 700}";
}
);
hints = (
{
origin = "{0, 2}";
target = "{0, 1}";
}
);
layerId = "262880E7-CFE1-4BDA-902E-E24798F3240A";
paths = (
{
closed = 1;
nodes = (
"139 0 LINE",
"139 700 LINE",
"117 700 LINE",
"117 0 LINE"
);
},
{
closed = 1;
nodes = (
"149 819 OFFCURVE",
"169 837 OFFCURVE",
"169 860 CURVE SMOOTH",
"169 882 OFFCURVE",
"149 900 OFFCURVE",
"127 900 CURVE SMOOTH",
"105 900 OFFCURVE",
"85 882 OFFCURVE",
"85 860 CURVE SMOOTH",
"85 837 OFFCURVE",
"104 819 OFFCURVE",
"127 819 CURVE SMOOTH"
);
}
);
width = 256;
},
{
anchors = (
{
name = top;
position = "{133, 700}";
}
);
layerId = "FFFA8D72-12AC-4CE0-B2CA-57A29829F4DA";
paths = (
{
closed = 1;
nodes = (
"227 0 LINE",
"227 700 LINE",
"39 700 LINE",
"39 0 LINE"
);
},
{
closed = 1;
nodes = (
"198 735 OFFCURVE",
"245 782 OFFCURVE",
"245 840 CURVE SMOOTH",
"245 898 OFFCURVE",
"190 944 OFFCURVE",
"133 944 CURVE SMOOTH",
"77 944 OFFCURVE",
"21 898 OFFCURVE",
"21 840 CURVE SMOOTH",
"21 782 OFFCURVE",
"68 735 OFFCURVE",
"133 735 CURVE SMOOTH"
);
}
);
width = 266;
},
{
anchors = (
{
name = top;
position = "{102, 700}";
}
);
layerId = "DCBE1F7B-116A-43E0-B7B4-8657BA77D8B5";
paths = (
{
closed = 1;
nodes = (
"113 0 LINE",
"113 700 LINE",
"91 700 LINE",
"91 0 LINE"
);
},
{
closed = 1;
nodes = (
"119 819 OFFCURVE",
"135 837 OFFCURVE",
"135 860 CURVE SMOOTH",
"135 882 OFFCURVE",
"119 900 OFFCURVE",
"101 900 CURVE SMOOTH",
"83 900 OFFCURVE",
"67 882 OFFCURVE",
"67 860 CURVE SMOOTH",
"67 837 OFFCURVE",
"82 819 OFFCURVE",
"101 819 CURVE SMOOTH"
);
}
);
width = 204;
},
{
anchors = (
{
name = top;
position = "{120, 700}";
}
);
layerId = "4E2227F3-52E4-4048-A8EE-327B486EF0A4";
paths = (
{
closed = 1;
nodes = (
"214 0 LINE",
"214 700 LINE",
"26 700 LINE",
"26 0 LINE"
);
},
{
closed = 1;
nodes = (
"182 735 OFFCURVE",
"225 782 OFFCURVE",
"225 840 CURVE SMOOTH",
"225 898 OFFCURVE",
"173 944 OFFCURVE",
"120 944 CURVE SMOOTH",
"67 944 OFFCURVE",
"15 898 OFFCURVE",
"15 840 CURVE SMOOTH",
"15 782 OFFCURVE",
"58 735 OFFCURVE",
"120 735 CURVE SMOOTH"
);
}
);
width = 240;
}
);
unicode = 0130;
},
{
glyphname = Igrave;
layers = (
{
anchors = (
{
name = top;
position = "{128, 700}";
}
);
hints = (
{
origin = "{0, 2}";
target = "{0, 1}";
}
);
layerId = "262880E7-CFE1-4BDA-902E-E24798F3240A";
paths = (
{
closed = 1;
nodes = (
"139 0 LINE",
"139 700 LINE",
"117 700 LINE",
"117 0 LINE"
);
},
{
closed = 1;
nodes = (
"61 900 LINE",
"37 900 LINE",
"112 769 LINE",
"134 769 LINE"
);
}
);
width = 256;
},
{
anchors = (
{
name = top;
position = "{133, 700}";
}
);
layerId = "FFFA8D72-12AC-4CE0-B2CA-57A29829F4DA";
paths = (
{
closed = 1;
nodes = (
"227 0 LINE",
"227 700 LINE",
"39 700 LINE",
"39 0 LINE"
);
},
{
closed = 1;
nodes = (
"156 880 LINE",
"-50 880 LINE",
"41 759 LINE",
"220 759 LINE"
);
}
);
width = 266;
},
{
anchors = (
{
name = top;
position = "{102, 700}";
}
);
layerId = "DCBE1F7B-116A-43E0-B7B4-8657BA77D8B5";
paths = (
{
closed = 1;
nodes = (
"113 0 LINE",
"113 700 LINE",
"91 700 LINE",
"91 0 LINE"
);
},
{
closed = 1;
nodes = (
"41 900 LINE",
"17 900 LINE",
"92 769 LINE",
"114 769 LINE"
);
}
);
width = 204;
},
{
anchors = (
{
name = top;
position = "{120, 700}";
}
);
layerId = "4E2227F3-52E4-4048-A8EE-327B486EF0A4";
paths = (
{
closed = 1;
nodes = (
"214 0 LINE",
"214 700 LINE",
"26 700 LINE",
"26 0 LINE"
);
},
{
closed = 1;
nodes = (
"125 880 LINE",
"-53 880 LINE",
"46 759 LINE",
"197 759 LINE"
);
}
);
width = 240;
}
);
unicode = 00CC;
},
{
glyphname = Imacron;
layers = (
{
anchors = (
{
name = top;
position = "{128, 700}";
}
);
hints = (
{
origin = "{0, 2}";
target = "{0, 1}";
}
);
layerId = "262880E7-CFE1-4BDA-902E-E24798F3240A";
paths = (
{
closed = 1;
nodes = (
"139 0 LINE",
"139 700 LINE",
"117 700 LINE",
"117 0 LINE"
);
},
{
closed = 1;
nodes = (
"254 805 LINE",
"254 826 LINE",
"3 826 LINE",
"3 805 LINE"
);
}
);
width = 256;
},
{
anchors = (
{
name = top;
position = "{133, 700}";
}
);
layerId = "FFFA8D72-12AC-4CE0-B2CA-57A29829F4DA";
paths = (
{
closed = 1;
nodes = (
"227 0 LINE",
"227 700 LINE",
"39 700 LINE",
"39 0 LINE"
);
},
{
closed = 1;
nodes = (
"289 747 LINE",
"289 872 LINE",
"-22 872 LINE",
"-22 747 LINE"
);
}
);
width = 266;
},
{
anchors = (
{
name = top;
position = "{102, 700}";
}
);
layerId = "DCBE1F7B-116A-43E0-B7B4-8657BA77D8B5";
paths = (
{
closed = 1;
nodes = (
"113 0 LINE",
"113 700 LINE",
"91 700 LINE",
"91 0 LINE"
);
},
{
closed = 1;
nodes = (
"198 805 LINE",
"198 826 LINE",
"7 826 LINE",
"7 805 LINE"
);
}
);
width = 204;
},
{
anchors = (
{
name = top;
position = "{120, 700}";
}
);
layerId = "4E2227F3-52E4-4048-A8EE-327B486EF0A4";
paths = (
{
closed = 1;
nodes = (
"214 0 LINE",
"214 700 LINE",
"26 700 LINE",
"26 0 LINE"
);
},
{
closed = 1;
nodes = (
"230 752 LINE",
"230 877 LINE",
"-1 877 LINE",
"-1 752 LINE"
);
}
);
width = 240;
}
);
unicode = 012A;
},
{
glyphname = Iogonek;
layers = (
{
anchors = (
{
name = top;
position = "{194, 700}";
}
);
hints = (
{
origin = "{0, 2}";
target = "{0, 1}";
}
);
layerId = "262880E7-CFE1-4BDA-902E-E24798F3240A";
paths = (
{
closed = 1;
nodes = (
"205 0 LINE",
"205 700 LINE",
"183 700 LINE",
"183 0 LINE"
);
},
{
closed = 1;
nodes = (
"231 -158 LINE",
"191 -168 OFFCURVE",
"149 -162 OFFCURVE",
"141 -118 CURVE SMOOTH",
"133 -73 OFFCURVE",
"168 -30 OFFCURVE",
"205 0 CURVE",
"183 0 LINE",
"125 -42 OFFCURVE",
"111 -85 OFFCURVE",
"119 -124 CURVE SMOOTH",
"131 -182 OFFCURVE",
"190 -189 OFFCURVE",
"237 -178 CURVE"
);
}
);
width = 354;
},
{
anchors = (
{
name = top;
position = "{133, 700}";
}
);
layerId = "FFFA8D72-12AC-4CE0-B2CA-57A29829F4DA";
paths = (
{
closed = 1;
nodes = (
"227 0 LINE",
"227 700 LINE",
"39 700 LINE",
"39 0 LINE"
);
},
{
closed = 1;
nodes = (
"216 -83 LINE",
"193 -100 OFFCURVE",
"167 -97 OFFCURVE",
"161 -79 CURVE SMOOTH",
"154 -59 OFFCURVE",
"178 -31 OFFCURVE",
"228 0 CURVE",
"102 0 LINE",
"50 -41 OFFCURVE",
"30 -87 OFFCURVE",
"43 -131 CURVE SMOOTH",
"70 -225 OFFCURVE",
"193 -199 OFFCURVE",
"228 -178 CURVE"
);
}
);
width = 267;
},
{
anchors = (
{
name = top;
position = "{156, 700}";
}
);
layerId = "DCBE1F7B-116A-43E0-B7B4-8657BA77D8B5";
paths = (
{
closed = 1;
nodes = (
"167 0 LINE",
"167 700 LINE",
"145 700 LINE",
"145 0 LINE"
);
},
{
closed = 1;
nodes = (
"186 -158 LINE",
"154 -168 OFFCURVE",
"120 -162 OFFCURVE",
"114 -118 CURVE SMOOTH",
"108 -73 OFFCURVE",
"135 -30 OFFCURVE",
"166 0 CURVE",
"144 0 LINE",
"96 -40 OFFCURVE",
"87 -85 OFFCURVE",
"93 -124 CURVE SMOOTH",
"102 -182 OFFCURVE",
"153 -189 OFFCURVE",
"191 -178 CURVE"
);
}
);
width = 282;
},
{
anchors = (
{
name = top;
position = "{120, 700}";
}
);
layerId = "4E2227F3-52E4-4048-A8EE-327B486EF0A4";
paths = (
{
closed = 1;
nodes = (
"214 0 LINE",
"214 700 LINE",
"26 700 LINE",
"26 0 LINE"
);
},
{
closed = 1;
nodes = (
"195 -92 LINE",
"181 -100 OFFCURVE",
"165 -97 OFFCURVE",
"160 -79 CURVE SMOOTH",
"155 -59 OFFCURVE",
"174 -31 OFFCURVE",
"214 0 CURVE",
"92 0 LINE",
"49 -41 OFFCURVE",
"34 -87 OFFCURVE",
"45 -131 CURVE SMOOTH",
"68 -222 OFFCURVE",
"183 -192 OFFCURVE",
"206 -182 CURVE"
);
}
);
width = 240;
}
);
leftMetricsKey = "=I";
rightMetricsKey = "=I";
unicode = 012E;
},
{
glyphname = J;
layers = (
{
hints = (
{
origin = "{0, 5}";
target = "{0, 2}";
},
{
horizontal = 1;
origin = "{0, 17}";
target = "{0, 8}";
},
{
origin = "{0, 13}";
target = "{0, 12}";
}
);
layerId = "262880E7-CFE1-4BDA-902E-E24798F3240A";
paths = (
{
closed = 1;
nodes = (
"372 -8 OFFCURVE",
"456 70 OFFCURVE",
"456 188 CURVE SMOOTH",
"456 700 LINE",
"434 700 LINE",
"434 187 LINE SMOOTH",
"434 83 OFFCURVE",
"359 13 OFFCURVE",
"246 13 CURVE SMOOTH",
"133 13 OFFCURVE",
"58 83 OFFCURVE",
"58 187 CURVE SMOOTH",
"58 281 LINE",
"36 281 LINE",
"36 188 LINE SMOOTH",
"36 70 OFFCURVE",
"120 -8 OFFCURVE",
"246 -8 CURVE SMOOTH"
);
}
);
width = 573;
},
{
layerId = "4E2227F3-52E4-4048-A8EE-327B486EF0A4";
paths = (
{
closed = 1;
nodes = (
"356 -8 OFFCURVE",
"444 72 OFFCURVE",
"444 192 CURVE SMOOTH",
"444 700 LINE",
"256 700 LINE",
"256 190 LINE SMOOTH",
"256 168 OFFCURVE",
"243 153 OFFCURVE",
"225 153 CURVE SMOOTH",
"208 153 OFFCURVE",
"196 168 OFFCURVE",
"196 190 CURVE SMOOTH",
"196 265 LINE",
"8 265 LINE",
"8 192 LINE SMOOTH",
"8 72 OFFCURVE",
"95 -8 OFFCURVE",
"225 -8 CURVE SMOOTH"
);
}
);
width = 470;
},
{
layerId = "FFFA8D72-12AC-4CE0-B2CA-57A29829F4DA";
paths = (
{
closed = 1;
nodes = (
"438 -8 OFFCURVE",
"548 88 OFFCURVE",
"548 232 CURVE SMOOTH",
"548 700 LINE",
"361 700 LINE",
"361 233 LINE SMOOTH",
"361 185 OFFCURVE",
"326 153 OFFCURVE",
"279 153 CURVE SMOOTH",
"229 153 OFFCURVE",
"200 185 OFFCURVE",
"200 233 CURVE SMOOTH",
"200 300 LINE",
"12 300 LINE",
"12 232 LINE SMOOTH",
"12 88 OFFCURVE",
"116 -8 OFFCURVE",
"279 -8 CURVE SMOOTH"
);
}
);
width = 587;
},
{
layerId = "DCBE1F7B-116A-43E0-B7B4-8657BA77D8B5";
paths = (
{
closed = 1;
nodes = (
"258 -8 OFFCURVE",
"316 54 OFFCURVE",
"316 148 CURVE SMOOTH",
"316 700 LINE",
"294 700 LINE",
"294 147 LINE SMOOTH",
"294 67 OFFCURVE",
"245 13 OFFCURVE",
"172 13 CURVE SMOOTH",
"99 13 OFFCURVE",
"50 67 OFFCURVE",
"50 147 CURVE SMOOTH",
"50 251 LINE",
"28 251 LINE",
"28 148 LINE SMOOTH",
"28 54 OFFCURVE",
"86 -8 OFFCURVE",
"172 -8 CURVE SMOOTH"
);
}
);
width = 407;
}
);
leftKerningGroup = J;
rightKerningGroup = U;
unicode = 004A;
},
{
glyphname = K;
layers = (
{
anchors = (
{
name = bottom;
position = "{326, 0}";
}
);
hints = (
{
origin = "{0, 11}";
target = "{0, 0}";
}
);
layerId = "262880E7-CFE1-4BDA-902E-E24798F3240A";
paths = (
{
closed = 1;
nodes = (
"139 0 LINE",
"139 278 LINE",
"261 398 LINE",
"545 0 LINE",
"573 0 LINE",
"277 415 LINE",
"549 700 LINE",
"523 700 LINE",
"139 306 LINE",
"139 700 LINE",
"117 700 LINE",
"117 0 LINE"
);
}
);
width = 600;
},
{
anchors = (
{
name = bottom;
position = "{276, 0}";
}
);
layerId = "4E2227F3-52E4-4048-A8EE-327B486EF0A4";
paths = (
{
closed = 1;
nodes = (
"214 0 LINE",
"214 193 LINE",
"227 227 LINE",
"313 0 LINE",
"511 0 LINE",
"357 383 LINE",
"508 700 LINE",
"310 700 LINE",
"214 469 LINE",
"214 700 LINE",
"26 700 LINE",
"26 0 LINE"
);
}
);
width = 517;
},
{
anchors = (
{
name = bottom;
position = "{306, 0}";
}
);
layerId = "FFFA8D72-12AC-4CE0-B2CA-57A29829F4DA";
paths = (
{
closed = 1;
nodes = (
"227 0 LINE",
"227 189 LINE",
"275 262 LINE",
"422 0 LINE",
"632 0 LINE",
"404 390 LINE",
"627 700 LINE",
"414 700 LINE",
"227 435 LINE",
"227 700 LINE",
"39 700 LINE",
"39 0 LINE"
);
}
);
width = 636;
},
{
anchors = (
{
name = bottom;
position = "{236, 0}";
}
);
layerId = "DCBE1F7B-116A-43E0-B7B4-8657BA77D8B5";
paths = (
{
closed = 1;
nodes = (
"113 0 LINE",
"113 274 LINE",
"201 406 LINE",
"377 0 LINE",
"404 0 LINE",
"217 427 LINE",
"387 700 LINE",
"359 700 LINE",
"113 308 LINE",
"113 700 LINE",
"91 700 LINE",
"91 0 LINE"
);
}
);
width = 425;
}
);
rightKerningGroup = K;
unicode = 004B;
},
{
glyphname = L;
layers = (
{
anchors = (
{
name = bottom;
position = "{292, 0}";
},
{
name = top;
position = "{128, 700}";
}
);
hints = (
{
horizontal = 1;
origin = "{0, 0}";
target = "{0, 1}";
},
{
origin = "{0, 4}";
target = "{0, 3}";
}
);
layerId = "262880E7-CFE1-4BDA-902E-E24798F3240A";
paths = (
{
closed = 1;
nodes = (
"522 0 LINE",
"522 21 LINE",
"139 21 LINE",
"139 700 LINE",
"117 700 LINE",
"117 0 LINE"
);
}
);
width = 566;
},
{
anchors = (
{
name = bottom;
position = "{207, 0}";
},
{
name = top;
position = "{124, 700}";
}
);
layerId = "4E2227F3-52E4-4048-A8EE-327B486EF0A4";
paths = (
{
closed = 1;
nodes = (
"430 0 LINE",
"430 161 LINE",
"214 161 LINE",
"214 700 LINE",
"26 700 LINE",
"26 0 LINE"
);
}
);
width = 446;
},
{
anchors = (
{
name = bottom;
position = "{274, 0}";
},
{
name = top;
position = "{132, 700}";
}
);
layerId = "FFFA8D72-12AC-4CE0-B2CA-57A29829F4DA";
paths = (
{
closed = 1;
nodes = (
"556 0 LINE",
"556 161 LINE",
"227 161 LINE",
"227 700 LINE",
"39 700 LINE",
"39 0 LINE"
);
}
);
width = 574;
},
{
anchors = (
{
name = bottom;
position = "{195, 0}";
},
{
name = top;
position = "{100, 700}";
}
);
layerId = "DCBE1F7B-116A-43E0-B7B4-8657BA77D8B5";
paths = (
{
closed = 1;
nodes = (
"368 0 LINE",
"368 21 LINE",
"113 21 LINE",
"113 700 LINE",
"91 700 LINE",
"91 0 LINE"
);
}
);
width = 375;
}
);
rightKerningGroup = L;
unicode = 004C;
},
{
glyphname = Lacute;
layers = (
{
anchors = (
{
name = bottom;
position = "{292, 0}";
},
{
name = top;
position = "{128, 700}";
}
);
hints = (
{
horizontal = 1;
origin = "{0, 0}";
target = "{0, 1}";
},
{
origin = "{0, 4}";
target = "{0, 3}";
}
);
layerId = "262880E7-CFE1-4BDA-902E-E24798F3240A";
paths = (
{
closed = 1;
nodes = (
"522 0 LINE",
"522 21 LINE",
"139 21 LINE",
"139 700 LINE",
"117 700 LINE",
"117 0 LINE"
);
},
{
closed = 1;
nodes = (
"121 769 LINE",
"196 900 LINE",
"172 900 LINE",
"99 769 LINE"
);
}
);
width = 566;
},
{
anchors = (
{
name = bottom;
position = "{274, 0}";
},
{
name = top;
position = "{132, 700}";
}
);
layerId = "FFFA8D72-12AC-4CE0-B2CA-57A29829F4DA";
paths = (
{
closed = 1;
nodes = (
"556 0 LINE",
"556 161 LINE",
"227 161 LINE",
"227 700 LINE",
"39 700 LINE",
"39 0 LINE"
);
},
{
closed = 1;
nodes = (
"212 759 LINE",
"303 880 LINE",
"97 880 LINE",
"33 759 LINE"
);
}
);
width = 574;
},
{
anchors = (
{
name = bottom;
position = "{195, 0}";
},
{
name = top;
position = "{100, 700}";
}
);
layerId = "DCBE1F7B-116A-43E0-B7B4-8657BA77D8B5";
paths = (
{
closed = 1;
nodes = (
"368 0 LINE",
"368 21 LINE",
"113 21 LINE",
"113 700 LINE",
"91 700 LINE",
"91 0 LINE"
);
},
{
closed = 1;
nodes = (
"89 769 LINE",
"164 900 LINE",
"140 900 LINE",
"67 769 LINE"
);
}
);
width = 375;
},
{
anchors = (
{
name = bottom;
position = "{207, 0}";
},
{
name = top;
position = "{124, 700}";
}
);
layerId = "4E2227F3-52E4-4048-A8EE-327B486EF0A4";
paths = (
{
closed = 1;
nodes = (
"430 0 LINE",
"430 161 LINE",
"214 161 LINE",
"214 700 LINE",
"26 700 LINE",
"26 0 LINE"
);
},
{
closed = 1;
nodes = (
"179 759 LINE",
"278 880 LINE",
"100 880 LINE",
"28 759 LINE"
);
}
);
width = 446;
}
);
rightKerningGroup = L;
unicode = 0139;
},
{
glyphname = Lcaron;
layers = (
{
anchors = (
{
name = bottom;
position = "{292, 0}";
},
{
name = top;
position = "{128, 700}";
}
);
hints = (
{
horizontal = 1;
origin = "{0, 0}";
target = "{0, 1}";
},
{
origin = "{0, 4}";
target = "{0, 3}";
}
);
layerId = "262880E7-CFE1-4BDA-902E-E24798F3240A";
paths = (
{
closed = 1;
nodes = (
"522 0 LINE",
"522 21 LINE",
"139 21 LINE",
"139 700 LINE",
"117 700 LINE",
"117 0 LINE"
);
},
{
closed = 1;
nodes = (
"137 772 LINE",
"235 897 LINE",
"209 897 LINE",
"128 792 LINE",
"45 897 LINE",
"19 897 LINE",
"117 772 LINE"
);
}
);
width = 566;
},
{
anchors = (
{
name = bottom;
position = "{274, 0}";
},
{
name = top;
position = "{132, 700}";
}
);
layerId = "FFFA8D72-12AC-4CE0-B2CA-57A29829F4DA";
paths = (
{
closed = 1;
nodes = (
"556 0 LINE",
"556 161 LINE",
"227 161 LINE",
"227 700 LINE",
"39 700 LINE",
"39 0 LINE"
);
},
{
closed = 1;
nodes = (
"247 750 LINE",
"329 879 LINE",
"167 879 LINE",
"132 817 LINE",
"97 879 LINE",
"-66 879 LINE",
"13 750 LINE"
);
}
);
width = 574;
},
{
anchors = (
{
name = bottom;
position = "{195, 0}";
},
{
name = top;
position = "{100, 700}";
}
);
layerId = "DCBE1F7B-116A-43E0-B7B4-8657BA77D8B5";
paths = (
{
closed = 1;
nodes = (
"368 0 LINE",
"368 21 LINE",
"113 21 LINE",
"113 700 LINE",
"91 700 LINE",
"91 0 LINE"
);
},
{
closed = 1;
nodes = (
"113 778 LINE",
"192 897 LINE",
"160 897 LINE",
"101 803 LINE",
"41 897 LINE",
"10 897 LINE",
"87 778 LINE"
);
}
);
width = 375;
},
{
anchors = (
{
name = bottom;
position = "{207, 0}";
},
{
name = top;
position = "{124, 700}";
}
);
layerId = "4E2227F3-52E4-4048-A8EE-327B486EF0A4";
paths = (
{
closed = 1;
nodes = (
"430 0 LINE",
"430 161 LINE",
"214 161 LINE",
"214 700 LINE",
"26 700 LINE",
"26 0 LINE"
);
},
{
closed = 1;
nodes = (
"205 751 LINE",
"288 880 LINE",
"155 880 LINE",
"124 818 LINE",
"91 880 LINE",
"-50 880 LINE",
"31 751 LINE"
);
}
);
width = 446;
}
);
rightKerningGroup = L;
unicode = 013D;
},
{
glyphname = Lcommaaccent;
layers = (
{
anchors = (
{
name = bottom;
position = "{292, 0}";
},
{
name = top;
position = "{128, 700}";
}
);
hints = (
{
horizontal = 1;
origin = "{0, 0}";
target = "{0, 1}";
},
{
origin = "{0, 4}";
target = "{0, 3}";
}
);
layerId = "262880E7-CFE1-4BDA-902E-E24798F3240A";
paths = (
{
closed = 1;
nodes = (
"522 0 LINE",
"522 21 LINE",
"139 21 LINE",
"139 700 LINE",
"117 700 LINE",
"117 0 LINE"
);
},
{
closed = 1;
nodes = (
"264 -202 LINE",
"339 -71 LINE",
"315 -71 LINE",
"242 -202 LINE"
);
}
);
width = 566;
},
{
anchors = (
{
name = bottom;
position = "{274, 0}";
},
{
name = top;
position = "{132, 700}";
}
);
layerId = "FFFA8D72-12AC-4CE0-B2CA-57A29829F4DA";
paths = (
{
closed = 1;
nodes = (
"556 0 LINE",
"556 161 LINE",
"227 161 LINE",
"227 700 LINE",
"39 700 LINE",
"39 0 LINE"
);
},
{
closed = 1;
nodes = (
"314 -163 LINE",
"405 -42 LINE",
"199 -42 LINE",
"135 -163 LINE"
);
}
);
width = 574;
},
{
anchors = (
{
name = bottom;
position = "{195, 0}";
},
{
name = top;
position = "{100, 700}";
}
);
layerId = "DCBE1F7B-116A-43E0-B7B4-8657BA77D8B5";
paths = (
{
closed = 1;
nodes = (
"368 0 LINE",
"368 21 LINE",
"113 21 LINE",
"113 700 LINE",
"91 700 LINE",
"91 0 LINE"
);
},
{
closed = 1;
nodes = (
"192 -201 LINE",
"267 -70 LINE",
"243 -70 LINE",
"170 -201 LINE"
);
}
);
width = 375;
},
{
anchors = (
{
name = bottom;
position = "{207, 0}";
},
{
name = top;
position = "{124, 700}";
}
);
layerId = "4E2227F3-52E4-4048-A8EE-327B486EF0A4";
paths = (
{
closed = 1;
nodes = (
"430 0 LINE",
"430 161 LINE",
"214 161 LINE",
"214 700 LINE",
"26 700 LINE",
"26 0 LINE"
);
},
{
closed = 1;
nodes = (
"233 -163 LINE",
"332 -42 LINE",
"154 -42 LINE",
"82 -163 LINE"
);
}
);
width = 446;
}
);
rightKerningGroup = L;
unicode = 013B;
},
{
glyphname = Lslash;
layers = (
{
anchors = (
{
name = bottom;
position = "{292, 0}";
},
{
name = top;
position = "{128, 700}";
}
);
hints = (
{
horizontal = 1;
origin = "{0, 0}";
target = "{0, 1}";
},
{
origin = "{0, 4}";
target = "{0, 3}";
}
);
layerId = "262880E7-CFE1-4BDA-902E-E24798F3240A";
paths = (
{
closed = 1;
nodes = (
"522 0 LINE",
"522 21 LINE",
"139 21 LINE",
"139 700 LINE",
"117 700 LINE",
"117 0 LINE"
);
},
{
closed = 1;
nodes = (
"416 489 LINE",
"404 508 LINE",
"-27 211 LINE",
"-15 193 LINE"
);
}
);
width = 566;
},
{
anchors = (
{
name = bottom;
position = "{378, 0}";
},
{
name = top;
position = "{236, 700}";
}
);
layerId = "FFFA8D72-12AC-4CE0-B2CA-57A29829F4DA";
paths = (
{
closed = 1;
nodes = (
"660 0 LINE",
"660 161 LINE",
"331 161 LINE",
"331 700 LINE",
"143 700 LINE",
"143 0 LINE"
);
},
{
closed = 1;
nodes = (
"595 563 LINE",
"503 669 LINE",
"-22 206 LINE",
"70 100 LINE"
);
}
);
width = 678;
},
{
anchors = (
{
name = bottom;
position = "{195, 0}";
},
{
name = top;
position = "{100, 700}";
}
);
layerId = "DCBE1F7B-116A-43E0-B7B4-8657BA77D8B5";
paths = (
{
closed = 1;
nodes = (
"368 0 LINE",
"368 21 LINE",
"113 21 LINE",
"113 700 LINE",
"91 700 LINE",
"91 0 LINE"
);
},
{
closed = 1;
nodes = (
"326 439 LINE",
"314 458 LINE",
"-17 241 LINE",
"-5 223 LINE"
);
}
);
width = 375;
},
{
anchors = (
{
name = bottom;
position = "{299, 0}";
},
{
name = top;
position = "{216, 700}";
}
);
layerId = "4E2227F3-52E4-4048-A8EE-327B486EF0A4";
paths = (
{
closed = 1;
nodes = (
"522 0 LINE",
"522 161 LINE",
"306 161 LINE",
"306 700 LINE",
"118 700 LINE",
"118 0 LINE"
);
},
{
closed = 1;
nodes = (
"499 484 LINE",
"407 590 LINE",
"-18 217 LINE",
"74 111 LINE"
);
}
);
width = 538;
}
);
rightKerningGroup = L;
rightMetricsKey = "=L";
unicode = 0141;
},
{
color = 3;
glyphname = M;
layers = (
{
hints = (
{
origin = "{0, 11}";
target = "{0, 10}";
},
{
origin = "{0, 8}";
target = "{0, 7}";
}
);
layerId = "262880E7-CFE1-4BDA-902E-E24798F3240A";
paths = (
{
closed = 1;
nodes = (
"139 0 LINE",
"139 658 LINE",
"350 333 LINE",
"368 333 LINE",
"577 658 LINE",
"577 0 LINE",
"599 0 LINE",
"599 700 LINE",
"577 700 LINE",
"357 360 LINE",
"139 700 LINE",
"117 700 LINE",
"117 0 LINE"
);
}
);
width = 716;
},
{
hints = (
{
origin = "{0, 12}";
target = "{0, 0}";
},
{
origin = "{0, 5}";
target = "{0, 6}";
}
);
layerId = "4E2227F3-52E4-4048-A8EE-327B486EF0A4";
paths = (
{
closed = 1;
nodes = (
"209 0 LINE",
"209 439 LINE",
"282 310 LINE",
"283 310 LINE",
"357 436 LINE",
"357 0 LINE",
"545 0 LINE",
"545 700 LINE",
"362 700 LINE",
"283 554 LINE",
"204 700 LINE",
"21 700 LINE",
"21 0 LINE"
);
}
);
width = 566;
},
{
associatedMasterId = "4E2227F3-52E4-4048-A8EE-327B486EF0A4";
hints = (
{
origin = "{0, 12}";
target = "{0, 0}";
},
{
origin = "{0, 5}";
target = "{0, 6}";
}
);
layerId = "C618EEF0-F381-433B-B25F-2EDAE517ED4C";
name = "{100,300}";
paths = (
{
closed = 1;
nodes = (
"158 0 LINE",
"158 465 LINE",
"259 255 LINE",
"269 255 LINE",
"369 464 LINE",
"369 0 LINE",
"469 0 LINE",
"469 700 LINE",
"371 700 LINE",
"263 448 LINE",
"156 700 LINE",
"58 700 LINE",
"58 0 LINE"
);
}
);
width = 527;
},
{
hints = (
{
origin = "{0, 12}";
target = "{0, 0}";
},
{
origin = "{0, 5}";
target = "{0, 6}";
}
);
layerId = "FFFA8D72-12AC-4CE0-B2CA-57A29829F4DA";
paths = (
{
closed = 1;
nodes = (
"227 0 LINE",
"227 391 LINE",
"307 259 LINE",
"407 259 LINE",
"487 391 LINE",
"487 0 LINE",
"675 0 LINE",
"675 700 LINE",
"492 700 LINE",
"357 481 LINE",
"222 700 LINE",
"39 700 LINE",
"39 0 LINE"
);
}
);
width = 714;
},
{
hints = (
{
origin = "{0, 12}";
target = "{0, 0}";
},
{
origin = "{0, 5}";
target = "{0, 6}";
}
);
layerId = "DCBE1F7B-116A-43E0-B7B4-8657BA77D8B5";
paths = (
{
closed = 1;
nodes = (
"113 0 LINE",
"113 651 LINE",
"243 330 LINE",
"261 330 LINE",
"389 651 LINE",
"389 0 LINE",
"411 0 LINE",
"411 700 LINE",
"389 700 LINE",
"250 358 LINE",
"113 700 LINE",
"91 700 LINE",
"91 0 LINE"
);
}
);
width = 502;
},
{
associatedMasterId = "4E2227F3-52E4-4048-A8EE-327B486EF0A4";
hints = (
{
origin = "{0, 11}";
target = "{0, 10}";
},
{
origin = "{0, 8}";
target = "{0, 7}";
}
);
layerId = "B75973C7-2F91-404C-BACF-1A0B6CD40DCC";
name = "{100,500}";
paths = (
{
closed = 1;
nodes = (
"180 0 LINE",
"180 528 LINE",
"324 291 LINE",
"382 291 LINE",
"526 528 LINE",
"526 0 LINE",
"626 0 LINE",
"626 700 LINE",
"529 700 LINE",
"353 419 LINE",
"178 700 LINE",
"80 700 LINE",
"80 0 LINE"
);
}
);
width = 706;
},
{
associatedMasterId = "4E2227F3-52E4-4048-A8EE-327B486EF0A4";
hints = (
{
origin = "{0, 12}";
target = "{0, 0}";
},
{
origin = "{0, 5}";
target = "{0, 6}";
}
);
layerId = "2CAFF881-D152-4119-AE13-D526D04837FD";
name = "{140,400}";
paths = (
{
closed = 1;
nodes = (
"193 0 LINE",
"193 460 LINE",
"285 291 LINE",
"339 291 LINE",
"431 459 LINE",
"431 0 LINE",
"571 0 LINE",
"571 700 LINE",
"435 700 LINE",
"312 476 LINE",
"189 700 LINE",
"53 700 LINE",
"53 0 LINE"
);
}
);
width = 624;
},
{
associatedMasterId = "4E2227F3-52E4-4048-A8EE-327B486EF0A4";
hints = (
{
origin = "{0, 12}";
target = "{0, 0}";
},
{
origin = "{0, 5}";
target = "{0, 6}";
}
);
layerId = "B0E824CF-0225-4ED0-ACE8-90DC4BF0AF6C";
name = "{100,400}";
paths = (
{
closed = 1;
nodes = (
"170 0 LINE",
"170 489 LINE",
"284 260 LINE",
"336 260 LINE",
"449 488 LINE",
"449 0 LINE",
"549 0 LINE",
"549 700 LINE",
"451 700 LINE",
"309 411 LINE",
"168 700 LINE",
"70 700 LINE",
"70 0 LINE"
);
}
);
width = 619;
},
{
associatedMasterId = "DCBE1F7B-116A-43E0-B7B4-8657BA77D8B5";
hints = (
{
origin = "{0, 12}";
target = "{0, 0}";
},
{
origin = "{0, 5}";
target = "{0, 6}";
}
);
layerId = "F28A944A-F704-4753-A55D-BABE2944BE4C";
name = "GX {140, 500}";
paths = (
{
closed = 1;
nodes = (
"201 0 LINE",
"201 466 LINE",
"316 276 LINE",
"393 276 LINE",
"508 466 LINE",
"508 0 LINE",
"648 0 LINE",
"648 700 LINE",
"512 700 LINE",
"355 447 LINE",
"198 700 LINE",
"61 700 LINE",
"61 0 LINE"
);
}
);
width = 710;
},
{
associatedMasterId = "DCBE1F7B-116A-43E0-B7B4-8657BA77D8B5";
hints = (
{
origin = "{0, 12}";
target = "{0, 0}";
},
{
origin = "{0, 5}";
target = "{0, 6}";
}
);
layerId = "1ADA72E0-61AC-4953-9B90-E9614AA2F5CA";
name = "GX {140, 300}";
paths = (
{
closed = 1;
nodes = (
"181 0 LINE",
"181 453 LINE",
"269 280 LINE",
"275 280 LINE",
"364 451 LINE",
"364 0 LINE",
"504 0 LINE",
"504 700 LINE",
"367 700 LINE",
"272 496 LINE",
"178 700 LINE",
"41 700 LINE",
"41 0 LINE"
);
}
);
width = 545;
}
);
unicode = 004D;
},
{
color = 3;
glyphname = N;
layers = (
{
anchors = (
{
name = bottom;
position = "{346, 0}";
},
{
name = top;
position = "{344, 700}";
}
);
hints = (
{
origin = "{0, 9}";
target = "{0, 0}";
},
{
origin = "{0, 2}";
target = "{0, 3}";
}
);
layerId = "262880E7-CFE1-4BDA-902E-E24798F3240A";
paths = (
{
closed = 1;
nodes = (
"139 0 LINE",
"139 658 LINE",
"545 0 LINE",
"567 0 LINE",
"567 700 LINE",
"545 700 LINE",
"545 42 LINE",
"139 700 LINE",
"117 700 LINE",
"117 0 LINE"
);
}
);
width = 684;
},
{
anchors = (
{
name = bottom;
position = "{274, 0}";
},
{
name = top;
position = "{262, 700}";
}
);
hints = (
{
origin = "{0, 9}";
target = "{0, 0}";
},
{
origin = "{0, 5}";
target = "{0, 4}";
}
);
layerId = "4E2227F3-52E4-4048-A8EE-327B486EF0A4";
paths = (
{
closed = 1;
nodes = (
"212 0 LINE",
"210 346 LINE",
"296 0 LINE",
"502 0 LINE",
"502 700 LINE",
"316 700 LINE",
"317 356 LINE",
"230 700 LINE",
"26 700 LINE",
"26 0 LINE"
);
}
);
width = 528;
},
{
anchors = (
{
name = bottom;
position = "{328, 0}";
},
{
name = top;
position = "{318, 700}";
}
);
layerId = "FFFA8D72-12AC-4CE0-B2CA-57A29829F4DA";
paths = (
{
closed = 1;
nodes = (
"227 0 LINE",
"225 367 LINE",
"441 0 LINE",
"619 0 LINE",
"619 700 LINE",
"431 700 LINE",
"432 340 LINE",
"217 700 LINE",
"39 700 LINE",
"39 0 LINE"
);
}
);
width = 658;
},
{
anchors = (
{
name = bottom;
position = "{236, 0}";
},
{
name = top;
position = "{240, 710}";
}
);
hints = (
{
origin = "{0, 9}";
target = "{0, 0}";
},
{
origin = "{0, 5}";
target = "{0, 4}";
}
);
layerId = "DCBE1F7B-116A-43E0-B7B4-8657BA77D8B5";
paths = (
{
closed = 1;
nodes = (
"113 0 LINE",
"113 648 LINE",
"365 0 LINE",
"388 0 LINE",
"388 700 LINE",
"366 700 LINE",
"366 52 LINE",
"113 700 LINE",
"91 700 LINE",
"91 0 LINE"
);
}
);
width = 479;
},
{
anchors = (
{
name = bottom;
position = "{348, 0}";
},
{
name = top;
position = "{329, 700}";
}
);
associatedMasterId = "4E2227F3-52E4-4048-A8EE-327B486EF0A4";
hints = (
{
origin = "{0, 9}";
target = "{0, 0}";
},
{
origin = "{0, 2}";
target = "{0, 3}";
}
);
layerId = "AF700569-CAED-4344-924C-FF7EDA896D2F";
name = "{100,500}";
paths = (
{
closed = 1;
nodes = (
"180 0 LINE",
"179 510 LINE",
"492 0 LINE",
"588 0 LINE",
"588 700 LINE",
"488 700 LINE",
"488 193 LINE",
"175 700 LINE",
"80 700 LINE",
"80 0 LINE"
);
}
);
width = 667;
},
{
anchors = (
{
name = bottom;
position = "{349, 0}";
},
{
name = top;
position = "{317, 700}";
}
);
associatedMasterId = "4E2227F3-52E4-4048-A8EE-327B486EF0A4";
hints = (
{
origin = "{0, 9}";
target = "{0, 0}";
},
{
origin = "{0, 2}";
target = "{0, 3}";
}
);
layerId = "41551B11-FA3B-4B44-9CCB-4B5A17E8222E";
name = "{166,500}";
paths = (
{
closed = 1;
nodes = (
"214 0 LINE",
"212 404 LINE",
"448 0 LINE",
"603 0 LINE",
"603 700 LINE",
"439 700 LINE",
"440 302 LINE",
"205 700 LINE",
"50 700 LINE",
"50 0 LINE"
);
}
);
width = 653;
},
{
anchors = (
{
name = bottom;
position = "{256, 0}";
},
{
name = top;
position = "{251, 700}";
}
);
associatedMasterId = "4E2227F3-52E4-4048-A8EE-327B486EF0A4";
hints = (
{
origin = "{0, 9}";
target = "{0, 0}";
},
{
origin = "{0, 5}";
target = "{0, 4}";
}
);
layerId = "42C43E0D-C6E2-494E-A0C1-A4C56C6C4E84";
name = "{100,300}";
paths = (
{
closed = 1;
nodes = (
"160 0 LINE",
"159 451 LINE",
"342 0 LINE",
"442 0 LINE",
"442 700 LINE",
"343 700 LINE",
"343 250 LINE",
"160 700 LINE",
"61 700 LINE",
"61 0 LINE"
);
}
);
width = 502;
},
{
anchors = (
{
name = bottom;
position = "{270, 0}";
},
{
name = top;
position = "{259, 700}";
}
);
associatedMasterId = "DCBE1F7B-116A-43E0-B7B4-8657BA77D8B5";
hints = (
{
origin = "{0, 9}";
target = "{0, 0}";
},
{
origin = "{0, 5}";
target = "{0, 4}";
}
);
layerId = "374955B2-DA7B-46BF-9E15-25A60EE56E27";
name = "GX {166, 300}";
paths = (
{
closed = 1;
nodes = (
"199 0 LINE",
"197 372 LINE",
"308 0 LINE",
"487 0 LINE",
"487 700 LINE",
"323 700 LINE",
"324 330 LINE",
"213 700 LINE",
"35 700 LINE",
"35 0 LINE"
);
}
);
width = 522;
}
);
leftKerningGroup = H;
rightKerningGroup = H;
unicode = 004E;
},
{
glyphname = Nacute;
layers = (
{
anchors = (
{
name = bottom;
position = "{346, 0}";
},
{
name = top;
position = "{344, 700}";
}
);
hints = (
{
origin = "{0, 9}";
target = "{0, 0}";
},
{
origin = "{0, 2}";
target = "{0, 3}";
}
);
layerId = "262880E7-CFE1-4BDA-902E-E24798F3240A";
paths = (
{
closed = 1;
nodes = (
"139 0 LINE",
"139 658 LINE",
"545 0 LINE",
"567 0 LINE",
"567 700 LINE",
"545 700 LINE",
"545 42 LINE",
"139 700 LINE",
"117 700 LINE",
"117 0 LINE"
);
},
{
closed = 1;
nodes = (
"337 769 LINE",
"412 900 LINE",
"388 900 LINE",
"315 769 LINE"
);
}
);
width = 684;
},
{
anchors = (
{
name = bottom;
position = "{328, 0}";
},
{
name = top;
position = "{318, 700}";
}
);
layerId = "FFFA8D72-12AC-4CE0-B2CA-57A29829F4DA";
paths = (
{
closed = 1;
nodes = (
"227 0 LINE",
"225 367 LINE",
"441 0 LINE",
"619 0 LINE",
"619 700 LINE",
"431 700 LINE",
"432 340 LINE",
"217 700 LINE",
"39 700 LINE",
"39 0 LINE"
);
},
{
closed = 1;
nodes = (
"398 759 LINE",
"489 880 LINE",
"283 880 LINE",
"219 759 LINE"
);
}
);
width = 658;
},
{
anchors = (
{
name = bottom;
position = "{236, 0}";
},
{
name = top;
position = "{240, 710}";
}
);
hints = (
{
origin = "{0, 9}";
target = "{0, 0}";
},
{
origin = "{0, 5}";
target = "{0, 4}";
}
);
layerId = "DCBE1F7B-116A-43E0-B7B4-8657BA77D8B5";
paths = (
{
closed = 1;
nodes = (
"113 0 LINE",
"113 648 LINE",
"365 0 LINE",
"388 0 LINE",
"388 700 LINE",
"366 700 LINE",
"366 52 LINE",
"113 700 LINE",
"91 700 LINE",
"91 0 LINE"
);
},
{
closed = 1;
nodes = (
"229 779 LINE",
"304 910 LINE",
"280 910 LINE",
"207 779 LINE"
);
}
);
width = 479;
},
{
anchors = (
{
name = bottom;
position = "{274, 0}";
},
{
name = top;
position = "{262, 700}";
}
);
hints = (
{
origin = "{0, 9}";
target = "{0, 0}";
},
{
origin = "{0, 5}";
target = "{0, 4}";
}
);
layerId = "4E2227F3-52E4-4048-A8EE-327B486EF0A4";
paths = (
{
closed = 1;
nodes = (
"212 0 LINE",
"210 346 LINE",
"296 0 LINE",
"502 0 LINE",
"502 700 LINE",
"316 700 LINE",
"317 356 LINE",
"230 700 LINE",
"26 700 LINE",
"26 0 LINE"
);
},
{
closed = 1;
nodes = (
"317 759 LINE",
"416 880 LINE",
"238 880 LINE",
"166 759 LINE"
);
}
);
width = 528;
}
);
unicode = 0143;
},
{
glyphname = Ncaron;
layers = (
{
anchors = (
{
name = bottom;
position = "{346, 0}";
},
{
name = top;
position = "{344, 700}";
}
);
hints = (
{
origin = "{0, 9}";
target = "{0, 0}";
},
{
origin = "{0, 2}";
target = "{0, 3}";
}
);
layerId = "262880E7-CFE1-4BDA-902E-E24798F3240A";
paths = (
{
closed = 1;
nodes = (
"139 0 LINE",
"139 658 LINE",
"545 0 LINE",
"567 0 LINE",
"567 700 LINE",
"545 700 LINE",
"545 42 LINE",
"139 700 LINE",
"117 700 LINE",
"117 0 LINE"
);
},
{
closed = 1;
nodes = (
"353 775 LINE",
"451 900 LINE",
"425 900 LINE",
"344 795 LINE",
"261 900 LINE",
"235 900 LINE",
"333 775 LINE"
);
}
);
width = 684;
},
{
anchors = (
{
name = bottom;
position = "{328, 0}";
},
{
name = top;
position = "{318, 700}";
}
);
layerId = "FFFA8D72-12AC-4CE0-B2CA-57A29829F4DA";
paths = (
{
closed = 1;
nodes = (
"227 0 LINE",
"225 367 LINE",
"441 0 LINE",
"619 0 LINE",
"619 700 LINE",
"431 700 LINE",
"432 340 LINE",
"217 700 LINE",
"39 700 LINE",
"39 0 LINE"
);
},
{
closed = 1;
nodes = (
"433 750 LINE",
"515 879 LINE",
"353 879 LINE",
"318 817 LINE",
"283 879 LINE",
"120 879 LINE",
"199 750 LINE"
);
}
);
width = 658;
},
{
anchors = (
{
name = bottom;
position = "{236, 0}";
},
{
name = top;
position = "{240, 710}";
}
);
hints = (
{
origin = "{0, 9}";
target = "{0, 0}";
},
{
origin = "{0, 5}";
target = "{0, 4}";
}
);
layerId = "DCBE1F7B-116A-43E0-B7B4-8657BA77D8B5";
paths = (
{
closed = 1;
nodes = (
"113 0 LINE",
"113 648 LINE",
"365 0 LINE",
"388 0 LINE",
"388 700 LINE",
"366 700 LINE",
"366 52 LINE",
"113 700 LINE",
"91 700 LINE",
"91 0 LINE"
);
},
{
closed = 1;
nodes = (
"253 791 LINE",
"332 910 LINE",
"300 910 LINE",
"241 816 LINE",
"181 910 LINE",
"150 910 LINE",
"227 791 LINE"
);
}
);
width = 479;
},
{
anchors = (
{
name = bottom;
position = "{274, 0}";
},
{
name = top;
position = "{262, 700}";
}
);
hints = (
{
origin = "{0, 9}";
target = "{0, 0}";
},
{
origin = "{0, 5}";
target = "{0, 4}";
}
);
layerId = "4E2227F3-52E4-4048-A8EE-327B486EF0A4";
paths = (
{
closed = 1;
nodes = (
"212 0 LINE",
"210 346 LINE",
"296 0 LINE",
"502 0 LINE",
"502 700 LINE",
"316 700 LINE",
"317 356 LINE",
"230 700 LINE",
"26 700 LINE",
"26 0 LINE"
);
},
{
closed = 1;
nodes = (
"343 751 LINE",
"426 880 LINE",
"293 880 LINE",
"262 818 LINE",
"229 880 LINE",
"88 880 LINE",
"169 751 LINE"
);
}
);
width = 528;
}
);
unicode = 0147;
},
{
glyphname = Eng;
layers = (
{
anchors = (
{
name = bottom;
position = "{346, 0}";
},
{
name = top;
position = "{344, 700}";
}
);
hints = (
{
origin = "{0, 4}";
target = "{0, 3}";
},
{
horizontal = 1;
origin = "{0, 9}";
target = "{0, 8}";
},
{
origin = "{1, 9}";
target = "{1, 0}";
},
{
origin = "{1, 2}";
target = "{1, 3}";
}
);
layerId = "262880E7-CFE1-4BDA-902E-E24798F3240A";
paths = (
{
closed = 1;
nodes = (
"534 -139 OFFCURVE",
"567 -87 OFFCURVE",
"567 -2 CURVE SMOOTH",
"567 572 LINE",
"545 572 LINE",
"545 -2 LINE SMOOTH",
"545 -74 OFFCURVE",
"521 -118 OFFCURVE",
"448 -118 CURVE",
"448 -139 LINE"
);
},
{
closed = 1;
nodes = (
"139 0 LINE",
"139 658 LINE",
"545 0 LINE",
"567 0 LINE",
"567 700 LINE",
"545 700 LINE",
"545 42 LINE",
"139 700 LINE",
"117 700 LINE",
"117 0 LINE"
);
}
);
width = 684;
},
{
anchors = (
{
name = bottom;
position = "{328, 0}";
},
{
name = top;
position = "{318, 700}";
}
);
layerId = "FFFA8D72-12AC-4CE0-B2CA-57A29829F4DA";
paths = (
{
closed = 1;
nodes = (
"558 -209 OFFCURVE",
"619 -163 OFFCURVE",
"619 29 CURVE SMOOTH",
"619 520 LINE",
"431 520 LINE",
"431 26 LINE SMOOTH",
"431 -38 OFFCURVE",
"407 -52 OFFCURVE",
"312 -44 CURVE",
"312 -201 LINE"
);
},
{
closed = 1;
nodes = (
"227 0 LINE",
"225 367 LINE",
"441 0 LINE",
"619 0 LINE",
"619 700 LINE",
"431 700 LINE",
"432 340 LINE",
"217 700 LINE",
"39 700 LINE",
"39 0 LINE"
);
}
);
width = 658;
},
{
anchors = (
{
name = bottom;
position = "{236, 0}";
},
{
name = top;
position = "{240, 710}";
}
);
hints = (
{
origin = "{1, 9}";
target = "{1, 0}";
},
{
origin = "{1, 5}";
target = "{1, 4}";
}
);
layerId = "DCBE1F7B-116A-43E0-B7B4-8657BA77D8B5";
paths = (
{
closed = 1;
nodes = (
"387 -133 OFFCURVE",
"388 -81 OFFCURVE",
"388 4 CURVE SMOOTH",
"388 578 LINE",
"366 578 LINE",
"366 4 LINE SMOOTH",
"366 -68 OFFCURVE",
"372 -112 OFFCURVE",
"298 -112 CURVE",
"298 -133 LINE"
);
},
{
closed = 1;
nodes = (
"113 0 LINE",
"113 648 LINE",
"365 0 LINE",
"388 0 LINE",
"388 700 LINE",
"366 700 LINE",
"366 52 LINE",
"113 700 LINE",
"91 700 LINE",
"91 0 LINE"
);
}
);
width = 479;
},
{
anchors = (
{
name = bottom;
position = "{274, 0}";
},
{
name = top;
position = "{262, 700}";
}
);
hints = (
{
origin = "{1, 9}";
target = "{1, 0}";
},
{
origin = "{1, 5}";
target = "{1, 4}";
}
);
layerId = "4E2227F3-52E4-4048-A8EE-327B486EF0A4";
paths = (
{
closed = 1;
nodes = (
"500 -220 OFFCURVE",
"502 -130 OFFCURVE",
"502 19 CURVE SMOOTH",
"502 210 LINE",
"296 210 LINE",
"296 19 LINE SMOOTH",
"296 -29 OFFCURVE",
"301 -59 OFFCURVE",
"230 -51 CURVE",
"231 -211 LINE"
);
},
{
closed = 1;
nodes = (
"212 0 LINE",
"210 346 LINE",
"296 0 LINE",
"502 0 LINE",
"502 700 LINE",
"316 700 LINE",
"317 356 LINE",
"230 700 LINE",
"26 700 LINE",
"26 0 LINE"
);
}
);
width = 528;
}
);
leftMetricsKey = "=N";
rightMetricsKey = "=N";
unicode = 014A;
},
{
glyphname = Ntilde;
layers = (
{
anchors = (
{
name = bottom;
position = "{346, 0}";
},
{
name = top;
position = "{344, 700}";
}
);
hints = (
{
origin = "{0, 9}";
target = "{0, 0}";
},
{
origin = "{0, 2}";
target = "{0, 3}";
}
);
layerId = "262880E7-CFE1-4BDA-902E-E24798F3240A";
paths = (
{
closed = 1;
nodes = (
"139 0 LINE",
"139 658 LINE",
"545 0 LINE",
"567 0 LINE",
"567 700 LINE",
"545 700 LINE",
"545 42 LINE",
"139 700 LINE",
"117 700 LINE",
"117 0 LINE"
);
},
{
closed = 1;
nodes = (
"429 824 OFFCURVE",
"465 837 OFFCURVE",
"485 878 CURVE",
"468 887 LINE",
"448 853 OFFCURVE",
"428 846 OFFCURVE",
"407 846 CURVE SMOOTH",
"390 846 OFFCURVE",
"374 858 OFFCURVE",
"357 869 CURVE SMOOTH",
"340 880 OFFCURVE",
"323 892 OFFCURVE",
"299 892 CURVE SMOOTH",
"271 892 OFFCURVE",
"244 880 OFFCURVE",
"221 844 CURVE",
"238 833 LINE",
"260 865 OFFCURVE",
"276 870 OFFCURVE",
"299 870 CURVE SMOOTH",
"319 870 OFFCURVE",
"332 860 OFFCURVE",
"348 848 CURVE SMOOTH",
"363 837 OFFCURVE",
"382 824 OFFCURVE",
"406 824 CURVE SMOOTH"
);
}
);
width = 684;
},
{
anchors = (
{
name = bottom;
position = "{328, 0}";
},
{
name = top;
position = "{318, 700}";
}
);
layerId = "FFFA8D72-12AC-4CE0-B2CA-57A29829F4DA";
paths = (
{
closed = 1;
nodes = (
"227 0 LINE",
"225 367 LINE",
"441 0 LINE",
"619 0 LINE",
"619 700 LINE",
"431 700 LINE",
"432 340 LINE",
"217 700 LINE",
"39 700 LINE",
"39 0 LINE"
);
},
{
closed = 1;
nodes = (
"448 728 OFFCURVE",
"492 767 OFFCURVE",
"503 801 CURVE",
"434 895 LINE",
"421 871 OFFCURVE",
"401 862 OFFCURVE",
"381 862 CURVE SMOOTH",
"363 862 OFFCURVE",
"347 869 OFFCURVE",
"330 877 CURVE SMOOTH",
"305 889 OFFCURVE",
"280 900 OFFCURVE",
"247 900 CURVE SMOOTH",
"182 900 OFFCURVE",
"134 859 OFFCURVE",
"115 815 CURVE",
"200 729 LINE",
"210 742 OFFCURVE",
"228 758 OFFCURVE",
"259 758 CURVE SMOOTH",
"278 758 OFFCURVE",
"294 752 OFFCURVE",
"312 744 CURVE SMOOTH",
"331 736 OFFCURVE",
"346 728 OFFCURVE",
"378 728 CURVE SMOOTH"
);
}
);
width = 658;
},
{
anchors = (
{
name = bottom;
position = "{236, 0}";
},
{
name = top;
position = "{240, 710}";
}
);
hints = (
{
origin = "{0, 9}";
target = "{0, 0}";
},
{
origin = "{0, 5}";
target = "{0, 4}";
}
);
layerId = "DCBE1F7B-116A-43E0-B7B4-8657BA77D8B5";
paths = (
{
closed = 1;
nodes = (
"113 0 LINE",
"113 648 LINE",
"365 0 LINE",
"388 0 LINE",
"388 700 LINE",
"366 700 LINE",
"366 52 LINE",
"113 700 LINE",
"91 700 LINE",
"91 0 LINE"
);
},
{
closed = 1;
nodes = (
"319 834 OFFCURVE",
"353 847 OFFCURVE",
"371 888 CURVE",
"353 897 LINE",
"335 863 OFFCURVE",
"320 856 OFFCURVE",
"301 856 CURVE SMOOTH",
"283 856 OFFCURVE",
"269 868 OFFCURVE",
"253 879 CURVE SMOOTH",
"237 890 OFFCURVE",
"221 902 OFFCURVE",
"199 902 CURVE SMOOTH",
"173 902 OFFCURVE",
"148 890 OFFCURVE",
"127 854 CURVE",
"143 843 LINE",
"163 875 OFFCURVE",
"178 880 OFFCURVE",
"199 880 CURVE SMOOTH",
"218 880 OFFCURVE",
"229 870 OFFCURVE",
"245 858 CURVE SMOOTH",
"259 847 OFFCURVE",
"276 834 OFFCURVE",
"298 834 CURVE SMOOTH"
);
}
);
width = 479;
},
{
anchors = (
{
name = bottom;
position = "{274, 0}";
},
{
name = top;
position = "{262, 700}";
}
);
hints = (
{
origin = "{0, 9}";
target = "{0, 0}";
},
{
origin = "{0, 5}";
target = "{0, 4}";
}
);
layerId = "4E2227F3-52E4-4048-A8EE-327B486EF0A4";
paths = (
{
closed = 1;
nodes = (
"212 0 LINE",
"210 346 LINE",
"296 0 LINE",
"502 0 LINE",
"502 700 LINE",
"316 700 LINE",
"317 356 LINE",
"230 700 LINE",
"26 700 LINE",
"26 0 LINE"
);
},
{
closed = 1;
nodes = (
"369 751 OFFCURVE",
"417 769 OFFCURVE",
"442 834 CURVE",
"365 888 LINE",
"358 866 OFFCURVE",
"341 859 OFFCURVE",
"327 859 CURVE SMOOTH",
"310 859 OFFCURVE",
"299 869 OFFCURVE",
"288 876 CURVE SMOOTH",
"268 889 OFFCURVE",
"246 898 OFFCURVE",
"221 898 CURVE SMOOTH",
"178 898 OFFCURVE",
"137 870 OFFCURVE",
"122 807 CURVE",
"200 751 LINE",
"209 773 OFFCURVE",
"222 783 OFFCURVE",
"237 783 CURVE SMOOTH",
"251 783 OFFCURVE",
"258 775 OFFCURVE",
"277 766 CURVE SMOOTH",
"300 755 OFFCURVE",
"315 751 OFFCURVE",
"332 751 CURVE SMOOTH"
);
}
);
width = 528;
}
);
leftKerningGroup = H;
rightKerningGroup = H;
unicode = 00D1;
},
{
glyphname = O;
layers = (
{
anchors = (
{
name = top;
position = "{310, 700}";
}
);
hints = (
{
origin = "{0, 9}";
target = "{1, 3}";
},
{
horizontal = 1;
origin = "{0, 6}";
target = "{1, 6}";
},
{
origin = "{1, 9}";
target = "{0, 3}";
},
{
horizontal = 1;
origin = "{0, 13}";
target = "{1, 13}";
}
);
layerId = "262880E7-CFE1-4BDA-902E-E24798F3240A";
paths = (
{
closed = 1;
nodes = (
"443 -7 OFFCURVE",
"532 80 OFFCURVE",
"532 210 CURVE SMOOTH",
"532 489 LINE SMOOTH",
"532 620 OFFCURVE",
"443 708 OFFCURVE",
"310 708 CURVE SMOOTH",
"178 708 OFFCURVE",
"90 620 OFFCURVE",
"90 489 CURVE SMOOTH",
"90 210 LINE SMOOTH",
"90 80 OFFCURVE",
"178 -7 OFFCURVE",
"310 -7 CURVE SMOOTH"
);
},
{
closed = 1;
nodes = (
"191 13 OFFCURVE",
"112 91 OFFCURVE",
"112 209 CURVE SMOOTH",
"112 490 LINE SMOOTH",
"112 608 OFFCURVE",
"191 687 OFFCURVE",
"310 687 CURVE SMOOTH",
"430 687 OFFCURVE",
"510 608 OFFCURVE",
"510 490 CURVE SMOOTH",
"510 209 LINE SMOOTH",
"510 91 OFFCURVE",
"430 13 OFFCURVE",
"310 13 CURVE SMOOTH"
);
}
);
width = 622;
},
{
anchors = (
{
name = top;
position = "{242, 700}";
}
);
layerId = "4E2227F3-52E4-4048-A8EE-327B486EF0A4";
paths = (
{
closed = 1;
nodes = (
"376 -8 OFFCURVE",
"464 75 OFFCURVE",
"464 206 CURVE SMOOTH",
"464 494 LINE SMOOTH",
"464 625 OFFCURVE",
"376 708 OFFCURVE",
"242 708 CURVE SMOOTH",
"107 708 OFFCURVE",
"20 625 OFFCURVE",
"20 494 CURVE SMOOTH",
"20 206 LINE SMOOTH",
"20 75 OFFCURVE",
"107 -8 OFFCURVE",
"242 -8 CURVE SMOOTH"
);
},
{
closed = 1;
nodes = (
"220 153 OFFCURVE",
"208 171 OFFCURVE",
"208 198 CURVE SMOOTH",
"208 502 LINE SMOOTH",
"208 529 OFFCURVE",
"220 547 OFFCURVE",
"242 547 CURVE SMOOTH",
"264 547 OFFCURVE",
"276 529 OFFCURVE",
"276 502 CURVE SMOOTH",
"276 198 LINE SMOOTH",
"276 171 OFFCURVE",
"264 153 OFFCURVE",
"242 153 CURVE SMOOTH"
);
}
);
width = 484;
},
{
anchors = (
{
name = top;
position = "{310, 700}";
}
);
guideLines = (
{
position = "{310, 613}";
},
{
position = "{307, 360}";
},
{
position = "{310, 87}";
}
);
layerId = "FFFA8D72-12AC-4CE0-B2CA-57A29829F4DA";
paths = (
{
closed = 1;
nodes = (
"479 -12 OFFCURVE",
"591 95 OFFCURVE",
"591 256 CURVE SMOOTH",
"591 444 LINE SMOOTH",
"591 602 OFFCURVE",
"479 708 OFFCURVE",
"310 708 CURVE SMOOTH",
"142 708 OFFCURVE",
"30 602 OFFCURVE",
"30 444 CURVE SMOOTH",
"30 256 LINE SMOOTH",
"30 95 OFFCURVE",
"142 -12 OFFCURVE",
"310 -12 CURVE SMOOTH"
);
},
{
closed = 1;
nodes = (
"255 149 OFFCURVE",
"218 189 OFFCURVE",
"218 250 CURVE SMOOTH",
"218 446 LINE SMOOTH",
"218 507 OFFCURVE",
"255 547 OFFCURVE",
"310 547 CURVE SMOOTH",
"366 547 OFFCURVE",
"403 507 OFFCURVE",
"403 446 CURVE SMOOTH",
"403 250 LINE SMOOTH",
"403 189 OFFCURVE",
"366 149 OFFCURVE",
"310 149 CURVE SMOOTH"
);
}
);
width = 621;
},
{
anchors = (
{
name = top;
position = "{221, 699}";
}
);
layerId = "DCBE1F7B-116A-43E0-B7B4-8657BA77D8B5";
paths = (
{
closed = 1;
nodes = (
"311 -8 OFFCURVE",
"374 56 OFFCURVE",
"374 150 CURVE SMOOTH",
"374 549 LINE SMOOTH",
"374 643 OFFCURVE",
"311 708 OFFCURVE",
"221 708 CURVE SMOOTH",
"132 708 OFFCURVE",
"70 643 OFFCURVE",
"70 549 CURVE SMOOTH",
"70 150 LINE SMOOTH",
"70 56 OFFCURVE",
"132 -8 OFFCURVE",
"221 -8 CURVE SMOOTH"
);
},
{
closed = 1;
nodes = (
"145 13 OFFCURVE",
"92 69 OFFCURVE",
"92 149 CURVE SMOOTH",
"92 550 LINE SMOOTH",
"92 631 OFFCURVE",
"145 687 OFFCURVE",
"221 687 CURVE SMOOTH",
"298 687 OFFCURVE",
"352 631 OFFCURVE",
"352 550 CURVE SMOOTH",
"352 149 LINE SMOOTH",
"352 69 OFFCURVE",
"298 13 OFFCURVE",
"221 13 CURVE SMOOTH"
);
}
);
width = 444;
}
);
leftKerningGroup = O;
rightKerningGroup = O;
unicode = 004F;
},
{
glyphname = Oacute;
layers = (
{
anchors = (
{
name = top;
position = "{310, 700}";
}
);
hints = (
{
origin = "{0, 9}";
target = "{1, 3}";
},
{
horizontal = 1;
origin = "{0, 6}";
target = "{1, 6}";
},
{
origin = "{1, 9}";
target = "{0, 3}";
},
{
horizontal = 1;
origin = "{0, 13}";
target = "{1, 13}";
}
);
layerId = "262880E7-CFE1-4BDA-902E-E24798F3240A";
paths = (
{
closed = 1;
nodes = (
"443 -7 OFFCURVE",
"532 80 OFFCURVE",
"532 210 CURVE SMOOTH",
"532 489 LINE SMOOTH",
"532 620 OFFCURVE",
"443 708 OFFCURVE",
"310 708 CURVE SMOOTH",
"178 708 OFFCURVE",
"90 620 OFFCURVE",
"90 489 CURVE SMOOTH",
"90 210 LINE SMOOTH",
"90 80 OFFCURVE",
"178 -7 OFFCURVE",
"310 -7 CURVE SMOOTH"
);
},
{
closed = 1;
nodes = (
"191 13 OFFCURVE",
"112 91 OFFCURVE",
"112 209 CURVE SMOOTH",
"112 490 LINE SMOOTH",
"112 608 OFFCURVE",
"191 687 OFFCURVE",
"310 687 CURVE SMOOTH",
"430 687 OFFCURVE",
"510 608 OFFCURVE",
"510 490 CURVE SMOOTH",
"510 209 LINE SMOOTH",
"510 91 OFFCURVE",
"430 13 OFFCURVE",
"310 13 CURVE SMOOTH"
);
},
{
closed = 1;
nodes = (
"303 769 LINE",
"378 900 LINE",
"354 900 LINE",
"281 769 LINE"
);
}
);
width = 622;
},
{
anchors = (
{
name = top;
position = "{310, 700}";
}
);
layerId = "FFFA8D72-12AC-4CE0-B2CA-57A29829F4DA";
paths = (
{
closed = 1;
nodes = (
"479 -12 OFFCURVE",
"591 95 OFFCURVE",
"591 256 CURVE SMOOTH",
"591 444 LINE SMOOTH",
"591 602 OFFCURVE",
"479 708 OFFCURVE",
"310 708 CURVE SMOOTH",
"142 708 OFFCURVE",
"30 602 OFFCURVE",
"30 444 CURVE SMOOTH",
"30 256 LINE SMOOTH",
"30 95 OFFCURVE",
"142 -12 OFFCURVE",
"310 -12 CURVE SMOOTH"
);
},
{
closed = 1;
nodes = (
"255 149 OFFCURVE",
"218 189 OFFCURVE",
"218 250 CURVE SMOOTH",
"218 446 LINE SMOOTH",
"218 507 OFFCURVE",
"255 547 OFFCURVE",
"310 547 CURVE SMOOTH",
"366 547 OFFCURVE",
"403 507 OFFCURVE",
"403 446 CURVE SMOOTH",
"403 250 LINE SMOOTH",
"403 189 OFFCURVE",
"366 149 OFFCURVE",
"310 149 CURVE SMOOTH"
);
},
{
closed = 1;
nodes = (
"390 759 LINE",
"481 880 LINE",
"275 880 LINE",
"211 759 LINE"
);
}
);
width = 621;
},
{
anchors = (
{
name = top;
position = "{221, 699}";
}
);
layerId = "DCBE1F7B-116A-43E0-B7B4-8657BA77D8B5";
paths = (
{
closed = 1;
nodes = (
"311 -8 OFFCURVE",
"374 56 OFFCURVE",
"374 150 CURVE SMOOTH",
"374 549 LINE SMOOTH",
"374 643 OFFCURVE",
"311 708 OFFCURVE",
"221 708 CURVE SMOOTH",
"132 708 OFFCURVE",
"70 643 OFFCURVE",
"70 549 CURVE SMOOTH",
"70 150 LINE SMOOTH",
"70 56 OFFCURVE",
"132 -8 OFFCURVE",
"221 -8 CURVE SMOOTH"
);
},
{
closed = 1;
nodes = (
"145 13 OFFCURVE",
"92 69 OFFCURVE",
"92 149 CURVE SMOOTH",
"92 550 LINE SMOOTH",
"92 631 OFFCURVE",
"145 687 OFFCURVE",
"221 687 CURVE SMOOTH",
"298 687 OFFCURVE",
"352 631 OFFCURVE",
"352 550 CURVE SMOOTH",
"352 149 LINE SMOOTH",
"352 69 OFFCURVE",
"298 13 OFFCURVE",
"221 13 CURVE SMOOTH"
);
},
{
closed = 1;
nodes = (
"210 768 LINE",
"285 899 LINE",
"261 899 LINE",
"188 768 LINE"
);
}
);
width = 444;
},
{
anchors = (
{
name = top;
position = "{242, 700}";
}
);
layerId = "4E2227F3-52E4-4048-A8EE-327B486EF0A4";
paths = (
{
closed = 1;
nodes = (
"376 -8 OFFCURVE",
"464 75 OFFCURVE",
"464 206 CURVE SMOOTH",
"464 494 LINE SMOOTH",
"464 625 OFFCURVE",
"376 708 OFFCURVE",
"242 708 CURVE SMOOTH",
"107 708 OFFCURVE",
"20 625 OFFCURVE",
"20 494 CURVE SMOOTH",
"20 206 LINE SMOOTH",
"20 75 OFFCURVE",
"107 -8 OFFCURVE",
"242 -8 CURVE SMOOTH"
);
},
{
closed = 1;
nodes = (
"220 153 OFFCURVE",
"208 171 OFFCURVE",
"208 198 CURVE SMOOTH",
"208 502 LINE SMOOTH",
"208 529 OFFCURVE",
"220 547 OFFCURVE",
"242 547 CURVE SMOOTH",
"264 547 OFFCURVE",
"276 529 OFFCURVE",
"276 502 CURVE SMOOTH",
"276 198 LINE SMOOTH",
"276 171 OFFCURVE",
"264 153 OFFCURVE",
"242 153 CURVE SMOOTH"
);
},
{
closed = 1;
nodes = (
"297 759 LINE",
"396 880 LINE",
"218 880 LINE",
"146 759 LINE"
);
}
);
width = 484;
}
);
leftKerningGroup = O;
rightKerningGroup = O;
unicode = 00D3;
},
{
glyphname = Ocircumflex;
layers = (
{
anchors = (
{
name = top;
position = "{310, 700}";
}
);
hints = (
{
origin = "{0, 9}";
target = "{1, 3}";
},
{
horizontal = 1;
origin = "{0, 6}";
target = "{1, 6}";
},
{
origin = "{1, 9}";
target = "{0, 3}";
},
{
horizontal = 1;
origin = "{0, 13}";
target = "{1, 13}";
}
);
layerId = "262880E7-CFE1-4BDA-902E-E24798F3240A";
paths = (
{
closed = 1;
nodes = (
"443 -7 OFFCURVE",
"532 80 OFFCURVE",
"532 210 CURVE SMOOTH",
"532 489 LINE SMOOTH",
"532 620 OFFCURVE",
"443 708 OFFCURVE",
"310 708 CURVE SMOOTH",
"178 708 OFFCURVE",
"90 620 OFFCURVE",
"90 489 CURVE SMOOTH",
"90 210 LINE SMOOTH",
"90 80 OFFCURVE",
"178 -7 OFFCURVE",
"310 -7 CURVE SMOOTH"
);
},
{
closed = 1;
nodes = (
"191 13 OFFCURVE",
"112 91 OFFCURVE",
"112 209 CURVE SMOOTH",
"112 490 LINE SMOOTH",
"112 608 OFFCURVE",
"191 687 OFFCURVE",
"310 687 CURVE SMOOTH",
"430 687 OFFCURVE",
"510 608 OFFCURVE",
"510 490 CURVE SMOOTH",
"510 209 LINE SMOOTH",
"510 91 OFFCURVE",
"430 13 OFFCURVE",
"310 13 CURVE SMOOTH"
);
},
{
closed = 1;
nodes = (
"227 775 LINE",
"310 880 LINE",
"391 775 LINE",
"417 775 LINE",
"319 900 LINE",
"299 900 LINE",
"201 775 LINE"
);
}
);
width = 622;
},
{
anchors = (
{
name = top;
position = "{310, 700}";
}
);
layerId = "FFFA8D72-12AC-4CE0-B2CA-57A29829F4DA";
paths = (
{
closed = 1;
nodes = (
"479 -12 OFFCURVE",
"591 95 OFFCURVE",
"591 256 CURVE SMOOTH",
"591 444 LINE SMOOTH",
"591 602 OFFCURVE",
"479 708 OFFCURVE",
"310 708 CURVE SMOOTH",
"142 708 OFFCURVE",
"30 602 OFFCURVE",
"30 444 CURVE SMOOTH",
"30 256 LINE SMOOTH",
"30 95 OFFCURVE",
"142 -12 OFFCURVE",
"310 -12 CURVE SMOOTH"
);
},
{
closed = 1;
nodes = (
"255 149 OFFCURVE",
"218 189 OFFCURVE",
"218 250 CURVE SMOOTH",
"218 446 LINE SMOOTH",
"218 507 OFFCURVE",
"255 547 OFFCURVE",
"310 547 CURVE SMOOTH",
"366 547 OFFCURVE",
"403 507 OFFCURVE",
"403 446 CURVE SMOOTH",
"403 250 LINE SMOOTH",
"403 189 OFFCURVE",
"366 149 OFFCURVE",
"310 149 CURVE SMOOTH"
);
},
{
closed = 1;
nodes = (
"276 751 LINE",
"311 813 LINE",
"346 751 LINE",
"508 751 LINE",
"426 880 LINE",
"192 880 LINE",
"113 751 LINE"
);
}
);
width = 621;
},
{
anchors = (
{
name = top;
position = "{221, 699}";
}
);
layerId = "DCBE1F7B-116A-43E0-B7B4-8657BA77D8B5";
paths = (
{
closed = 1;
nodes = (
"311 -8 OFFCURVE",
"374 56 OFFCURVE",
"374 150 CURVE SMOOTH",
"374 549 LINE SMOOTH",
"374 643 OFFCURVE",
"311 708 OFFCURVE",
"221 708 CURVE SMOOTH",
"132 708 OFFCURVE",
"70 643 OFFCURVE",
"70 549 CURVE SMOOTH",
"70 150 LINE SMOOTH",
"70 56 OFFCURVE",
"132 -8 OFFCURVE",
"221 -8 CURVE SMOOTH"
);
},
{
closed = 1;
nodes = (
"145 13 OFFCURVE",
"92 69 OFFCURVE",
"92 149 CURVE SMOOTH",
"92 550 LINE SMOOTH",
"92 631 OFFCURVE",
"145 687 OFFCURVE",
"221 687 CURVE SMOOTH",
"298 687 OFFCURVE",
"352 631 OFFCURVE",
"352 550 CURVE SMOOTH",
"352 149 LINE SMOOTH",
"352 69 OFFCURVE",
"298 13 OFFCURVE",
"221 13 CURVE SMOOTH"
);
},
{
closed = 1;
nodes = (
"161 780 LINE",
"221 874 LINE",
"280 780 LINE",
"312 780 LINE",
"233 899 LINE",
"207 899 LINE",
"130 780 LINE"
);
}
);
width = 444;
},
{
anchors = (
{
name = top;
position = "{242, 700}";
}
);
layerId = "4E2227F3-52E4-4048-A8EE-327B486EF0A4";
paths = (
{
closed = 1;
nodes = (
"376 -8 OFFCURVE",
"464 75 OFFCURVE",
"464 206 CURVE SMOOTH",
"464 494 LINE SMOOTH",
"464 625 OFFCURVE",
"376 708 OFFCURVE",
"242 708 CURVE SMOOTH",
"107 708 OFFCURVE",
"20 625 OFFCURVE",
"20 494 CURVE SMOOTH",
"20 206 LINE SMOOTH",
"20 75 OFFCURVE",
"107 -8 OFFCURVE",
"242 -8 CURVE SMOOTH"
);
},
{
closed = 1;
nodes = (
"220 153 OFFCURVE",
"208 171 OFFCURVE",
"208 198 CURVE SMOOTH",
"208 502 LINE SMOOTH",
"208 529 OFFCURVE",
"220 547 OFFCURVE",
"242 547 CURVE SMOOTH",
"264 547 OFFCURVE",
"276 529 OFFCURVE",
"276 502 CURVE SMOOTH",
"276 198 LINE SMOOTH",
"276 171 OFFCURVE",
"264 153 OFFCURVE",
"242 153 CURVE SMOOTH"
);
},
{
closed = 1;
nodes = (
"211 751 LINE",
"240 814 LINE",
"269 751 LINE",
"415 751 LINE",
"331 880 LINE",
"146 880 LINE",
"65 751 LINE"
);
}
);
width = 484;
}
);
leftKerningGroup = O;
rightKerningGroup = O;
unicode = 00D4;
},
{
glyphname = Odieresis;
layers = (
{
anchors = (
{
name = top;
position = "{310, 700}";
}
);
hints = (
{
origin = "{0, 9}";
target = "{1, 3}";
},
{
horizontal = 1;
origin = "{0, 6}";
target = "{1, 6}";
},
{
origin = "{1, 9}";
target = "{0, 3}";
},
{
horizontal = 1;
origin = "{0, 13}";
target = "{1, 13}";
}
);
layerId = "262880E7-CFE1-4BDA-902E-E24798F3240A";
paths = (
{
closed = 1;
nodes = (
"443 -7 OFFCURVE",
"532 80 OFFCURVE",
"532 210 CURVE SMOOTH",
"532 489 LINE SMOOTH",
"532 620 OFFCURVE",
"443 708 OFFCURVE",
"310 708 CURVE SMOOTH",
"178 708 OFFCURVE",
"90 620 OFFCURVE",
"90 489 CURVE SMOOTH",
"90 210 LINE SMOOTH",
"90 80 OFFCURVE",
"178 -7 OFFCURVE",
"310 -7 CURVE SMOOTH"
);
},
{
closed = 1;
nodes = (
"191 13 OFFCURVE",
"112 91 OFFCURVE",
"112 209 CURVE SMOOTH",
"112 490 LINE SMOOTH",
"112 608 OFFCURVE",
"191 687 OFFCURVE",
"310 687 CURVE SMOOTH",
"430 687 OFFCURVE",
"510 608 OFFCURVE",
"510 490 CURVE SMOOTH",
"510 209 LINE SMOOTH",
"510 91 OFFCURVE",
"430 13 OFFCURVE",
"310 13 CURVE SMOOTH"
);
},
{
closed = 1;
nodes = (
"408 819 OFFCURVE",
"428 837 OFFCURVE",
"428 860 CURVE SMOOTH",
"428 882 OFFCURVE",
"408 900 OFFCURVE",
"386 900 CURVE SMOOTH",
"364 900 OFFCURVE",
"344 882 OFFCURVE",
"344 860 CURVE SMOOTH",
"344 837 OFFCURVE",
"363 819 OFFCURVE",
"386 819 CURVE SMOOTH"
);
},
{
closed = 1;
nodes = (
"256 819 OFFCURVE",
"276 837 OFFCURVE",
"276 860 CURVE SMOOTH",
"276 882 OFFCURVE",
"256 900 OFFCURVE",
"234 900 CURVE SMOOTH",
"212 900 OFFCURVE",
"192 882 OFFCURVE",
"192 860 CURVE SMOOTH",
"192 837 OFFCURVE",
"211 819 OFFCURVE",
"234 819 CURVE SMOOTH"
);
}
);
width = 622;
},
{
anchors = (
{
name = top;
position = "{310, 700}";
}
);
layerId = "FFFA8D72-12AC-4CE0-B2CA-57A29829F4DA";
paths = (
{
closed = 1;
nodes = (
"479 -12 OFFCURVE",
"591 95 OFFCURVE",
"591 256 CURVE SMOOTH",
"591 444 LINE SMOOTH",
"591 602 OFFCURVE",
"479 708 OFFCURVE",
"310 708 CURVE SMOOTH",
"142 708 OFFCURVE",
"30 602 OFFCURVE",
"30 444 CURVE SMOOTH",
"30 256 LINE SMOOTH",
"30 95 OFFCURVE",
"142 -12 OFFCURVE",
"310 -12 CURVE SMOOTH"
);
},
{
closed = 1;
nodes = (
"255 149 OFFCURVE",
"218 189 OFFCURVE",
"218 250 CURVE SMOOTH",
"218 446 LINE SMOOTH",
"218 507 OFFCURVE",
"255 547 OFFCURVE",
"310 547 CURVE SMOOTH",
"366 547 OFFCURVE",
"403 507 OFFCURVE",
"403 446 CURVE SMOOTH",
"403 250 LINE SMOOTH",
"403 189 OFFCURVE",
"366 149 OFFCURVE",
"310 149 CURVE SMOOTH"
);
},
{
closed = 1;
nodes = (
"498 744 OFFCURVE",
"545 791 OFFCURVE",
"545 849 CURVE SMOOTH",
"545 907 OFFCURVE",
"490 953 OFFCURVE",
"433 953 CURVE SMOOTH",
"377 953 OFFCURVE",
"321 907 OFFCURVE",
"321 849 CURVE SMOOTH",
"321 791 OFFCURVE",
"368 744 OFFCURVE",
"433 744 CURVE SMOOTH"
);
},
{
closed = 1;
nodes = (
"252 744 OFFCURVE",
"299 791 OFFCURVE",
"299 849 CURVE SMOOTH",
"299 907 OFFCURVE",
"244 953 OFFCURVE",
"187 953 CURVE SMOOTH",
"131 953 OFFCURVE",
"75 907 OFFCURVE",
"75 849 CURVE SMOOTH",
"75 791 OFFCURVE",
"122 744 OFFCURVE",
"187 744 CURVE SMOOTH"
);
}
);
width = 621;
},
{
anchors = (
{
name = top;
position = "{221, 699}";
}
);
layerId = "DCBE1F7B-116A-43E0-B7B4-8657BA77D8B5";
paths = (
{
closed = 1;
nodes = (
"311 -8 OFFCURVE",
"374 56 OFFCURVE",
"374 150 CURVE SMOOTH",
"374 549 LINE SMOOTH",
"374 643 OFFCURVE",
"311 708 OFFCURVE",
"221 708 CURVE SMOOTH",
"132 708 OFFCURVE",
"70 643 OFFCURVE",
"70 549 CURVE SMOOTH",
"70 150 LINE SMOOTH",
"70 56 OFFCURVE",
"132 -8 OFFCURVE",
"221 -8 CURVE SMOOTH"
);
},
{
closed = 1;
nodes = (
"145 13 OFFCURVE",
"92 69 OFFCURVE",
"92 149 CURVE SMOOTH",
"92 550 LINE SMOOTH",
"92 631 OFFCURVE",
"145 687 OFFCURVE",
"221 687 CURVE SMOOTH",
"298 687 OFFCURVE",
"352 631 OFFCURVE",
"352 550 CURVE SMOOTH",
"352 149 LINE SMOOTH",
"352 69 OFFCURVE",
"298 13 OFFCURVE",
"221 13 CURVE SMOOTH"
);
},
{
closed = 1;
nodes = (
"300 818 OFFCURVE",
"316 836 OFFCURVE",
"316 859 CURVE SMOOTH",
"316 881 OFFCURVE",
"300 899 OFFCURVE",
"282 899 CURVE SMOOTH",
"264 899 OFFCURVE",
"248 881 OFFCURVE",
"248 859 CURVE SMOOTH",
"248 836 OFFCURVE",
"263 818 OFFCURVE",
"282 818 CURVE SMOOTH"
);
},
{
closed = 1;
nodes = (
"194 818 OFFCURVE",
"210 836 OFFCURVE",
"210 859 CURVE SMOOTH",
"210 881 OFFCURVE",
"194 899 OFFCURVE",
"176 899 CURVE SMOOTH",
"158 899 OFFCURVE",
"142 881 OFFCURVE",
"142 859 CURVE SMOOTH",
"142 836 OFFCURVE",
"157 818 OFFCURVE",
"176 818 CURVE SMOOTH"
);
}
);
width = 444;
},
{
anchors = (
{
name = top;
position = "{242, 700}";
}
);
layerId = "4E2227F3-52E4-4048-A8EE-327B486EF0A4";
paths = (
{
closed = 1;
nodes = (
"376 -8 OFFCURVE",
"464 75 OFFCURVE",
"464 206 CURVE SMOOTH",
"464 494 LINE SMOOTH",
"464 625 OFFCURVE",
"376 708 OFFCURVE",
"242 708 CURVE SMOOTH",
"107 708 OFFCURVE",
"20 625 OFFCURVE",
"20 494 CURVE SMOOTH",
"20 206 LINE SMOOTH",
"20 75 OFFCURVE",
"107 -8 OFFCURVE",
"242 -8 CURVE SMOOTH"
);
},
{
closed = 1;
nodes = (
"220 153 OFFCURVE",
"208 171 OFFCURVE",
"208 198 CURVE SMOOTH",
"208 502 LINE SMOOTH",
"208 529 OFFCURVE",
"220 547 OFFCURVE",
"242 547 CURVE SMOOTH",
"264 547 OFFCURVE",
"276 529 OFFCURVE",
"276 502 CURVE SMOOTH",
"276 198 LINE SMOOTH",
"276 171 OFFCURVE",
"264 153 OFFCURVE",
"242 153 CURVE SMOOTH"
);
},
{
closed = 1;
nodes = (
"415 735 OFFCURVE",
"458 782 OFFCURVE",
"458 840 CURVE SMOOTH",
"458 898 OFFCURVE",
"406 944 OFFCURVE",
"353 944 CURVE SMOOTH",
"300 944 OFFCURVE",
"248 898 OFFCURVE",
"248 840 CURVE SMOOTH",
"248 782 OFFCURVE",
"291 735 OFFCURVE",
"353 735 CURVE SMOOTH"
);
},
{
closed = 1;
nodes = (
"192 735 OFFCURVE",
"235 782 OFFCURVE",
"235 840 CURVE SMOOTH",
"235 898 OFFCURVE",
"183 944 OFFCURVE",
"130 944 CURVE SMOOTH",
"77 944 OFFCURVE",
"25 898 OFFCURVE",
"25 840 CURVE SMOOTH",
"25 782 OFFCURVE",
"68 735 OFFCURVE",
"130 735 CURVE SMOOTH"
);
}
);
width = 484;
}
);
leftKerningGroup = O;
rightKerningGroup = O;
unicode = 00D6;
},
{
glyphname = Ograve;
layers = (
{
anchors = (
{
name = top;
position = "{310, 700}";
}
);
hints = (
{
origin = "{0, 9}";
target = "{1, 3}";
},
{
horizontal = 1;
origin = "{0, 6}";
target = "{1, 6}";
},
{
origin = "{1, 9}";
target = "{0, 3}";
},
{
horizontal = 1;
origin = "{0, 13}";
target = "{1, 13}";
}
);
layerId = "262880E7-CFE1-4BDA-902E-E24798F3240A";
paths = (
{
closed = 1;
nodes = (
"443 -7 OFFCURVE",
"532 80 OFFCURVE",
"532 210 CURVE SMOOTH",
"532 489 LINE SMOOTH",
"532 620 OFFCURVE",
"443 708 OFFCURVE",
"310 708 CURVE SMOOTH",
"178 708 OFFCURVE",
"90 620 OFFCURVE",
"90 489 CURVE SMOOTH",
"90 210 LINE SMOOTH",
"90 80 OFFCURVE",
"178 -7 OFFCURVE",
"310 -7 CURVE SMOOTH"
);
},
{
closed = 1;
nodes = (
"191 13 OFFCURVE",
"112 91 OFFCURVE",
"112 209 CURVE SMOOTH",
"112 490 LINE SMOOTH",
"112 608 OFFCURVE",
"191 687 OFFCURVE",
"310 687 CURVE SMOOTH",
"430 687 OFFCURVE",
"510 608 OFFCURVE",
"510 490 CURVE SMOOTH",
"510 209 LINE SMOOTH",
"510 91 OFFCURVE",
"430 13 OFFCURVE",
"310 13 CURVE SMOOTH"
);
},
{
closed = 1;
nodes = (
"243 900 LINE",
"219 900 LINE",
"294 769 LINE",
"316 769 LINE"
);
}
);
width = 622;
},
{
anchors = (
{
name = top;
position = "{310, 700}";
}
);
layerId = "FFFA8D72-12AC-4CE0-B2CA-57A29829F4DA";
paths = (
{
closed = 1;
nodes = (
"479 -12 OFFCURVE",
"591 95 OFFCURVE",
"591 256 CURVE SMOOTH",
"591 444 LINE SMOOTH",
"591 602 OFFCURVE",
"479 708 OFFCURVE",
"310 708 CURVE SMOOTH",
"142 708 OFFCURVE",
"30 602 OFFCURVE",
"30 444 CURVE SMOOTH",
"30 256 LINE SMOOTH",
"30 95 OFFCURVE",
"142 -12 OFFCURVE",
"310 -12 CURVE SMOOTH"
);
},
{
closed = 1;
nodes = (
"255 149 OFFCURVE",
"218 189 OFFCURVE",
"218 250 CURVE SMOOTH",
"218 446 LINE SMOOTH",
"218 507 OFFCURVE",
"255 547 OFFCURVE",
"310 547 CURVE SMOOTH",
"366 547 OFFCURVE",
"403 507 OFFCURVE",
"403 446 CURVE SMOOTH",
"403 250 LINE SMOOTH",
"403 189 OFFCURVE",
"366 149 OFFCURVE",
"310 149 CURVE SMOOTH"
);
},
{
closed = 1;
nodes = (
"333 880 LINE",
"127 880 LINE",
"218 759 LINE",
"397 759 LINE"
);
}
);
width = 621;
},
{
anchors = (
{
name = top;
position = "{221, 699}";
}
);
layerId = "DCBE1F7B-116A-43E0-B7B4-8657BA77D8B5";
paths = (
{
closed = 1;
nodes = (
"311 -8 OFFCURVE",
"374 56 OFFCURVE",
"374 150 CURVE SMOOTH",
"374 549 LINE SMOOTH",
"374 643 OFFCURVE",
"311 708 OFFCURVE",
"221 708 CURVE SMOOTH",
"132 708 OFFCURVE",
"70 643 OFFCURVE",
"70 549 CURVE SMOOTH",
"70 150 LINE SMOOTH",
"70 56 OFFCURVE",
"132 -8 OFFCURVE",
"221 -8 CURVE SMOOTH"
);
},
{
closed = 1;
nodes = (
"145 13 OFFCURVE",
"92 69 OFFCURVE",
"92 149 CURVE SMOOTH",
"92 550 LINE SMOOTH",
"92 631 OFFCURVE",
"145 687 OFFCURVE",
"221 687 CURVE SMOOTH",
"298 687 OFFCURVE",
"352 631 OFFCURVE",
"352 550 CURVE SMOOTH",
"352 149 LINE SMOOTH",
"352 69 OFFCURVE",
"298 13 OFFCURVE",
"221 13 CURVE SMOOTH"
);
},
{
closed = 1;
nodes = (
"160 899 LINE",
"136 899 LINE",
"211 768 LINE",
"233 768 LINE"
);
}
);
width = 444;
},
{
anchors = (
{
name = top;
position = "{242, 700}";
}
);
layerId = "4E2227F3-52E4-4048-A8EE-327B486EF0A4";
paths = (
{
closed = 1;
nodes = (
"376 -8 OFFCURVE",
"464 75 OFFCURVE",
"464 206 CURVE SMOOTH",
"464 494 LINE SMOOTH",
"464 625 OFFCURVE",
"376 708 OFFCURVE",
"242 708 CURVE SMOOTH",
"107 708 OFFCURVE",
"20 625 OFFCURVE",
"20 494 CURVE SMOOTH",
"20 206 LINE SMOOTH",
"20 75 OFFCURVE",
"107 -8 OFFCURVE",
"242 -8 CURVE SMOOTH"
);
},
{
closed = 1;
nodes = (
"220 153 OFFCURVE",
"208 171 OFFCURVE",
"208 198 CURVE SMOOTH",
"208 502 LINE SMOOTH",
"208 529 OFFCURVE",
"220 547 OFFCURVE",
"242 547 CURVE SMOOTH",
"264 547 OFFCURVE",
"276 529 OFFCURVE",
"276 502 CURVE SMOOTH",
"276 198 LINE SMOOTH",
"276 171 OFFCURVE",
"264 153 OFFCURVE",
"242 153 CURVE SMOOTH"
);
},
{
closed = 1;
nodes = (
"247 880 LINE",
"69 880 LINE",
"168 759 LINE",
"319 759 LINE"
);
}
);
width = 484;
}
);
leftKerningGroup = O;
rightKerningGroup = O;
unicode = 00D2;
},
{
glyphname = Ohungarumlaut;
layers = (
{
anchors = (
{
name = top;
position = "{310, 700}";
}
);
hints = (
{
origin = "{0, 9}";
target = "{1, 3}";
},
{
horizontal = 1;
origin = "{0, 6}";
target = "{1, 6}";
},
{
origin = "{1, 9}";
target = "{0, 3}";
},
{
horizontal = 1;
origin = "{0, 13}";
target = "{1, 13}";
}
);
layerId = "262880E7-CFE1-4BDA-902E-E24798F3240A";
paths = (
{
closed = 1;
nodes = (
"443 -7 OFFCURVE",
"532 80 OFFCURVE",
"532 210 CURVE SMOOTH",
"532 489 LINE SMOOTH",
"532 620 OFFCURVE",
"443 708 OFFCURVE",
"310 708 CURVE SMOOTH",
"178 708 OFFCURVE",
"90 620 OFFCURVE",
"90 489 CURVE SMOOTH",
"90 210 LINE SMOOTH",
"90 80 OFFCURVE",
"178 -7 OFFCURVE",
"310 -7 CURVE SMOOTH"
);
},
{
closed = 1;
nodes = (
"191 13 OFFCURVE",
"112 91 OFFCURVE",
"112 209 CURVE SMOOTH",
"112 490 LINE SMOOTH",
"112 608 OFFCURVE",
"191 687 OFFCURVE",
"310 687 CURVE SMOOTH",
"430 687 OFFCURVE",
"510 608 OFFCURVE",
"510 490 CURVE SMOOTH",
"510 209 LINE SMOOTH",
"510 91 OFFCURVE",
"430 13 OFFCURVE",
"310 13 CURVE SMOOTH"
);
},
{
closed = 1;
nodes = (
"387 769 LINE",
"462 900 LINE",
"438 900 LINE",
"365 769 LINE"
);
},
{
closed = 1;
nodes = (
"235 769 LINE",
"310 900 LINE",
"286 900 LINE",
"213 769 LINE"
);
}
);
width = 622;
},
{
anchors = (
{
name = top;
position = "{310, 700}";
}
);
layerId = "FFFA8D72-12AC-4CE0-B2CA-57A29829F4DA";
paths = (
{
closed = 1;
nodes = (
"479 -12 OFFCURVE",
"591 95 OFFCURVE",
"591 256 CURVE SMOOTH",
"591 444 LINE SMOOTH",
"591 602 OFFCURVE",
"479 708 OFFCURVE",
"310 708 CURVE SMOOTH",
"142 708 OFFCURVE",
"30 602 OFFCURVE",
"30 444 CURVE SMOOTH",
"30 256 LINE SMOOTH",
"30 95 OFFCURVE",
"142 -12 OFFCURVE",
"310 -12 CURVE SMOOTH"
);
},
{
closed = 1;
nodes = (
"255 149 OFFCURVE",
"218 189 OFFCURVE",
"218 250 CURVE SMOOTH",
"218 446 LINE SMOOTH",
"218 507 OFFCURVE",
"255 547 OFFCURVE",
"310 547 CURVE SMOOTH",
"366 547 OFFCURVE",
"403 507 OFFCURVE",
"403 446 CURVE SMOOTH",
"403 250 LINE SMOOTH",
"403 189 OFFCURVE",
"366 149 OFFCURVE",
"310 149 CURVE SMOOTH"
);
},
{
closed = 1;
nodes = (
"490 759 LINE",
"553 880 LINE",
"392 880 LINE",
"330 759 LINE"
);
},
{
closed = 1;
nodes = (
"302 759 LINE",
"363 880 LINE",
"193 880 LINE",
"142 759 LINE"
);
}
);
width = 621;
},
{
anchors = (
{
name = top;
position = "{221, 699}";
}
);
layerId = "DCBE1F7B-116A-43E0-B7B4-8657BA77D8B5";
paths = (
{
closed = 1;
nodes = (
"311 -8 OFFCURVE",
"374 56 OFFCURVE",
"374 150 CURVE SMOOTH",
"374 549 LINE SMOOTH",
"374 643 OFFCURVE",
"311 708 OFFCURVE",
"221 708 CURVE SMOOTH",
"132 708 OFFCURVE",
"70 643 OFFCURVE",
"70 549 CURVE SMOOTH",
"70 150 LINE SMOOTH",
"70 56 OFFCURVE",
"132 -8 OFFCURVE",
"221 -8 CURVE SMOOTH"
);
},
{
closed = 1;
nodes = (
"145 13 OFFCURVE",
"92 69 OFFCURVE",
"92 149 CURVE SMOOTH",
"92 550 LINE SMOOTH",
"92 631 OFFCURVE",
"145 687 OFFCURVE",
"221 687 CURVE SMOOTH",
"298 687 OFFCURVE",
"352 631 OFFCURVE",
"352 550 CURVE SMOOTH",
"352 149 LINE SMOOTH",
"352 69 OFFCURVE",
"298 13 OFFCURVE",
"221 13 CURVE SMOOTH"
);
},
{
closed = 1;
nodes = (
"279 768 LINE",
"354 899 LINE",
"330 899 LINE",
"257 768 LINE"
);
},
{
closed = 1;
nodes = (
"177 768 LINE",
"252 899 LINE",
"228 899 LINE",
"155 768 LINE"
);
}
);
width = 444;
},
{
anchors = (
{
name = top;
position = "{242, 700}";
}
);
layerId = "4E2227F3-52E4-4048-A8EE-327B486EF0A4";
paths = (
{
closed = 1;
nodes = (
"376 -8 OFFCURVE",
"464 75 OFFCURVE",
"464 206 CURVE SMOOTH",
"464 494 LINE SMOOTH",
"464 625 OFFCURVE",
"376 708 OFFCURVE",
"242 708 CURVE SMOOTH",
"107 708 OFFCURVE",
"20 625 OFFCURVE",
"20 494 CURVE SMOOTH",
"20 206 LINE SMOOTH",
"20 75 OFFCURVE",
"107 -8 OFFCURVE",
"242 -8 CURVE SMOOTH"
);
},
{
closed = 1;
nodes = (
"220 153 OFFCURVE",
"208 171 OFFCURVE",
"208 198 CURVE SMOOTH",
"208 502 LINE SMOOTH",
"208 529 OFFCURVE",
"220 547 OFFCURVE",
"242 547 CURVE SMOOTH",
"264 547 OFFCURVE",
"276 529 OFFCURVE",
"276 502 CURVE SMOOTH",
"276 198 LINE SMOOTH",
"276 171 OFFCURVE",
"264 153 OFFCURVE",
"242 153 CURVE SMOOTH"
);
},
{
closed = 1;
nodes = (
"417 759 LINE",
"478 880 LINE",
"327 880 LINE",
"265 759 LINE"
);
},
{
closed = 1;
nodes = (
"237 759 LINE",
"298 880 LINE",
"138 880 LINE",
"85 759 LINE"
);
}
);
width = 484;
}
);
leftKerningGroup = O;
rightKerningGroup = O;
unicode = 0150;
},
{
glyphname = Omacron;
layers = (
{
anchors = (
{
name = top;
position = "{310, 700}";
}
);
hints = (
{
origin = "{0, 9}";
target = "{1, 3}";
},
{
horizontal = 1;
origin = "{0, 6}";
target = "{1, 6}";
},
{
origin = "{1, 9}";
target = "{0, 3}";
},
{
horizontal = 1;
origin = "{0, 13}";
target = "{1, 13}";
}
);
layerId = "262880E7-CFE1-4BDA-902E-E24798F3240A";
paths = (
{
closed = 1;
nodes = (
"443 -7 OFFCURVE",
"532 80 OFFCURVE",
"532 210 CURVE SMOOTH",
"532 489 LINE SMOOTH",
"532 620 OFFCURVE",
"443 708 OFFCURVE",
"310 708 CURVE SMOOTH",
"178 708 OFFCURVE",
"90 620 OFFCURVE",
"90 489 CURVE SMOOTH",
"90 210 LINE SMOOTH",
"90 80 OFFCURVE",
"178 -7 OFFCURVE",
"310 -7 CURVE SMOOTH"
);
},
{
closed = 1;
nodes = (
"191 13 OFFCURVE",
"112 91 OFFCURVE",
"112 209 CURVE SMOOTH",
"112 490 LINE SMOOTH",
"112 608 OFFCURVE",
"191 687 OFFCURVE",
"310 687 CURVE SMOOTH",
"430 687 OFFCURVE",
"510 608 OFFCURVE",
"510 490 CURVE SMOOTH",
"510 209 LINE SMOOTH",
"510 91 OFFCURVE",
"430 13 OFFCURVE",
"310 13 CURVE SMOOTH"
);
},
{
closed = 1;
nodes = (
"436 805 LINE",
"436 826 LINE",
"185 826 LINE",
"185 805 LINE"
);
}
);
width = 622;
},
{
anchors = (
{
name = top;
position = "{310, 700}";
}
);
layerId = "FFFA8D72-12AC-4CE0-B2CA-57A29829F4DA";
paths = (
{
closed = 1;
nodes = (
"479 -12 OFFCURVE",
"591 95 OFFCURVE",
"591 256 CURVE SMOOTH",
"591 444 LINE SMOOTH",
"591 602 OFFCURVE",
"479 708 OFFCURVE",
"310 708 CURVE SMOOTH",
"142 708 OFFCURVE",
"30 602 OFFCURVE",
"30 444 CURVE SMOOTH",
"30 256 LINE SMOOTH",
"30 95 OFFCURVE",
"142 -12 OFFCURVE",
"310 -12 CURVE SMOOTH"
);
},
{
closed = 1;
nodes = (
"255 149 OFFCURVE",
"218 189 OFFCURVE",
"218 250 CURVE SMOOTH",
"218 446 LINE SMOOTH",
"218 507 OFFCURVE",
"255 547 OFFCURVE",
"310 547 CURVE SMOOTH",
"366 547 OFFCURVE",
"403 507 OFFCURVE",
"403 446 CURVE SMOOTH",
"403 250 LINE SMOOTH",
"403 189 OFFCURVE",
"366 149 OFFCURVE",
"310 149 CURVE SMOOTH"
);
},
{
closed = 1;
nodes = (
"466 747 LINE",
"466 872 LINE",
"155 872 LINE",
"155 747 LINE"
);
}
);
width = 621;
},
{
anchors = (
{
name = top;
position = "{221, 699}";
}
);
layerId = "DCBE1F7B-116A-43E0-B7B4-8657BA77D8B5";
paths = (
{
closed = 1;
nodes = (
"311 -8 OFFCURVE",
"374 56 OFFCURVE",
"374 150 CURVE SMOOTH",
"374 549 LINE SMOOTH",
"374 643 OFFCURVE",
"311 708 OFFCURVE",
"221 708 CURVE SMOOTH",
"132 708 OFFCURVE",
"70 643 OFFCURVE",
"70 549 CURVE SMOOTH",
"70 150 LINE SMOOTH",
"70 56 OFFCURVE",
"132 -8 OFFCURVE",
"221 -8 CURVE SMOOTH"
);
},
{
closed = 1;
nodes = (
"145 13 OFFCURVE",
"92 69 OFFCURVE",
"92 149 CURVE SMOOTH",
"92 550 LINE SMOOTH",
"92 631 OFFCURVE",
"145 687 OFFCURVE",
"221 687 CURVE SMOOTH",
"298 687 OFFCURVE",
"352 631 OFFCURVE",
"352 550 CURVE SMOOTH",
"352 149 LINE SMOOTH",
"352 69 OFFCURVE",
"298 13 OFFCURVE",
"221 13 CURVE SMOOTH"
);
},
{
closed = 1;
nodes = (
"317 804 LINE",
"317 825 LINE",
"126 825 LINE",
"126 804 LINE"
);
}
);
width = 444;
},
{
anchors = (
{
name = top;
position = "{242, 700}";
}
);
layerId = "4E2227F3-52E4-4048-A8EE-327B486EF0A4";
paths = (
{
closed = 1;
nodes = (
"376 -8 OFFCURVE",
"464 75 OFFCURVE",
"464 206 CURVE SMOOTH",
"464 494 LINE SMOOTH",
"464 625 OFFCURVE",
"376 708 OFFCURVE",
"242 708 CURVE SMOOTH",
"107 708 OFFCURVE",
"20 625 OFFCURVE",
"20 494 CURVE SMOOTH",
"20 206 LINE SMOOTH",
"20 75 OFFCURVE",
"107 -8 OFFCURVE",
"242 -8 CURVE SMOOTH"
);
},
{
closed = 1;
nodes = (
"220 153 OFFCURVE",
"208 171 OFFCURVE",
"208 198 CURVE SMOOTH",
"208 502 LINE SMOOTH",
"208 529 OFFCURVE",
"220 547 OFFCURVE",
"242 547 CURVE SMOOTH",
"264 547 OFFCURVE",
"276 529 OFFCURVE",
"276 502 CURVE SMOOTH",
"276 198 LINE SMOOTH",
"276 171 OFFCURVE",
"264 153 OFFCURVE",
"242 153 CURVE SMOOTH"
);
},
{
closed = 1;
nodes = (
"352 752 LINE",
"352 877 LINE",
"121 877 LINE",
"121 752 LINE"
);
}
);
width = 484;
}
);
leftKerningGroup = O;
rightKerningGroup = O;
unicode = 014C;
},
